<?xml version="1.0" encoding="UTF-8" standalone="no"?>
<!DOCTYPE svg PUBLIC "-//W3C//DTD SVG 1.1//EN"
 "http://www.w3.org/Graphics/SVG/1.1/DTD/svg11.dtd">
<!-- Generated by graphviz version 2.50.0 (20211209.1537)
 -->
<!-- Title: g Pages: 1 -->
<svg width="254pt" height="260pt"
 viewBox="0.00 0.00 254.15 260.00" xmlns="http://www.w3.org/2000/svg" xmlns:xlink="http://www.w3.org/1999/xlink">
<g id="graph0" class="graph" transform="scale(1 1) rotate(0) translate(4 256)">
<title>g</title>
<g id="node1" class="node">
<title></title>
<g id="a_node1"><a xlink:href=".">
<ellipse fill="white" stroke="#666666" cx="5.5" cy="-126" rx="5.5" ry="5.5"/>
</a>
</g>
</g>
<!-- Alice.md -->
<g id="node2" class="node">
<title>Alice.md</title>
<g id="a_node2"><a xlink:href="Alice.md" xlink:title="Hello, **Alice**.\l">
<polygon fill="white" stroke="#b3b3b3" points="245.22,-252 160.49,-252 160.49,-216 245.22,-216 245.22,-252"/>
<text text-anchor="start" x="168.68" y="-231" font-family="Helvetica,sans-Serif" font-size="10.00">Hello, **Alice**.</text>
</a>
</g>
</g>
<!-- &#45;&gt;Alice.md -->
<g id="edge1" class="edge">
<title>&#45;&gt;Alice.md</title>
<path fill="none" stroke="#999999" d="M10.58,-128.26C29.73,-138.84 111.89,-184.26 162.1,-212.02"/>
<polygon fill="#999999" stroke="#999999" points="168.96,-215.81 160.76,-215.14 165.68,-214 162.4,-212.18 162.4,-212.18 162.4,-212.18 165.68,-214 164.03,-209.23 168.96,-215.81 168.96,-215.81"/>
<text text-anchor="middle" x="85.28" y="-183" font-family="Helvetica,sans-Serif" font-size="10.00">Alice.md</text>
</g>
<!-- Bob.md -->
<g id="node3" class="node">
<title>Bob.md</title>
<g id="a_node3"><a xlink:href="Bob.md" xlink:title="Hello, **Bob**.\l">
<polygon fill="white" stroke="#b3b3b3" points="243.34,-144 162.38,-144 162.38,-108 243.34,-108 243.34,-144"/>
<text text-anchor="start" x="170.62" y="-123" font-family="Helvetica,sans-Serif" font-size="10.00">Hello, **Bob**.</text>
</a>
</g>
</g>
<!-- &#45;&gt;Bob.md -->
<g id="edge2" class="edge">
<title>&#45;&gt;Bob.md</title>
<path fill="none" stroke="#999999" d="M11.33,-126C30.79,-126 104.83,-126 154.68,-126"/>
<polygon fill="#999999" stroke="#999999" points="162.46,-126 154.96,-129.38 158.71,-126 154.96,-126 154.96,-126 154.96,-126 158.71,-126 154.96,-122.63 162.46,-126 162.46,-126"/>
<text text-anchor="middle" x="85.28" y="-129" font-family="Helvetica,sans-Serif" font-size="10.00">Bob.md</text>
</g>
<!-- Carol.md -->
<g id="node4" class="node">
<title>Carol.md</title>
<g id="a_node4"><a xlink:href="Carol.md" xlink:title="Hello, **Carol**.\l">
<polygon fill="white" stroke="#b3b3b3" points="245.95,-36 159.77,-36 159.77,0 245.95,0 245.95,-36"/>
<text text-anchor="start" x="167.57" y="-15" font-family="Helvetica,sans-Serif" font-size="10.00">Hello, **Carol**.</text>
</a>
</g>
</g>
<!-- &#45;&gt;Carol.md -->
<g id="edge3" class="edge">
<title>&#45;&gt;Carol.md</title>
<path fill="none" stroke="#999999" d="M10.58,-123.74C29.73,-113.16 111.89,-67.74 162.1,-39.98"/>
<polygon fill="#999999" stroke="#999999" points="168.96,-36.19 164.03,-42.77 165.68,-38 162.4,-39.82 162.4,-39.82 162.4,-39.82 165.68,-38 160.76,-36.86 168.96,-36.19 168.96,-36.19"/>
<text text-anchor="middle" x="85.28" y="-94" font-family="Helvetica,sans-Serif" font-size="10.00">Carol.md</text>
</g>
</g>
</svg>
