<svg version="1.1" viewBox="0.0 0.0 600.0 371.0" fill="none" stroke="none" stroke-linecap="square" stroke-miterlimit="10" width="600" height="371" xmlns:xlink="http://www.w3.org/1999/xlink" xmlns="http://www.w3.org/2000/svg"><path fill="#ffffff" d="M0 0L600.0 0L600.0 371.0L0 371.0L0 0Z" fill-rule="nonzero"/><path stroke="#333333" stroke-width="1.0" stroke-linecap="butt" d="M45.5 332.5L581.5 332.5" fill-rule="nonzero"/><path stroke="#cccccc" stroke-width="1.0" stroke-linecap="butt" d="M45.5 278.5L581.5 278.5" fill-rule="nonzero"/><path stroke="#cccccc" stroke-width="1.0" stroke-linecap="butt" d="M45.5 224.5L581.5 224.5" fill-rule="nonzero"/><path stroke="#cccccc" stroke-width="1.0" stroke-linecap="butt" d="M45.5 170.5L581.5 170.5" fill-rule="nonzero"/><path stroke="#cccccc" stroke-width="1.0" stroke-linecap="butt" d="M45.5 116.5L581.5 116.5" fill-rule="nonzero"/><path stroke="#cccccc" stroke-width="1.0" stroke-linecap="butt" d="M45.5 61.5L581.5 61.5" fill-rule="nonzero"/><clipPath id="id_0"><path d="M45.55 61.916668L581.45 61.916668L581.45 332.45L45.55 332.45L45.55 61.916668Z" clip-rule="nonzero"/></clipPath><path stroke="#000000" stroke-width="2.0" stroke-linecap="butt" stroke-opacity="0.0" clip-path="url(#id_0)" d="M131.0 332.0L76.0 332.0L76.0 250.0C76.0 248.89543 76.89543 248.0 78.0 248.0L129.0 248.0C130.10457 248.0 131.0 248.89543 131.0 250.0Z" fill-rule="nonzero"/><path fill="#c27ba0" clip-path="url(#id_0)" d="M131.0 332.0L76.0 332.0L76.0 250.0C76.0 248.89543 76.89543 248.0 78.0 248.0L129.0 248.0C130.10457 248.0 131.0 248.89543 131.0 250.0Z" fill-rule="nonzero"/><path stroke="#000000" stroke-width="2.0" stroke-linecap="butt" stroke-opacity="0.0" clip-path="url(#id_0)" d="M215.0 332.0L160.0 332.0L160.0 303.0C160.0 301.89542 160.89543 301.0 162.0 301.0L213.0 301.0C214.10457 301.0 215.0 301.89542 215.0 303.0Z" fill-rule="nonzero"/><path fill="#c27ba0" clip-path="url(#id_0)" d="M215.0 332.0L160.0 332.0L160.0 303.0C160.0 301.89542 160.89543 301.0 162.0 301.0L213.0 301.0C214.10457 301.0 215.0 301.89542 215.0 303.0Z" fill-rule="nonzero"/><path stroke="#000000" stroke-width="2.0" stroke-linecap="butt" stroke-opacity="0.0" clip-path="url(#id_0)" d="M299.0 332.0L244.0 332.0L244.0 288.0C244.0 286.89542 244.89543 286.0 246.0 286.0L297.0 286.0C298.10458 286.0 299.0 286.89542 299.0 288.0Z" fill-rule="nonzero"/><path fill="#c27ba0" clip-path="url(#id_0)" d="M299.0 332.0L244.0 332.0L244.0 288.0C244.0 286.89542 244.89543 286.0 246.0 286.0L297.0 286.0C298.10458 286.0 299.0 286.89542 299.0 288.0Z" fill-rule="nonzero"/><path stroke="#000000" stroke-width="2.0" stroke-linecap="butt" stroke-opacity="0.0" clip-path="url(#id_0)" d="M384.0 332.0L329.0 332.0L329.0 212.0C329.0 210.89543 329.89542 210.0 331.0 210.0L382.0 210.0C383.10458 210.0 384.0 210.89543 384.0 212.0Z" fill-rule="nonzero"/><path fill="#c27ba0" clip-path="url(#id_0)" d="M384.0 332.0L329.0 332.0L329.0 212.0C329.0 210.89543 329.89542 210.0 331.0 210.0L382.0 210.0C383.10458 210.0 384.0 210.89543 384.0 212.0Z" fill-rule="nonzero"/><path stroke="#000000" stroke-width="2.0" stroke-linecap="butt" stroke-opacity="0.0" clip-path="url(#id_0)" d="M468.0 332.0L413.0 332.0L413.0 238.0C413.0 236.89543 413.89542 236.0 415.0 236.0L466.0 236.0C467.10458 236.0 468.0 236.89543 468.0 238.0Z" fill-rule="nonzero"/><path fill="#c27ba0" clip-path="url(#id_0)" d="M468.0 332.0L413.0 332.0L413.0 238.0C413.0 236.89543 413.89542 236.0 415.0 236.0L466.0 236.0C467.10458 236.0 468.0 236.89543 468.0 238.0Z" fill-rule="nonzero"/><path stroke="#000000" stroke-width="2.0" stroke-linecap="butt" stroke-opacity="0.0" clip-path="url(#id_0)" d="M552.0 332.0L497.0 332.0L497.0 75.0C497.0 73.89543 497.89542 73.0 499.0 73.0L550.0 73.0C551.10455 73.0 552.0 73.89543 552.0 75.0Z" fill-rule="nonzero"/><path fill="#c27ba0" clip-path="url(#id_0)" d="M552.0 332.0L497.0 332.0L497.0 75.0C497.0 73.89543 497.89542 73.0 499.0 73.0L550.0 73.0C551.10455 73.0 552.0 73.89543 552.0 75.0Z" fill-rule="nonzero"/><path fill="#000000" d="M23.05 332.21564Q23.05 330.6844 23.3625 329.7625Q23.675 328.825 24.284374 328.325Q24.909374 327.825 25.846874 327.825Q26.534374 327.825 27.05 328.10626Q27.58125 328.3875 27.925 328.91876Q28.26875 329.4344 28.45625 330.1844Q28.64375 330.9344 28.64375 332.21564Q28.64375 333.73126 28.33125 334.65314Q28.034374 335.575 27.409374 336.09064Q26.8 336.59064 25.846874 336.59064Q24.6125 336.59064 23.89375 335.7Q23.05 334.6375 23.05 332.21564ZM24.128124 332.21564Q24.128124 334.325 24.628124 335.02814Q25.128124 335.73126 25.846874 335.73126Q26.58125 335.73126 27.065624 335.02814Q27.565624 334.325 27.565624 332.21564Q27.565624 330.09064 27.065624 329.40314Q26.58125 328.7 25.83125 328.7Q25.1125 328.7 24.675 329.3094Q24.128124 330.09064 24.128124 332.21564ZM30.64375 336.45L30.64375 335.2469L31.846874 335.2469L31.846874 336.45L30.64375 336.45ZM33.05 332.21564Q33.05 330.6844 33.3625 329.7625Q33.675 328.825 34.284374 328.325Q34.909374 327.825 35.846874 327.825Q36.534374 327.825 37.05 328.10626Q37.58125 328.3875 37.925 328.91876Q38.26875 329.4344 38.45625 330.1844Q38.64375 330.9344 38.64375 332.21564Q38.64375 333.73126 38.33125 334.65314Q38.034374 335.575 37.409374 336.09064Q36.8 336.59064 35.846874 336.59064Q34.6125 336.59064 33.89375 335.7Q33.05 334.6375 33.05 332.21564ZM34.128124 332.21564Q34.128124 334.325 34.628124 335.02814Q35.128124 335.73126 35.846874 335.73126Q36.58125 335.73126 37.065624 335.02814Q37.565624 334.325 37.565624 332.21564Q37.565624 330.09064 37.065624 329.40314Q36.58125 328.7 35.83125 328.7Q35.1125 328.7 34.675 329.3094Q34.128124 330.09064 34.128124 332.21564Z" fill-rule="nonzero"/><path fill="#000000" d="M23.05 278.10895Q23.05 276.5777 23.3625 275.65582Q23.675 274.71832 24.284374 274.21832Q24.909374 273.71832 25.846874 273.71832Q26.534374 273.71832 27.05 273.99957Q27.58125 274.28082 27.925 274.81207Q28.26875 275.3277 28.45625 276.0777Q28.64375 276.8277 28.64375 278.10895Q28.64375 279.62457 28.33125 280.54645Q28.034374 281.46832 27.409374 281.98395Q26.8 282.48395 25.846874 282.48395Q24.6125 282.48395 23.89375 281.59332Q23.05 280.53082 23.05 278.10895ZM24.128124 278.10895Q24.128124 280.21832 24.628124 280.92145Q25.128124 281.62457 25.846874 281.62457Q26.58125 281.62457 27.065624 280.92145Q27.565624 280.21832 27.565624 278.10895Q27.565624 275.98395 27.065624 275.29645Q26.58125 274.59332 25.83125 274.59332Q25.1125 274.59332 24.675 275.2027Q24.128124 275.98395 24.128124 278.10895ZM30.64375 282.34332L30.64375 281.1402L31.846874 281.1402L31.846874 282.34332L30.64375 282.34332ZM37.01875 282.34332L35.971874 282.34332L35.971874 275.62457Q35.58125 275.98395 34.95625 276.35895Q34.346874 276.71832 33.8625 276.8902L33.8625 275.87457Q34.7375 275.4527 35.39375 274.87457Q36.065624 274.28082 36.346874 273.71832L37.01875 273.71832L37.01875 282.34332Z" fill-rule="nonzero"/><path fill="#000000" d="M23.05 224.00229Q23.05 222.47104 23.3625 221.54916Q23.675 220.61166 24.284374 220.11166Q24.909374 219.61166 25.846874 219.61166Q26.534374 219.61166 27.05 219.89291Q27.58125 220.17416 27.925 220.70541Q28.26875 221.22104 28.45625 221.97104Q28.64375 222.72104 28.64375 224.00229Q28.64375 225.51791 28.33125 226.43979Q28.034374 227.36166 27.409374 227.87729Q26.8 228.37729 25.846874 228.37729Q24.6125 228.37729 23.89375 227.48666Q23.05 226.42416 23.05 224.00229ZM24.128124 224.00229Q24.128124 226.11166 24.628124 226.81479Q25.128124 227.51791 25.846874 227.51791Q26.58125 227.51791 27.065624 226.81479Q27.565624 226.11166 27.565624 224.00229Q27.565624 221.87729 27.065624 221.18979Q26.58125 220.48666 25.83125 220.48666Q25.1125 220.48666 24.675 221.09604Q24.128124 221.87729 24.128124 224.00229ZM30.64375 228.23666L30.64375 227.03354L31.846874 227.03354L31.846874 228.23666L30.64375 228.23666ZM38.596874 227.22104L38.596874 228.23666L32.909374 228.23666Q32.909374 227.86166 33.034374 227.50229Q33.253124 226.92416 33.721874 226.36166Q34.20625 225.79916 35.1125 225.06479Q36.51875 223.90854 37.003124 223.23666Q37.503124 222.56479 37.503124 221.97104Q37.503124 221.34604 37.05 220.92416Q36.596874 220.48666 35.878124 220.48666Q35.1125 220.48666 34.659374 220.93979Q34.20625 221.39291 34.190624 222.20541L33.1125 222.09604Q33.221874 220.87729 33.940624 220.25229Q34.675 219.61166 35.909374 219.61166Q37.14375 219.61166 37.8625 220.29916Q38.58125 220.98666 38.58125 222.00229Q38.58125 222.51791 38.3625 223.01791Q38.159374 223.50229 37.659374 224.06479Q37.175 224.61166 36.05 225.56479Q35.096874 226.36166 34.815624 226.65854Q34.55 226.93979 34.378124 227.22104L38.596874 227.22104Z" fill-rule="nonzero"/><path fill="#000000" d="M23.05 169.89563Q23.05 168.36438 23.3625 167.4425Q23.675 166.505 24.284374 166.005Q24.909374 165.505 25.846874 165.505Q26.534374 165.505 27.05 165.78625Q27.58125 166.0675 27.925 166.59875Q28.26875 167.11438 28.45625 167.86438Q28.64375 168.61438 28.64375 169.89563Q28.64375 171.41125 28.33125 172.33313Q28.034374 173.255 27.409374 173.77063Q26.8 174.27063 25.846874 174.27063Q24.6125 174.27063 23.89375 173.38Q23.05 172.3175 23.05 169.89563ZM24.128124 169.89563Q24.128124 172.005 24.628124 172.70813Q25.128124 173.41125 25.846874 173.41125Q26.58125 173.41125 27.065624 172.70813Q27.565624 172.005 27.565624 169.89563Q27.565624 167.77063 27.065624 167.08313Q26.58125 166.38 25.83125 166.38Q25.1125 166.38 24.675 166.98938Q24.128124 167.77063 24.128124 169.89563ZM30.64375 174.13L30.64375 172.92688L31.846874 172.92688L31.846874 174.13L30.64375 174.13ZM33.05 171.86438L34.1125 171.72375Q34.284374 172.61438 34.721874 173.02063Q35.159374 173.41125 35.784374 173.41125Q36.534374 173.41125 37.05 172.89563Q37.565624 172.38 37.565624 171.61438Q37.565624 170.89563 37.08125 170.42688Q36.6125 169.9425 35.878124 169.9425Q35.58125 169.9425 35.128124 170.0675L35.253124 169.13Q35.3625 169.14563 35.425 169.14563Q36.096874 169.14563 36.628124 168.80188Q37.175 168.4425 37.175 167.70813Q37.175 167.13 36.784374 166.755Q36.39375 166.36438 35.76875 166.36438Q35.159374 166.36438 34.7375 166.755Q34.33125 167.14563 34.221874 167.91125L33.159374 167.72375Q33.346874 166.67688 34.034374 166.09875Q34.721874 165.505 35.7375 165.505Q36.440624 165.505 37.034374 165.8175Q37.628124 166.11438 37.940624 166.63Q38.253124 167.14563 38.253124 167.73938Q38.253124 168.28625 37.95625 168.755Q37.659374 169.20813 37.08125 169.47375Q37.83125 169.64563 38.253124 170.20813Q38.675 170.755 38.675 171.59875Q38.675 172.72375 37.846874 173.505Q37.034374 174.28625 35.784374 174.28625Q34.659374 174.28625 33.909374 173.61438Q33.159374 172.92688 33.05 171.86438Z" fill-rule="nonzero"/><path fill="#000000" d="M23.05 115.788956Q23.05 114.257706 23.3625 113.33583Q23.675 112.39833 24.284374 111.89833Q24.909374 111.39833 25.846874 111.39833Q26.534374 111.39833 27.05 111.67958Q27.58125 111.96083 27.925 112.49208Q28.26875 113.007706 28.45625 113.757706Q28.64375 114.507706 28.64375 115.788956Q28.64375 117.30458 28.33125 118.226456Q28.034374 119.14833 27.409374 119.663956Q26.8 120.163956 25.846874 120.163956Q24.6125 120.163956 23.89375 119.27333Q23.05 118.21083 23.05 115.788956ZM24.128124 115.788956Q24.128124 117.89833 24.628124 118.601456Q25.128124 119.30458 25.846874 119.30458Q26.58125 119.30458 27.065624 118.601456Q27.565624 117.89833 27.565624 115.788956Q27.565624 113.663956 27.065624 112.976456Q26.58125 112.27333 25.83125 112.27333Q25.1125 112.27333 24.675 112.882706Q24.128124 113.663956 24.128124 115.788956ZM30.64375 120.02333L30.64375 118.820206L31.846874 118.820206L31.846874 120.02333L30.64375 120.02333ZM36.425 120.02333L36.425 117.96083L32.70625 117.96083L32.70625 116.99208L36.628124 111.42958L37.4875 111.42958L37.4875 116.99208L38.64375 116.99208L38.64375 117.96083L37.4875 117.96083L37.4875 120.02333L36.425 120.02333ZM36.425 116.99208L36.425 113.132706L33.7375 116.99208L36.425 116.99208Z" fill-rule="nonzero"/><path fill="#000000" d="M23.05 61.68229Q23.05 60.15104 23.3625 59.229164Q23.675 58.291664 24.284374 57.791664Q24.909374 57.291664 25.846874 57.291664Q26.534374 57.291664 27.05 57.572914Q27.58125 57.854164 27.925 58.385414Q28.26875 58.90104 28.45625 59.65104Q28.64375 60.40104 28.64375 61.68229Q28.64375 63.197914 28.33125 64.11979Q28.034374 65.041664 27.409374 65.55729Q26.8 66.05729 25.846874 66.05729Q24.6125 66.05729 23.89375 65.166664Q23.05 64.104164 23.05 61.68229ZM24.128124 61.68229Q24.128124 63.791664 24.628124 64.49479Q25.128124 65.197914 25.846874 65.197914Q26.58125 65.197914 27.065624 64.49479Q27.565624 63.791664 27.565624 61.68229Q27.565624 59.55729 27.065624 58.86979Q26.58125 58.166664 25.83125 58.166664Q25.1125 58.166664 24.675 58.77604Q24.128124 59.55729 24.128124 61.68229ZM30.64375 65.916664L30.64375 64.71354L31.846874 64.71354L31.846874 65.916664L30.64375 65.916664ZM33.05 63.666664L34.159374 63.572914Q34.284374 64.385414 34.721874 64.791664Q35.175 65.197914 35.815624 65.197914Q36.565624 65.197914 37.096874 64.61979Q37.628124 64.041664 37.628124 63.104164Q37.628124 62.197914 37.1125 61.68229Q36.6125 61.15104 35.784374 61.15104Q35.284374 61.15104 34.8625 61.385414Q34.45625 61.61979 34.221874 61.979164L33.2375 61.854164L34.065624 57.447914L38.346874 57.447914L38.346874 58.447914L34.909374 58.447914L34.45625 60.760414Q35.221874 60.21354 36.065624 60.21354Q37.190624 60.21354 37.95625 60.99479Q38.7375 61.77604 38.7375 63.010414Q38.7375 64.166664 38.065624 65.02604Q37.2375 66.05729 35.815624 66.05729Q34.64375 66.05729 33.89375 65.40104Q33.159374 64.74479 33.05 63.666664Z" fill-rule="nonzero"/><path fill="#000000" d="M84.43762 349.45L84.43762 340.85626L87.68762 340.85626Q88.53137 340.85626 88.9845 340.9344Q89.62512 341.04376 90.047 341.34064Q90.4845 341.6375 90.7345 342.16876Q91.00012 342.7 91.00012 343.34064Q91.00012 344.4344 90.297 345.2Q89.6095 345.95 87.78137 345.95L85.57825 345.95L85.57825 349.45L84.43762 349.45ZM85.57825 344.95L87.797 344.95Q88.90637 344.95 89.3595 344.54376Q89.82825 344.1219 89.82825 343.3719Q89.82825 342.84064 89.547 342.46564Q89.28137 342.075 88.84387 341.95Q88.547 341.8719 87.78137 341.8719L85.57825 341.8719L85.57825 344.95ZM92.26575 351.84064L92.14075 350.85626Q92.4845 350.95 92.75012 350.95Q93.09387 350.95 93.297 350.825Q93.51575 350.71564 93.65637 350.5125Q93.75012 350.34064 93.9845 349.71564Q94.00012 349.6375 94.07825 349.46564L91.70325 343.23126L92.84387 343.23126L94.14075 346.825Q94.39075 347.5125 94.59387 348.27814Q94.78137 347.54376 95.03137 346.85626L96.3595 343.23126L97.40637 343.23126L95.047 349.5594Q94.65637 350.575 94.45325 350.96564Q94.172 351.4969 93.797 351.73126Q93.43762 351.98126 92.93762 351.98126Q92.64075 351.98126 92.26575 351.84064ZM100.6095 348.5125L100.76575 349.4344Q100.31262 349.52814 99.96887 349.52814Q99.39075 349.52814 99.07825 349.35626Q98.76575 349.16876 98.62512 348.8719Q98.50012 348.575 98.50012 347.6219L98.50012 344.04376L97.7345 344.04376L97.7345 343.23126L98.50012 343.23126L98.50012 341.6844L99.547 341.0594L99.547 343.23126L100.6095 343.23126L100.6095 344.04376L99.547 344.04376L99.547 347.6844Q99.547 348.1375 99.59387 348.2625Q99.65637 348.3875 99.78137 348.46564Q99.90637 348.54376 100.14075 348.54376Q100.32825 348.54376 100.6095 348.5125ZM101.31262 349.45L101.31262 340.85626L102.3595 340.85626L102.3595 343.9344Q103.09387 343.09064 104.21887 343.09064Q104.922 343.09064 105.422 343.3719Q105.93762 343.6375 106.15637 344.1219Q106.37512 344.59064 106.37512 345.5125L106.37512 349.45L105.32825 349.45L105.32825 345.5125Q105.32825 344.71564 104.9845 344.35626Q104.64075 343.9969 104.01575 343.9969Q103.547 343.9969 103.12512 344.2469Q102.71887 344.48126 102.53137 344.90314Q102.3595 345.3094 102.3595 346.04376L102.3595 349.45L101.31262 349.45ZM107.922 346.34064Q107.922 344.60626 108.87512 343.77814Q109.672 343.09064 110.82825 343.09064Q112.1095 343.09064 112.922 343.9344Q113.75012 344.7625 113.75012 346.2469Q113.75012 347.45 113.39075 348.1375Q113.03137 348.825 112.32825 349.21564Q111.64075 349.59064 110.82825 349.59064Q109.53137 349.59064 108.71887 348.7625Q107.922 347.91876 107.922 346.34064ZM109.00012 346.34064Q109.00012 347.52814 109.51575 348.1219Q110.047 348.71564 110.82825 348.71564Q111.62512 348.71564 112.14075 348.1219Q112.65637 347.52814 112.65637 346.3094Q112.65637 345.15314 112.12512 344.5594Q111.6095 343.96564 110.82825 343.96564Q110.047 343.96564 109.51575 344.5594Q109.00012 345.1375 109.00012 346.34064ZM115.31262 349.45L115.31262 343.23126L116.25012 343.23126L116.25012 344.10626Q116.93762 343.09064 118.2345 343.09064Q118.797 343.09064 119.26575 343.29376Q119.75012 343.4969 119.9845 343.825Q120.21887 344.15314 120.31262 344.59064Q120.3595 344.8875 120.3595 345.6219L120.3595 349.45L119.31262 349.45L119.31262 345.66876Q119.31262 345.0125 119.18762 344.7Q119.06262 344.3875 118.75012 344.2Q118.43762 343.9969 118.01575 343.9969Q117.34387 343.9969 116.84387 344.4344Q116.3595 344.85626 116.3595 346.04376L116.3595 349.45L115.31262 349.45Z" fill-rule="nonzero"/><path fill="#000000" d="M178.64383 349.45L178.64383 348.3875L183.05008 342.8875Q183.51883 342.3094 183.9407 341.8719L179.14383 341.8719L179.14383 340.85626L185.30008 340.85626L185.30008 341.8719L180.47195 347.825L179.95633 348.4344L185.4407 348.4344L185.4407 349.45L178.64383 349.45ZM186.20633 342.075L186.20633 340.85626L187.26883 340.85626L187.26883 342.075L186.20633 342.075ZM186.20633 349.45L186.20633 343.23126L187.26883 343.23126L187.26883 349.45L186.20633 349.45ZM189.0032 349.96564L190.03445 350.1219Q190.09695 350.59064 190.39383 350.8094Q190.78445 351.10626 191.45633 351.10626Q192.1907 351.10626 192.58133 350.8094Q192.98758 350.5125 193.1282 349.9969Q193.22195 349.66876 193.20633 348.6375Q192.51883 349.45 191.48758 349.45Q190.20633 349.45 189.5032 348.52814Q188.80008 347.59064 188.80008 346.3094Q188.80008 345.41876 189.11258 344.66876Q189.4407 343.90314 190.05008 343.4969Q190.65945 343.09064 191.48758 343.09064Q192.59695 343.09064 193.3157 343.98126L193.3157 343.23126L194.28445 343.23126L194.28445 348.60626Q194.28445 350.0594 193.98758 350.66876Q193.6907 351.27814 193.05008 351.6219Q192.40945 351.98126 191.47195 351.98126Q190.36258 351.98126 189.67508 351.48126Q188.98758 350.98126 189.0032 349.96564ZM189.8782 346.23126Q189.8782 347.45 190.36258 348.0125Q190.84695 348.575 191.58133 348.575Q192.3157 348.575 192.80008 348.0125Q193.30008 347.45 193.30008 346.2625Q193.30008 345.1219 192.78445 344.54376Q192.28445 343.96564 191.5657 343.96564Q190.86258 343.96564 190.36258 344.54376Q189.8782 345.10626 189.8782 346.23126Z" fill-rule="nonzero"/><path fill="#000000" d="M243.1469 347.0125L244.17815 346.8719Q244.2094 347.85626 244.53752 348.21564Q244.86565 348.575 245.4594 348.575Q245.88127 348.575 246.19377 348.3875Q246.50627 348.1844 246.61565 347.85626Q246.74065 347.5125 246.74065 346.77814L246.74065 340.85626L247.86565 340.85626L247.86565 346.71564Q247.86565 347.79376 247.60002 348.3875Q247.35002 348.98126 246.78752 349.29376Q246.22502 349.59064 245.4594 349.59064Q244.3344 349.59064 243.72502 348.95Q243.13127 348.29376 243.1469 347.0125ZM253.66252 348.6844Q253.06877 349.1844 252.5219 349.3875Q251.99065 349.59064 251.36565 349.59064Q250.3344 349.59064 249.78752 349.09064Q249.24065 348.59064 249.24065 347.8094Q249.24065 347.35626 249.44377 346.98126Q249.6469 346.59064 249.99065 346.3719Q250.3344 346.1375 250.75627 346.02814Q251.05315 345.9344 251.69377 345.85626Q252.9594 345.71564 253.56877 345.4969Q253.56877 345.27814 253.56877 345.23126Q253.56877 344.575 253.2719 344.3094Q252.86565 343.96564 252.06877 343.96564Q251.3344 343.96564 250.97502 344.23126Q250.61565 344.48126 250.44377 345.1375L249.41252 344.9969Q249.55315 344.34064 249.88127 343.9344Q250.2094 343.52814 250.81877 343.3094Q251.42815 343.09064 252.22502 343.09064Q253.0219 343.09064 253.5219 343.27814Q254.0219 343.46564 254.25627 343.7469Q254.49065 344.02814 254.5844 344.46564Q254.63127 344.73126 254.63127 345.4344L254.63127 346.84064Q254.63127 348.3094 254.69377 348.7Q254.7719 349.09064 254.97502 349.45L253.86565 349.45Q253.7094 349.1219 253.66252 348.6844ZM253.56877 346.325Q252.99065 346.5594 251.85002 346.73126Q251.19377 346.825 250.92815 346.95Q250.66252 347.0594 250.50627 347.27814Q250.36565 347.4969 250.36565 347.77814Q250.36565 348.2 250.67815 348.48126Q251.00627 348.7625 251.61565 348.7625Q252.22502 348.7625 252.69377 348.4969Q253.17815 348.23126 253.3969 347.7625Q253.56877 347.40314 253.56877 346.71564L253.56877 346.325ZM258.3188 349.45L255.9594 343.23126L257.0688 343.23126L258.41254 346.95Q258.61566 347.5594 258.80316 348.2Q258.9438 347.71564 259.1938 347.02814L260.5844 343.23126L261.66254 343.23126L259.30316 349.45L258.3188 349.45ZM266.66254 348.6844Q266.0688 349.1844 265.5219 349.3875Q264.99066 349.59064 264.36566 349.59064Q263.3344 349.59064 262.78754 349.09064Q262.24066 348.59064 262.24066 347.8094Q262.24066 347.35626 262.4438 346.98126Q262.6469 346.59064 262.99066 346.3719Q263.3344 346.1375 263.7563 346.02814Q264.05316 345.9344 264.6938 345.85626Q265.9594 345.71564 266.5688 345.4969Q266.5688 345.27814 266.5688 345.23126Q266.5688 344.575 266.2719 344.3094Q265.86566 343.96564 265.0688 343.96564Q264.3344 343.96564 263.97504 344.23126Q263.61566 344.48126 263.4438 345.1375L262.41254 344.9969Q262.55316 344.34064 262.8813 343.9344Q263.2094 343.52814 263.8188 343.3094Q264.42816 343.09064 265.22504 343.09064Q266.0219 343.09064 266.5219 343.27814Q267.0219 343.46564 267.2563 343.7469Q267.49066 344.02814 267.5844 344.46564Q267.6313 344.73126 267.6313 345.4344L267.6313 346.84064Q267.6313 348.3094 267.6938 348.7Q267.7719 349.09064 267.97504 349.45L266.86566 349.45Q266.7094 349.1219 266.66254 348.6844ZM266.5688 346.325Q265.99066 346.5594 264.85004 346.73126Q264.1938 346.825 263.92816 346.95Q263.66254 347.0594 263.5063 347.27814Q263.36566 347.4969 263.36566 347.77814Q263.36566 348.2 263.67816 348.48126Q264.0063 348.7625 264.61566 348.7625Q265.22504 348.7625 265.6938 348.4969Q266.17816 348.23126 266.3969 347.7625Q266.5688 347.40314 266.5688 346.71564L266.5688 346.325ZM269.35004 346.6844L270.41254 346.59064Q270.49066 347.2469 270.7719 347.65314Q271.05316 348.0594 271.6313 348.325Q272.22504 348.575 272.9594 348.575Q273.60004 348.575 274.10004 348.3875Q274.60004 348.1844 274.8344 347.85626Q275.0844 347.5125 275.0844 347.1219Q275.0844 346.71564 274.85004 346.41876Q274.61566 346.10626 274.0844 345.90314Q273.72504 345.7625 272.53754 345.48126Q271.36566 345.2 270.8969 344.95Q270.2719 344.6219 269.97504 344.15314Q269.67816 343.66876 269.67816 343.075Q269.67816 342.4344 270.03754 341.8719Q270.41254 341.29376 271.11566 341.0125Q271.8344 340.71564 272.6938 340.71564Q273.6469 340.71564 274.3813 341.02814Q275.11566 341.325 275.5063 341.9344Q275.8969 342.52814 275.92816 343.27814L274.8344 343.35626Q274.74066 342.54376 274.22504 342.1375Q273.72504 341.71564 272.74066 341.71564Q271.7094 341.71564 271.24066 342.09064Q270.7719 342.46564 270.7719 342.9969Q270.7719 343.46564 271.10004 343.7625Q271.42816 344.0594 272.80316 344.3719Q274.1938 344.6844 274.7094 344.91876Q275.4594 345.27814 275.8188 345.8094Q276.17816 346.325 276.17816 347.02814Q276.17816 347.71564 275.78754 348.325Q275.3969 348.91876 274.66254 349.2625Q273.92816 349.59064 273.0063 349.59064Q271.8344 349.59064 271.03754 349.2625Q270.2563 348.91876 269.80316 348.23126Q269.36566 347.54376 269.35004 346.6844ZM281.66254 347.16876L282.6938 347.3094Q282.5219 348.3719 281.8188 348.98126Q281.11566 349.59064 280.10004 349.59064Q278.8188 349.59064 278.03754 348.7625Q277.2719 347.91876 277.2719 346.35626Q277.2719 345.35626 277.60004 344.60626Q277.9438 343.84064 278.61566 343.46564Q279.30316 343.09064 280.11566 343.09064Q281.11566 343.09064 281.7563 343.60626Q282.41254 344.10626 282.60004 345.0594L281.5688 345.21564Q281.42816 344.59064 281.05316 344.27814Q280.67816 343.95 280.1469 343.95Q279.35004 343.95 278.85004 344.52814Q278.35004 345.09064 278.35004 346.325Q278.35004 347.59064 278.8344 348.15314Q279.3188 348.71564 280.0844 348.71564Q280.7094 348.71564 281.11566 348.34064Q281.53754 347.96564 281.66254 347.16876ZM283.5844 349.45L283.5844 343.23126L284.53754 343.23126L284.53754 344.16876Q284.8969 343.5125 285.1938 343.3094Q285.5063 343.09064 285.8813 343.09064Q286.41254 343.09064 286.9594 343.41876L286.60004 344.40314Q286.2094 344.16876 285.8344 344.16876Q285.47504 344.16876 285.1938 344.3875Q284.92816 344.59064 284.8188 344.96564Q284.6313 345.52814 284.6313 346.1844L284.6313 349.45L283.5844 349.45ZM287.60004 342.075L287.60004 340.85626L288.66254 340.85626L288.66254 342.075L287.60004 342.075ZM287.60004 349.45L287.60004 343.23126L288.66254 343.23126L288.66254 349.45L287.60004 349.45ZM290.60004 351.84064L290.60004 343.23126L291.55316 343.23126L291.55316 344.02814Q291.8969 343.5594 292.3188 343.325Q292.7563 343.09064 293.36566 343.09064Q294.16254 343.09064 294.7719 343.4969Q295.3813 343.90314 295.67816 344.65314Q295.99066 345.40314 295.99066 346.29376Q295.99066 347.2469 295.6469 348.0125Q295.3188 348.77814 294.66254 349.1844Q294.0063 349.59064 293.28754 349.59064Q292.7563 349.59064 292.3344 349.3719Q291.91254 349.1375 291.6469 348.8094L291.6469 351.84064L290.60004 351.84064ZM291.55316 346.3719Q291.55316 347.575 292.03754 348.15314Q292.5219 348.71564 293.2094 348.71564Q293.91254 348.71564 294.41254 348.1219Q294.91254 347.52814 294.91254 346.27814Q294.91254 345.09064 294.42816 344.5125Q293.9438 343.91876 293.2563 343.91876Q292.5844 343.91876 292.0688 344.54376Q291.55316 345.16876 291.55316 346.3719ZM299.8969 348.5125L300.05316 349.4344Q299.60004 349.52814 299.2563 349.52814Q298.67816 349.52814 298.36566 349.35626Q298.05316 349.16876 297.91254 348.8719Q297.78754 348.575 297.78754 347.6219L297.78754 344.04376L297.0219 344.04376L297.0219 343.23126L297.78754 343.23126L297.78754 341.6844L298.8344 341.0594L298.8344 343.23126L299.8969 343.23126L299.8969 344.04376L298.8344 344.04376L298.8344 347.6844Q298.8344 348.1375 298.8813 348.2625Q298.9438 348.3875 299.0688 348.46564Q299.1938 348.54376 299.42816 348.54376Q299.61566 348.54376 299.8969 348.5125Z" fill-rule="nonzero"/><path fill="#000000" d="M334.77496 345.2625Q334.77496 343.1219 335.9156 341.91876Q337.07184 340.7 338.88434 340.7Q340.08746 340.7 341.0406 341.27814Q341.9937 341.84064 342.4937 342.85626Q342.9937 343.8719 342.9937 345.16876Q342.9937 346.46564 342.46246 347.4969Q341.9312 348.52814 340.96246 349.0594Q340.00934 349.59064 338.88434 349.59064Q337.6656 349.59064 336.71246 349.0125Q335.75934 348.41876 335.25934 347.41876Q334.77496 346.40314 334.77496 345.2625ZM335.94684 345.27814Q335.94684 346.84064 336.77496 347.73126Q337.6187 348.6219 338.88434 348.6219Q340.1656 348.6219 340.9937 347.73126Q341.82184 346.825 341.82184 345.15314Q341.82184 344.10626 341.46246 343.325Q341.1187 342.54376 340.4312 342.1219Q339.7437 341.6844 338.89996 341.6844Q337.69684 341.6844 336.82184 342.5125Q335.94684 343.34064 335.94684 345.27814ZM343.9781 349.45L343.9781 343.23126L344.9312 343.23126L344.9312 344.16876Q345.2906 343.5125 345.58746 343.3094Q345.89996 343.09064 346.27496 343.09064Q346.8062 343.09064 347.3531 343.41876L346.9937 344.40314Q346.6031 344.16876 346.2281 344.16876Q345.8687 344.16876 345.58746 344.3875Q345.32184 344.59064 345.21246 344.96564Q345.02496 345.52814 345.02496 346.1844L345.02496 349.45L343.9781 349.45ZM347.9937 342.075L347.9937 340.85626L349.0562 340.85626L349.0562 342.075L347.9937 342.075ZM347.9937 349.45L347.9937 343.23126L349.0562 343.23126L349.0562 349.45L347.9937 349.45ZM350.7906 349.96564L351.82184 350.1219Q351.88434 350.59064 352.1812 350.8094Q352.57184 351.10626 353.2437 351.10626Q353.9781 351.10626 354.3687 350.8094Q354.77496 350.5125 354.9156 349.9969Q355.00934 349.66876 354.9937 348.6375Q354.3062 349.45 353.27496 349.45Q351.9937 349.45 351.2906 348.52814Q350.58746 347.59064 350.58746 346.3094Q350.58746 345.41876 350.89996 344.66876Q351.2281 343.90314 351.83746 343.4969Q352.44684 343.09064 353.27496 343.09064Q354.38434 343.09064 355.1031 343.98126L355.1031 343.23126L356.07184 343.23126L356.07184 348.60626Q356.07184 350.0594 355.77496 350.66876Q355.4781 351.27814 354.83746 351.6219Q354.19684 351.98126 353.25934 351.98126Q352.14996 351.98126 351.46246 351.48126Q350.77496 350.98126 350.7906 349.96564ZM351.6656 346.23126Q351.6656 347.45 352.14996 348.0125Q352.63434 348.575 353.3687 348.575Q354.1031 348.575 354.58746 348.0125Q355.08746 347.45 355.08746 346.2625Q355.08746 345.1219 354.57184 344.54376Q354.07184 343.96564 353.3531 343.96564Q352.64996 343.96564 352.14996 344.54376Q351.6656 345.10626 351.6656 346.23126ZM362.0562 348.6844Q361.46246 349.1844 360.9156 349.3875Q360.38434 349.59064 359.75934 349.59064Q358.7281 349.59064 358.1812 349.09064Q357.63434 348.59064 357.63434 347.8094Q357.63434 347.35626 357.83746 346.98126Q358.0406 346.59064 358.38434 346.3719Q358.7281 346.1375 359.14996 346.02814Q359.44684 345.9344 360.08746 345.85626Q361.3531 345.71564 361.96246 345.4969Q361.96246 345.27814 361.96246 345.23126Q361.96246 344.575 361.6656 344.3094Q361.25934 343.96564 360.46246 343.96564Q359.7281 343.96564 359.3687 344.23126Q359.00934 344.48126 358.83746 345.1375L357.8062 344.9969Q357.94684 344.34064 358.27496 343.9344Q358.6031 343.52814 359.21246 343.3094Q359.82184 343.09064 360.6187 343.09064Q361.4156 343.09064 361.9156 343.27814Q362.4156 343.46564 362.64996 343.7469Q362.88434 344.02814 362.9781 344.46564Q363.02496 344.73126 363.02496 345.4344L363.02496 346.84064Q363.02496 348.3094 363.08746 348.7Q363.1656 349.09064 363.3687 349.45L362.25934 349.45Q362.1031 349.1219 362.0562 348.6844ZM361.96246 346.325Q361.38434 346.5594 360.2437 346.73126Q359.58746 346.825 359.32184 346.95Q359.0562 347.0594 358.89996 347.27814Q358.75934 347.4969 358.75934 347.77814Q358.75934 348.2 359.07184 348.48126Q359.39996 348.7625 360.00934 348.7625Q360.6187 348.7625 361.08746 348.4969Q361.57184 348.23126 361.7906 347.7625Q361.96246 347.40314 361.96246 346.71564L361.96246 346.325ZM364.9937 349.45L364.9937 343.23126L365.9312 343.23126L365.9312 344.10626Q366.2281 343.6375 366.71246 343.3719Q367.19684 343.09064 367.82184 343.09064Q368.50934 343.09064 368.94684 343.3719Q369.39996 343.65314 369.57184 344.16876Q370.32184 343.09064 371.4937 343.09064Q372.4312 343.09064 372.9156 343.60626Q373.4156 344.10626 373.4156 345.1844L373.4156 349.45L372.3687 349.45L372.3687 345.52814Q372.3687 344.90314 372.25934 344.6219Q372.1656 344.34064 371.89996 344.16876Q371.63434 343.9969 371.25934 343.9969Q370.6031 343.9969 370.1656 344.4344Q369.7437 344.8719 369.7437 345.84064L369.7437 349.45L368.6812 349.45L368.6812 345.40314Q368.6812 344.7 368.4156 344.35626Q368.1656 343.9969 367.58746 343.9969Q367.13434 343.9969 366.75934 344.23126Q366.38434 344.46564 366.21246 344.91876Q366.0406 345.3719 366.0406 346.21564L366.0406 349.45L364.9937 349.45ZM374.9937 342.075L374.9937 340.85626L376.0562 340.85626L376.0562 342.075L374.9937 342.075ZM374.9937 349.45L374.9937 343.23126L376.0562 343.23126L376.0562 349.45L374.9937 349.45Z" fill-rule="nonzero"/><path fill="#000000" d="M417.54367 349.45L417.54367 340.85626L423.7468 340.85626L423.7468 341.8719L418.6843 341.8719L418.6843 344.4969L423.4343 344.4969L423.4343 345.5125L418.6843 345.5125L418.6843 348.4344L423.94992 348.4344L423.94992 349.45L417.54367 349.45ZM425.35617 349.45L425.35617 340.85626L426.41867 340.85626L426.41867 349.45L425.35617 349.45ZM432.63742 347.45L433.73117 347.575Q433.48117 348.52814 432.77805 349.0594Q432.07492 349.59064 430.9968 349.59064Q429.63742 349.59064 428.82492 348.7469Q428.02805 347.90314 428.02805 346.3875Q428.02805 344.825 428.84055 343.96564Q429.65305 343.09064 430.9343 343.09064Q432.1843 343.09064 432.96555 343.9344Q433.76242 344.77814 433.76242 346.325Q433.76242 346.41876 433.76242 346.60626L429.1218 346.60626Q429.1843 347.6375 429.69992 348.1844Q430.21555 348.71564 430.9968 348.71564Q431.57492 348.71564 431.98117 348.41876Q432.40305 348.10626 432.63742 347.45ZM429.1843 345.7469L432.65305 345.7469Q432.59055 344.95 432.26242 344.5594Q431.7468 343.95 430.94992 343.95Q430.21555 343.95 429.71555 344.4344Q429.23117 344.91876 429.1843 345.7469ZM437.10617 349.45L434.7468 343.23126L435.85617 343.23126L437.19992 346.95Q437.40305 347.5594 437.59055 348.2Q437.73117 347.71564 437.98117 347.02814L439.3718 343.23126L440.44992 343.23126L438.09055 349.45L437.10617 349.45ZM445.63742 347.45L446.73117 347.575Q446.48117 348.52814 445.77805 349.0594Q445.07492 349.59064 443.9968 349.59064Q442.63742 349.59064 441.82492 348.7469Q441.02805 347.90314 441.02805 346.3875Q441.02805 344.825 441.84055 343.96564Q442.65305 343.09064 443.9343 343.09064Q445.1843 343.09064 445.96555 343.9344Q446.76242 344.77814 446.76242 346.325Q446.76242 346.41876 446.76242 346.60626L442.1218 346.60626Q442.1843 347.6375 442.69992 348.1844Q443.21555 348.71564 443.9968 348.71564Q444.57492 348.71564 444.98117 348.41876Q445.40305 348.10626 445.63742 347.45ZM442.1843 345.7469L445.65305 345.7469Q445.59055 344.95 445.26242 344.5594Q444.7468 343.95 443.94992 343.95Q443.21555 343.95 442.71555 344.4344Q442.23117 344.91876 442.1843 345.7469ZM448.38742 349.45L448.38742 343.23126L449.32492 343.23126L449.32492 344.10626Q450.01242 343.09064 451.3093 343.09064Q451.8718 343.09064 452.34055 343.29376Q452.82492 343.4969 453.0593 343.825Q453.29367 344.15314 453.38742 344.59064Q453.4343 344.8875 453.4343 345.6219L453.4343 349.45L452.38742 349.45L452.38742 345.66876Q452.38742 345.0125 452.26242 344.7Q452.13742 344.3875 451.82492 344.2Q451.51242 343.9969 451.09055 343.9969Q450.41867 343.9969 449.91867 344.4344Q449.4343 344.85626 449.4343 346.04376L449.4343 349.45L448.38742 349.45ZM457.6843 348.5125L457.84055 349.4344Q457.38742 349.52814 457.04367 349.52814Q456.46555 349.52814 456.15305 349.35626Q455.84055 349.16876 455.69992 348.8719Q455.57492 348.575 455.57492 347.6219L455.57492 344.04376L454.8093 344.04376L454.8093 343.23126L455.57492 343.23126L455.57492 341.6844L456.6218 341.0594L456.6218 343.23126L457.6843 343.23126L457.6843 344.04376L456.6218 344.04376L456.6218 347.6844Q456.6218 348.1375 456.66867 348.2625Q456.73117 348.3875 456.85617 348.46564Q456.98117 348.54376 457.21555 348.54376Q457.40305 348.54376 457.6843 348.5125ZM458.34055 351.84064L458.21555 350.85626Q458.5593 350.95 458.82492 350.95Q459.16867 350.95 459.3718 350.825Q459.59055 350.71564 459.73117 350.5125Q459.82492 350.34064 460.0593 349.71564Q460.07492 349.6375 460.15305 349.46564L457.77805 343.23126L458.91867 343.23126L460.21555 346.825Q460.46555 347.5125 460.66867 348.27814Q460.85617 347.54376 461.10617 346.85626L462.4343 343.23126L463.48117 343.23126L461.1218 349.5594Q460.73117 350.575 460.52805 350.96564Q460.2468 351.4969 459.8718 351.73126Q459.51242 351.98126 459.01242 351.98126Q458.71555 351.98126 458.34055 351.84064Z" fill-rule="nonzero"/><path fill="#000000" d="M510.46863 349.45L513.7655 340.85626L514.98425 340.85626L518.4999 349.45L517.2186 349.45L516.203 346.84064L512.6249 346.84064L511.67175 349.45L510.46863 349.45ZM512.953 345.91876L515.85925 345.91876L514.9686 343.54376Q514.54675 342.46564 514.35925 341.7625Q514.1874 342.59064 513.8905 343.40314L512.953 345.91876ZM518.85925 347.59064L519.8905 347.4344Q519.98425 348.0594 520.3749 348.3875Q520.7811 348.71564 521.5155 348.71564Q522.23425 348.71564 522.578 348.4344Q522.9374 348.1375 522.9374 347.73126Q522.9374 347.3719 522.6249 347.16876Q522.4061 347.02814 521.54675 346.8094Q520.3905 346.5125 519.9374 346.3094Q519.4999 346.09064 519.2655 345.71564Q519.0311 345.34064 519.0311 344.8719Q519.0311 344.46564 519.2186 344.10626Q519.4061 343.7469 519.73425 343.5125Q519.98425 343.34064 520.4061 343.21564Q520.828 343.09064 521.328 343.09064Q522.04675 343.09064 522.5936 343.3094Q523.1561 343.5125 523.42175 343.8719Q523.6874 344.23126 523.7811 344.825L522.7499 344.96564Q522.6874 344.4969 522.3436 344.23126Q522.0155 343.95 521.3905 343.95Q520.67175 343.95 520.35925 344.2Q520.04675 344.4344 520.04675 344.7625Q520.04675 344.96564 520.17175 345.1219Q520.3124 345.29376 520.578 345.40314Q520.73425 345.46564 521.5155 345.66876Q522.6405 345.98126 523.078 346.16876Q523.5155 346.35626 523.7655 346.71564Q524.0155 347.075 524.0155 347.6219Q524.0155 348.15314 523.703 348.6219Q523.4061 349.075 522.828 349.34064Q522.2499 349.59064 521.5155 349.59064Q520.29675 349.59064 519.6561 349.09064Q519.0311 348.575 518.85925 347.59064ZM527.578 348.5125L527.73425 349.4344Q527.2811 349.52814 526.9374 349.52814Q526.35925 349.52814 526.04675 349.35626Q525.73425 349.16876 525.5936 348.8719Q525.4686 348.575 525.4686 347.6219L525.4686 344.04376L524.703 344.04376L524.703 343.23126L525.4686 343.23126L525.4686 341.6844L526.5155 341.0594L526.5155 343.23126L527.578 343.23126L527.578 344.04376L526.5155 344.04376L526.5155 347.6844Q526.5155 348.1375 526.5624 348.2625Q526.6249 348.3875 526.7499 348.46564Q526.8749 348.54376 527.10925 348.54376Q527.29675 348.54376 527.578 348.5125ZM528.2655 349.45L528.2655 343.23126L529.2186 343.23126L529.2186 344.16876Q529.578 343.5125 529.8749 343.3094Q530.1874 343.09064 530.5624 343.09064Q531.0936 343.09064 531.6405 343.41876L531.2811 344.40314Q530.8905 344.16876 530.5155 344.16876Q530.1561 344.16876 529.8749 344.3875Q529.60925 344.59064 529.4999 344.96564Q529.3124 345.52814 529.3124 346.1844L529.3124 349.45L528.2655 349.45ZM531.8905 346.34064Q531.8905 344.60626 532.8436 343.77814Q533.6405 343.09064 534.79675 343.09064Q536.078 343.09064 536.8905 343.9344Q537.7186 344.7625 537.7186 346.2469Q537.7186 347.45 537.35925 348.1375Q536.9999 348.825 536.29675 349.21564Q535.60925 349.59064 534.79675 349.59064Q533.4999 349.59064 532.6874 348.7625Q531.8905 347.91876 531.8905 346.34064ZM532.9686 346.34064Q532.9686 347.52814 533.48425 348.1219Q534.0155 348.71564 534.79675 348.71564Q535.5936 348.71564 536.10925 348.1219Q536.6249 347.52814 536.6249 346.3094Q536.6249 345.15314 536.0936 344.5594Q535.578 343.96564 534.79675 343.96564Q534.0155 343.96564 533.48425 344.5594Q532.9686 345.1375 532.9686 346.34064Z" fill-rule="nonzero"/><path fill="#757575" d="M20.01875 37.55L20.01875 23.2375L25.39375 23.2375Q27.034374 23.2375 28.01875 23.675Q29.003124 24.096874 29.565624 25.003124Q30.128124 25.909374 30.128124 26.89375Q30.128124 27.815624 29.628124 28.628124Q29.14375 29.440624 28.128124 29.925Q29.425 30.315624 30.128124 31.2375Q30.83125 32.14375 30.83125 33.39375Q30.83125 34.409374 30.39375 35.26875Q29.971874 36.128124 29.346874 36.596874Q28.721874 37.065624 27.784374 37.315624Q26.846874 37.55 25.471874 37.55L20.01875 37.55ZM21.909374 29.253124L25.003124 29.253124Q26.26875 29.253124 26.815624 29.08125Q27.534374 28.8625 27.89375 28.378124Q28.26875 27.878124 28.26875 27.1125Q28.26875 26.409374 27.925 25.8625Q27.58125 25.315624 26.940624 25.128124Q26.315624 24.925 24.76875 24.925L21.909374 24.925L21.909374 29.253124ZM21.909374 35.8625L25.471874 35.8625Q26.39375 35.8625 26.76875 35.784374Q27.425 35.675 27.8625 35.409374Q28.3 35.128124 28.58125 34.6125Q28.8625 34.08125 28.8625 33.39375Q28.8625 32.596874 28.45625 32.003124Q28.05 31.409374 27.315624 31.175Q26.58125 30.940624 25.221874 30.940624L21.909374 30.940624L21.909374 35.8625ZM39.659374 37.55L39.659374 36.01875Q38.45625 37.784374 36.378124 37.784374Q35.45625 37.784374 34.659374 37.440624Q33.8625 37.08125 33.471874 36.55Q33.096874 36.01875 32.940624 35.2375Q32.83125 34.721874 32.83125 33.596874L32.83125 27.175L34.58125 27.175L34.58125 32.925Q34.58125 34.3 34.690624 34.784374Q34.8625 35.471874 35.39375 35.878124Q35.940624 36.26875 36.721874 36.26875Q37.51875 36.26875 38.20625 35.8625Q38.909374 35.45625 39.190624 34.76875Q39.4875 34.065624 39.4875 32.7375L39.4875 27.175L41.2375 27.175L41.2375 37.55L39.659374 37.55ZM43.878124 25.253124L43.878124 23.2375L45.64375 23.2375L45.64375 25.253124L43.878124 25.253124ZM43.878124 37.55L43.878124 27.175L45.64375 27.175L45.64375 37.55L43.878124 37.55ZM47.83125 37.55L47.83125 23.2375L49.58125 23.2375L49.58125 37.55L47.83125 37.55ZM58.596874 37.55L58.596874 36.2375Q57.6125 37.784374 55.690624 37.784374Q54.45625 37.784374 53.409374 37.096874Q52.378124 36.409374 51.8 35.190624Q51.2375 33.971874 51.2375 32.378124Q51.2375 30.815624 51.753124 29.55Q52.26875 28.284374 53.3 27.6125Q54.346874 26.940624 55.6125 26.940624Q56.55 26.940624 57.284374 27.346874Q58.01875 27.7375 58.4875 28.3625L58.4875 23.2375L60.221874 23.2375L60.221874 37.55L58.596874 37.55ZM53.034374 32.378124Q53.034374 34.3625 53.878124 35.346874Q54.721874 36.33125 55.8625 36.33125Q57.01875 36.33125 57.815624 35.39375Q58.628124 34.45625 58.628124 32.51875Q58.628124 30.39375 57.8 29.39375Q56.9875 28.39375 55.784374 28.39375Q54.6125 28.39375 53.815624 29.3625Q53.034374 30.315624 53.034374 32.378124ZM72.70625 35.971874L72.95625 37.534374Q72.22188 37.690624 71.62813 37.690624Q70.675 37.690624 70.14375 37.39375Q69.62813 37.08125 69.40938 36.596874Q69.19063 36.096874 69.19063 34.51875L69.19063 28.55L67.90938 28.55L67.90938 27.175L69.19063 27.175L69.19063 24.6125L70.94063 23.55L70.94063 27.175L72.70625 27.175L72.70625 28.55L70.94063 28.55L70.94063 34.6125Q70.94063 35.3625 71.03438 35.58125Q71.12813 35.784374 71.33125 35.925Q71.55 36.05 71.94063 36.05Q72.22188 36.05 72.70625 35.971874ZM74.87813 25.253124L74.87813 23.2375L76.64375 23.2375L76.64375 25.253124L74.87813 25.253124ZM74.87813 37.55L74.87813 27.175L76.64375 27.175L76.64375 37.55L74.87813 37.55ZM78.8625 37.55L78.8625 27.175L80.44063 27.175L80.44063 28.628124Q80.925 27.878124 81.7375 27.409374Q82.55 26.940624 83.58125 26.940624Q84.7375 26.940624 85.47188 27.425Q86.20625 27.89375 86.51875 28.753124Q87.75313 26.940624 89.72188 26.940624Q91.26875 26.940624 92.09688 27.8Q92.925 28.659374 92.925 30.425L92.925 37.55L91.175 37.55L91.175 31.01875Q91.175 29.95625 91.00313 29.503124Q90.83125 29.034374 90.37813 28.753124Q89.94063 28.471874 89.33125 28.471874Q88.2375 28.471874 87.50313 29.20625Q86.78438 29.925 86.78438 31.51875L86.78438 37.55L85.03438 37.55L85.03438 30.815624Q85.03438 29.64375 84.59688 29.065624Q84.175 28.471874 83.19063 28.471874Q82.45625 28.471874 81.81563 28.8625Q81.19063 29.253124 80.90938 30.003124Q80.62813 30.753124 80.62813 32.175L80.62813 37.55L78.8625 37.55ZM102.97188 34.20625L104.78438 34.440624Q104.3625 36.01875 103.19063 36.909374Q102.03438 37.784374 100.22188 37.784374Q97.95625 37.784374 96.6125 36.39375Q95.28438 34.9875 95.28438 32.45625Q95.28438 29.83125 96.62813 28.39375Q97.97188 26.940624 100.12813 26.940624Q102.20625 26.940624 103.51875 28.3625Q104.84688 29.76875 104.84688 32.346874Q104.84688 32.503124 104.83125 32.815624L97.09688 32.815624Q97.19063 34.51875 98.06563 35.425Q98.94063 36.33125 100.2375 36.33125Q101.20625 36.33125 101.87813 35.83125Q102.56563 35.315624 102.97188 34.20625ZM97.19063 31.3625L102.9875 31.3625Q102.87813 30.065624 102.33125 29.409374Q101.4875 28.39375 100.14375 28.39375Q98.94063 28.39375 98.1125 29.20625Q97.28438 30.003124 97.19063 31.3625ZM116.22188 41.753124Q114.76875 39.925 113.76875 37.471874Q112.76875 35.003124 112.76875 32.3625Q112.76875 30.034374 113.51875 27.909374Q114.39375 25.440624 116.22188 22.9875L117.4875 22.9875Q116.3 25.01875 115.925 25.89375Q115.33125 27.2375 114.9875 28.70625Q114.56563 30.534374 114.56563 32.378124Q114.56563 37.065624 117.4875 41.753124L116.22188 41.753124ZM119.15938 34.45625L120.90938 34.175Q121.05 35.221874 121.72188 35.784374Q122.39375 36.33125 123.59688 36.33125Q124.8 36.33125 125.37813 35.846874Q125.97188 35.346874 125.97188 34.690624Q125.97188 34.096874 125.45625 33.753124Q125.09688 33.51875 123.65938 33.159374Q121.72188 32.659374 120.97188 32.315624Q120.2375 31.95625 119.84688 31.33125Q119.45625 30.690624 119.45625 29.925Q119.45625 29.2375 119.76875 28.64375Q120.09688 28.05 120.64375 27.659374Q121.05 27.3625 121.75313 27.159374Q122.47188 26.940624 123.28438 26.940624Q124.50313 26.940624 125.425 27.3Q126.34688 27.64375 126.78438 28.253124Q127.22188 28.846874 127.39375 29.846874L125.675 30.08125Q125.55 29.284374 124.9875 28.846874Q124.425 28.39375 123.40938 28.39375Q122.19063 28.39375 121.675 28.8Q121.15938 29.190624 121.15938 29.721874Q121.15938 30.065624 121.37813 30.346874Q121.58125 30.628124 122.05 30.815624Q122.31563 30.909374 123.59688 31.253124Q125.47188 31.753124 126.20625 32.08125Q126.94063 32.39375 127.3625 33.003124Q127.78438 33.596874 127.78438 34.503124Q127.78438 35.378124 127.26875 36.159374Q126.75313 36.940624 125.78438 37.3625Q124.81563 37.784374 123.59688 37.784374Q121.58125 37.784374 120.51875 36.940624Q119.45625 36.096874 119.15938 34.45625ZM136.97188 34.20625L138.78438 34.440624Q138.3625 36.01875 137.19063 36.909374Q136.03438 37.784374 134.22188 37.784374Q131.95625 37.784374 130.6125 36.39375Q129.28438 34.9875 129.28438 32.45625Q129.28438 29.83125 130.62813 28.39375Q131.97188 26.940624 134.12813 26.940624Q136.20625 26.940624 137.51875 28.3625Q138.84688 29.76875 138.84688 32.346874Q138.84688 32.503124 138.83125 32.815624L131.09688 32.815624Q131.19063 34.51875 132.06563 35.425Q132.94063 36.33125 134.2375 36.33125Q135.20625 36.33125 135.87813 35.83125Q136.56563 35.315624 136.97188 34.20625ZM131.19063 31.3625L136.9875 31.3625Q136.87813 30.065624 136.33125 29.409374Q135.4875 28.39375 134.14375 28.39375Q132.94063 28.39375 132.1125 29.20625Q131.28438 30.003124 131.19063 31.3625ZM147.64375 33.753124L149.3625 33.971874Q149.08125 35.76875 147.90938 36.784374Q146.75313 37.784374 145.05 37.784374Q142.925 37.784374 141.62813 36.39375Q140.33125 35.003124 140.33125 32.409374Q140.33125 30.721874 140.87813 29.471874Q141.44063 28.20625 142.58125 27.58125Q143.72188 26.940624 145.06563 26.940624Q146.75313 26.940624 147.81563 27.8Q148.89375 28.659374 149.20625 30.221874L147.4875 30.4875Q147.25313 29.440624 146.62813 28.925Q146.00313 28.39375 145.12813 28.39375Q143.8 28.39375 142.97188 29.346874Q142.14375 30.3 142.14375 32.346874Q142.14375 34.440624 142.94063 35.39375Q143.7375 36.33125 145.03438 36.33125Q146.06563 36.33125 146.75313 35.70625Q147.45625 35.065624 147.64375 33.753124ZM150.22188 32.3625Q150.22188 29.4875 151.81563 28.096874Q153.15938 26.940624 155.08125 26.940624Q157.22188 26.940624 158.56563 28.346874Q159.925 29.753124 159.925 32.221874Q159.925 34.221874 159.33125 35.378124Q158.7375 36.51875 157.58125 37.159374Q156.44063 37.784374 155.08125 37.784374Q152.89375 37.784374 151.55 36.39375Q150.22188 34.9875 150.22188 32.3625ZM152.01875 32.3625Q152.01875 34.3625 152.87813 35.346874Q153.75313 36.33125 155.08125 36.33125Q156.39375 36.33125 157.25313 35.346874Q158.12813 34.346874 158.12813 32.3Q158.12813 30.378124 157.25313 29.39375Q156.37813 28.39375 155.08125 28.39375Q153.75313 28.39375 152.87813 29.39375Q152.01875 30.378124 152.01875 32.3625ZM161.8625 37.55L161.8625 27.175L163.45625 27.175L163.45625 28.659374Q164.59688 26.940624 166.75313 26.940624Q167.69063 26.940624 168.47188 27.284374Q169.26875 27.6125 169.65938 28.159374Q170.05 28.70625 170.20625 29.45625Q170.3 29.95625 170.3 31.175L170.3 37.55L168.53438 37.55L168.53438 31.2375Q168.53438 30.159374 168.33125 29.628124Q168.12813 29.096874 167.59688 28.784374Q167.08125 28.471874 166.37813 28.471874Q165.25313 28.471874 164.44063 29.190624Q163.62813 29.89375 163.62813 31.878124L163.62813 37.55L161.8625 37.55ZM179.59688 37.55L179.59688 36.2375Q178.6125 37.784374 176.69063 37.784374Q175.45625 37.784374 174.40938 37.096874Q173.37813 36.409374 172.8 35.190624Q172.2375 33.971874 172.2375 32.378124Q172.2375 30.815624 172.75313 29.55Q173.26875 28.284374 174.3 27.6125Q175.34688 26.940624 176.6125 26.940624Q177.55 26.940624 178.28438 27.346874Q179.01875 27.7375 179.4875 28.3625L179.4875 23.2375L181.22188 23.2375L181.22188 37.55L179.59688 37.55ZM174.03438 32.378124Q174.03438 34.3625 174.87813 35.346874Q175.72188 36.33125 176.8625 36.33125Q178.01875 36.33125 178.81563 35.39375Q179.62813 34.45625 179.62813 32.51875Q179.62813 30.39375 178.8 29.39375Q177.9875 28.39375 176.78438 28.39375Q175.6125 28.39375 174.81563 29.3625Q174.03438 30.315624 174.03438 32.378124ZM183.15938 34.45625L184.90938 34.175Q185.05 35.221874 185.72188 35.784374Q186.39375 36.33125 187.59688 36.33125Q188.8 36.33125 189.37813 35.846874Q189.97188 35.346874 189.97188 34.690624Q189.97188 34.096874 189.45625 33.753124Q189.09688 33.51875 187.65938 33.159374Q185.72188 32.659374 184.97188 32.315624Q184.2375 31.95625 183.84688 31.33125Q183.45625 30.690624 183.45625 29.925Q183.45625 29.2375 183.76875 28.64375Q184.09688 28.05 184.64375 27.659374Q185.05 27.3625 185.75313 27.159374Q186.47188 26.940624 187.28438 26.940624Q188.50313 26.940624 189.425 27.3Q190.34688 27.64375 190.78438 28.253124Q191.22188 28.846874 191.39375 29.846874L189.675 30.08125Q189.55 29.284374 188.9875 28.846874Q188.425 28.39375 187.40938 28.39375Q186.19063 28.39375 185.675 28.8Q185.15938 29.190624 185.15938 29.721874Q185.15938 30.065624 185.37813 30.346874Q185.58125 30.628124 186.05 30.815624Q186.31563 30.909374 187.59688 31.253124Q189.47188 31.753124 190.20625 32.08125Q190.94063 32.39375 191.3625 33.003124Q191.78438 33.596874 191.78438 34.503124Q191.78438 35.378124 191.26875 36.159374Q190.75313 36.940624 189.78438 37.3625Q188.81563 37.784374 187.59688 37.784374Q185.58125 37.784374 184.51875 36.940624Q183.45625 36.096874 183.15938 34.45625ZM194.33125 37.55L194.33125 35.55L196.33125 35.55L196.33125 37.55Q196.33125 38.659374 195.94063 39.33125Q195.55 40.01875 194.70625 40.378124L194.20625 39.628124Q194.76875 39.39375 195.03438 38.909374Q195.3 38.440624 195.33125 37.55L194.33125 37.55ZM205.15938 34.45625L206.90938 34.175Q207.05 35.221874 207.72188 35.784374Q208.39375 36.33125 209.59688 36.33125Q210.8 36.33125 211.37813 35.846874Q211.97188 35.346874 211.97188 34.690624Q211.97188 34.096874 211.45625 33.753124Q211.09688 33.51875 209.65938 33.159374Q207.72188 32.659374 206.97188 32.315624Q206.2375 31.95625 205.84688 31.33125Q205.45625 30.690624 205.45625 29.925Q205.45625 29.2375 205.76875 28.64375Q206.09688 28.05 206.64375 27.659374Q207.05 27.3625 207.75313 27.159374Q208.47188 26.940624 209.28438 26.940624Q210.50313 26.940624 211.425 27.3Q212.34688 27.64375 212.78438 28.253124Q213.22188 28.846874 213.39375 29.846874L211.675 30.08125Q211.55 29.284374 210.9875 28.846874Q210.425 28.39375 209.40938 28.39375Q208.19063 28.39375 207.675 28.8Q207.15938 29.190624 207.15938 29.721874Q207.15938 30.065624 207.37813 30.346874Q207.58125 30.628124 208.05 30.815624Q208.31563 30.909374 209.59688 31.253124Q211.47188 31.753124 212.20625 32.08125Q212.94063 32.39375 213.3625 33.003124Q213.78438 33.596874 213.78438 34.503124Q213.78438 35.378124 213.26875 36.159374Q212.75313 36.940624 211.78438 37.3625Q210.81563 37.784374 209.59688 37.784374Q207.58125 37.784374 206.51875 36.940624Q205.45625 36.096874 205.15938 34.45625ZM215.8625 37.55L215.8625 27.175L217.44063 27.175L217.44063 28.628124Q217.925 27.878124 218.7375 27.409374Q219.55 26.940624 220.58125 26.940624Q221.7375 26.940624 222.47188 27.425Q223.20625 27.89375 223.51875 28.753124Q224.75313 26.940624 226.72188 26.940624Q228.26875 26.940624 229.09688 27.8Q229.925 28.659374 229.925 30.425L229.925 37.55L228.175 37.55L228.175 31.01875Q228.175 29.95625 228.00313 29.503124Q227.83125 29.034374 227.37813 28.753124Q226.94063 28.471874 226.33125 28.471874Q225.2375 28.471874 224.50313 29.20625Q223.78438 29.925 223.78438 31.51875L223.78438 37.55L222.03438 37.55L222.03438 30.815624Q222.03438 29.64375 221.59688 29.065624Q221.175 28.471874 220.19063 28.471874Q219.45625 28.471874 218.81563 28.8625Q218.19063 29.253124 217.90938 30.003124Q217.62813 30.753124 217.62813 32.175L217.62813 37.55L215.8625 37.55ZM239.64375 36.26875Q238.65938 37.096874 237.75313 37.440624Q236.84688 37.784374 235.81563 37.784374Q234.1125 37.784374 233.19063 36.95625Q232.26875 36.1125 232.26875 34.815624Q232.26875 34.05 232.6125 33.425Q232.97188 32.8 233.53438 32.425Q234.09688 32.034374 234.8 31.83125Q235.31563 31.70625 236.3625 31.565624Q238.4875 31.315624 239.4875 30.971874Q239.50313 30.6125 239.50313 30.503124Q239.50313 29.440624 239.00313 28.9875Q238.33125 28.39375 237.00313 28.39375Q235.75313 28.39375 235.15938 28.83125Q234.58125 29.26875 234.3 30.378124L232.58125 30.14375Q232.81563 29.034374 233.34688 28.3625Q233.87813 27.675 234.89375 27.315624Q235.90938 26.940624 237.25313 26.940624Q238.58125 26.940624 239.40938 27.253124Q240.2375 27.565624 240.62813 28.05Q241.01875 28.51875 241.175 29.2375Q241.26875 29.690624 241.26875 30.8625L241.26875 33.20625Q241.26875 35.659374 241.37813 36.315624Q241.4875 36.95625 241.83125 37.55L239.9875 37.55Q239.72188 37.003124 239.64375 36.26875ZM239.4875 32.346874Q238.53438 32.7375 236.6125 33.003124Q235.53438 33.159374 235.08125 33.3625Q234.64375 33.55 234.39375 33.925Q234.14375 34.3 234.14375 34.76875Q234.14375 35.471874 234.675 35.940624Q235.20625 36.409374 236.2375 36.409374Q237.25313 36.409374 238.03438 35.971874Q238.83125 35.51875 239.20625 34.753124Q239.4875 34.14375 239.4875 32.9875L239.4875 32.346874ZM243.83125 37.55L243.83125 23.2375L245.58125 23.2375L245.58125 37.55L243.83125 37.55ZM247.83125 37.55L247.83125 23.2375L249.58125 23.2375L249.58125 37.55L247.83125 37.55ZM258.97186 34.20625L260.78436 34.440624Q260.3625 36.01875 259.1906 36.909374Q258.03436 37.784374 256.22186 37.784374Q253.95625 37.784374 252.6125 36.39375Q251.28438 34.9875 251.28438 32.45625Q251.28438 29.83125 252.62813 28.39375Q253.97188 26.940624 256.1281 26.940624Q258.20624 26.940624 259.51874 28.3625Q260.84686 29.76875 260.84686 32.346874Q260.84686 32.503124 260.83124 32.815624L253.09688 32.815624Q253.19063 34.51875 254.06563 35.425Q254.94063 36.33125 256.2375 36.33125Q257.20624 36.33125 257.8781 35.83125Q258.5656 35.315624 258.97186 34.20625ZM253.19063 31.3625L258.9875 31.3625Q258.8781 30.065624 258.33124 29.409374Q257.4875 28.39375 256.14374 28.39375Q254.94063 28.39375 254.1125 29.20625Q253.28438 30.003124 253.19063 31.3625ZM262.84686 37.55L262.84686 27.175L264.425 27.175L264.425 28.753124Q265.03436 27.64375 265.55 27.3Q266.0656 26.940624 266.675 26.940624Q267.5656 26.940624 268.4875 27.503124L267.8781 29.14375Q267.2375 28.753124 266.59686 28.753124Q266.01874 28.753124 265.55 29.1125Q265.09686 29.45625 264.89374 30.065624Q264.6125 31.003124 264.6125 32.1125L264.6125 37.55L262.84686 37.55ZM275.8781 25.253124L275.8781 23.2375L277.64374 23.2375L277.64374 25.253124L275.8781 25.253124ZM275.8781 37.55L275.8781 27.175L277.64374 27.175L277.64374 37.55L275.8781 37.55ZM279.15936 34.45625L280.90936 34.175Q281.05 35.221874 281.72186 35.784374Q282.39374 36.33125 283.59686 36.33125Q284.8 36.33125 285.3781 35.846874Q285.97186 35.346874 285.97186 34.690624Q285.97186 34.096874 285.45624 33.753124Q285.09686 33.51875 283.65936 33.159374Q281.72186 32.659374 280.97186 32.315624Q280.2375 31.95625 279.84686 31.33125Q279.45624 30.690624 279.45624 29.925Q279.45624 29.2375 279.76874 28.64375Q280.09686 28.05 280.64374 27.659374Q281.05 27.3625 281.7531 27.159374Q282.47186 26.940624 283.28436 26.940624Q284.5031 26.940624 285.425 27.3Q286.34686 27.64375 286.78436 28.253124Q287.22186 28.846874 287.39374 29.846874L285.675 30.08125Q285.55 29.284374 284.9875 28.846874Q284.425 28.39375 283.40936 28.39375Q282.1906 28.39375 281.675 28.8Q281.15936 29.190624 281.15936 29.721874Q281.15936 30.065624 281.3781 30.346874Q281.58124 30.628124 282.05 30.815624Q282.3156 30.909374 283.59686 31.253124Q285.47186 31.753124 286.20624 32.08125Q286.9406 32.39375 287.3625 33.003124Q287.78436 33.596874 287.78436 34.503124Q287.78436 35.378124 287.26874 36.159374Q286.7531 36.940624 285.78436 37.3625Q284.8156 37.784374 283.59686 37.784374Q281.58124 37.784374 280.51874 36.940624Q279.45624 36.096874 279.15936 34.45625ZM297.4875 37.55L295.8625 37.55L295.8625 23.2375L297.6125 23.2375L297.6125 28.346874Q298.7375 26.940624 300.45624 26.940624Q301.40936 26.940624 302.26874 27.33125Q303.1281 27.721874 303.675 28.425Q304.22186 29.1125 304.53436 30.096874Q304.84686 31.08125 304.84686 32.20625Q304.84686 34.878124 303.53436 36.33125Q302.22186 37.784374 300.3781 37.784374Q298.53436 37.784374 297.4875 36.253124L297.4875 37.55ZM297.47186 32.284374Q297.47186 34.14375 297.97186 34.9875Q298.8156 36.33125 300.22186 36.33125Q301.3781 36.33125 302.20624 35.33125Q303.05 34.33125 303.05 32.346874Q303.05 30.315624 302.2375 29.3625Q301.4406 28.39375 300.3 28.39375Q299.14374 28.39375 298.3 29.39375Q297.47186 30.39375 297.47186 32.284374ZM313.97186 34.20625L315.78436 34.440624Q315.3625 36.01875 314.1906 36.909374Q313.03436 37.784374 311.22186 37.784374Q308.95624 37.784374 307.6125 36.39375Q306.28436 34.9875 306.28436 32.45625Q306.28436 29.83125 307.6281 28.39375Q308.97186 26.940624 311.1281 26.940624Q313.20624 26.940624 314.51874 28.3625Q315.84686 29.76875 315.84686 32.346874Q315.84686 32.503124 315.83124 32.815624L308.09686 32.815624Q308.1906 34.51875 309.0656 35.425Q309.9406 36.33125 311.2375 36.33125Q312.20624 36.33125 312.8781 35.83125Q313.5656 35.315624 313.97186 34.20625ZM308.1906 31.3625L313.9875 31.3625Q313.8781 30.065624 313.33124 29.409374Q312.4875 28.39375 311.14374 28.39375Q309.9406 28.39375 309.1125 29.20625Q308.28436 30.003124 308.1906 31.3625ZM321.70624 35.971874L321.95624 37.534374Q321.22186 37.690624 320.6281 37.690624Q319.675 37.690624 319.14374 37.39375Q318.6281 37.08125 318.40936 36.596874Q318.1906 36.096874 318.1906 34.51875L318.1906 28.55L316.90936 28.55L316.90936 27.175L318.1906 27.175L318.1906 24.6125L319.9406 23.55L319.9406 27.175L321.70624 27.175L321.70624 28.55L319.9406 28.55L319.9406 34.6125Q319.9406 35.3625 320.03436 35.58125Q320.1281 35.784374 320.33124 35.925Q320.55 36.05 320.9406 36.05Q321.22186 36.05 321.70624 35.971874ZM327.70624 35.971874L327.95624 37.534374Q327.22186 37.690624 326.6281 37.690624Q325.675 37.690624 325.14374 37.39375Q324.6281 37.08125 324.40936 36.596874Q324.1906 36.096874 324.1906 34.51875L324.1906 28.55L322.90936 28.55L322.90936 27.175L324.1906 27.175L324.1906 24.6125L325.9406 23.55L325.9406 27.175L327.70624 27.175L327.70624 28.55L325.9406 28.55L325.9406 34.6125Q325.9406 35.3625 326.03436 35.58125Q326.1281 35.784374 326.33124 35.925Q326.55 36.05 326.9406 36.05Q327.22186 36.05 327.70624 35.971874ZM336.97186 34.20625L338.78436 34.440624Q338.3625 36.01875 337.1906 36.909374Q336.03436 37.784374 334.22186 37.784374Q331.95624 37.784374 330.6125 36.39375Q329.28436 34.9875 329.28436 32.45625Q329.28436 29.83125 330.6281 28.39375Q331.97186 26.940624 334.1281 26.940624Q336.20624 26.940624 337.51874 28.3625Q338.84686 29.76875 338.84686 32.346874Q338.84686 32.503124 338.83124 32.815624L331.09686 32.815624Q331.1906 34.51875 332.0656 35.425Q332.9406 36.33125 334.2375 36.33125Q335.20624 36.33125 335.8781 35.83125Q336.5656 35.315624 336.97186 34.20625ZM331.1906 31.3625L336.9875 31.3625Q336.8781 30.065624 336.33124 29.409374Q335.4875 28.39375 334.14374 28.39375Q332.9406 28.39375 332.1125 29.20625Q331.28436 30.003124 331.1906 31.3625ZM340.84686 37.55L340.84686 27.175L342.425 27.175L342.425 28.753124Q343.03436 27.64375 343.55 27.3Q344.0656 26.940624 344.675 26.940624Q345.5656 26.940624 346.4875 27.503124L345.8781 29.14375Q345.2375 28.753124 344.59686 28.753124Q344.01874 28.753124 343.55 29.1125Q343.09686 29.45625 342.89374 30.065624Q342.6125 31.003124 342.6125 32.1125L342.6125 37.55L340.84686 37.55ZM349.01874 41.753124L347.76874 41.753124Q350.675 37.065624 350.675 32.378124Q350.675 30.534374 350.26874 28.7375Q349.925 27.26875 349.33124 25.925Q348.95624 25.034374 347.76874 22.9875L349.01874 22.9875Q350.8625 25.440624 351.7375 27.909374Q352.4875 30.034374 352.4875 32.3625Q352.4875 35.003124 351.47186 37.471874Q350.47186 39.925 349.01874 41.753124Z" fill-rule="nonzero"/></svg>