<?xml version="1.0" encoding="UTF-8" standalone="no"?>
<!DOCTYPE svg PUBLIC "-//W3C//DTD SVG 1.1//EN"
 "http://www.w3.org/Graphics/SVG/1.1/DTD/svg11.dtd">
<!-- Generated by graphviz version 15.0.0 (0)
 -->
<!-- Title: g Pages: 1 -->
<svg style="background-color: white;" width="362pt" height="260pt"
 viewBox="0.00 0.00 362.00 260.00" xmlns="http://www.w3.org/2000/svg" xmlns:xlink="http://www.w3.org/1999/xlink">
<g id="graph0" class="graph" transform="scale(1 1) rotate(0) translate(4 256)">
<title>g</title>
<g id="node1" class="node">
<title></title>
<g id="a_node1"><a xlink:href=".">
<ellipse fill="white" stroke="#666666" cx="5.4" cy="-126" rx="5.4" ry="5.4"/>
</a>
</g>
</g>
<!-- Alice.html -->
<g id="node2" class="node">
<title>Alice.html</title>
<g id="a_node2"><a xlink:href="Alice.html" xlink:title="&lt;p&gt;Hello, &lt;strong&gt;Alice&lt;/strong&gt;.&lt;/p&gt;\l">
<polygon fill="white" stroke="#b3b3b3" points="353.26,-252 165.48,-252 165.48,-216 353.26,-216 353.26,-252"/>
<text xml:space="preserve" text-anchor="start" x="173.48" y="-231" font-family="Helvetica,sans-Serif" font-size="10.00">&lt;p&gt;Hello, &lt;strong&gt;Alice&lt;/strong&gt;.&lt;/p&gt;</text>
</a>
</g>
</g>
<!-- &#45;&gt;Alice.html -->
<g id="edge1" class="edge">
<title>&#45;&gt;Alice.html</title>
<path fill="none" stroke="#999999" d="M10.58,-128.32C20.08,-133.54 44.07,-146.52 64.8,-156 109.87,-176.6 162.03,-197.46 200.84,-212.41"/>
<polygon fill="#999999" stroke="#999999" points="207.78,-215.07 199.57,-215.54 205.42,-214.17 200.78,-212.38 200.78,-212.38 200.78,-212.38 205.42,-214.17 201.99,-209.23 207.78,-215.07"/>
<g id="a_edge1&#45;label"><a xlink:href="Alice.html" xlink:title="Alice.html">
<text xml:space="preserve" text-anchor="middle" x="87.58" y="-177.41" font-family="Helvetica,sans-Serif" font-size="10.00">Alice.html</text>
</a>
</g>
</g>
<!-- Bob.html -->
<g id="node3" class="node">
<title>Bob.html</title>
<g id="a_node3"><a xlink:href="Bob.html" xlink:title="&lt;p&gt;Hello, &lt;strong&gt;Bob&lt;/strong&gt;.&lt;/p&gt;\l">
<polygon fill="white" stroke="#b3b3b3" points="351.32,-144 167.42,-144 167.42,-108 351.32,-108 351.32,-144"/>
<text xml:space="preserve" text-anchor="start" x="175.42" y="-123" font-family="Helvetica,sans-Serif" font-size="10.00">&lt;p&gt;Hello, &lt;strong&gt;Bob&lt;/strong&gt;.&lt;/p&gt;</text>
</a>
</g>
</g>
<!-- &#45;&gt;Bob.html -->
<g id="edge2" class="edge">
<title>&#45;&gt;Bob.html</title>
<path fill="none" stroke="#999999" d="M11.21,-126C29.73,-126 98.41,-126 158.69,-126"/>
<polygon fill="#999999" stroke="#999999" points="165.91,-126 158.41,-129.38 163.38,-126 158.41,-126 158.41,-126 158.41,-126 163.38,-126 158.41,-122.63 165.91,-126"/>
<g id="a_edge2&#45;label"><a xlink:href="Bob.html" xlink:title="Bob.html">
<text xml:space="preserve" text-anchor="middle" x="87.58" y="-129" font-family="Helvetica,sans-Serif" font-size="10.00">Bob.html</text>
</a>
</g>
</g>
<!-- Carol.html -->
<g id="node4" class="node">
<title>Carol.html</title>
<g id="a_node4"><a xlink:href="Carol.html" xlink:title="&lt;p&gt;Hello, &lt;strong&gt;Carol&lt;/strong&gt;.&lt;/p&gt;\l">
<polygon fill="white" stroke="#b3b3b3" points="354.37,-36 164.37,-36 164.37,0 354.37,0 354.37,-36"/>
<text xml:space="preserve" text-anchor="start" x="172.37" y="-15" font-family="Helvetica,sans-Serif" font-size="10.00">&lt;p&gt;Hello, &lt;strong&gt;Carol&lt;/strong&gt;.&lt;/p&gt;</text>
</a>
</g>
</g>
<!-- &#45;&gt;Carol.html -->
<g id="edge3" class="edge">
<title>&#45;&gt;Carol.html</title>
<path fill="none" stroke="#999999" d="M10.58,-123.68C20.08,-118.46 44.07,-105.48 64.8,-96 109.87,-75.4 162.03,-54.54 200.84,-39.59"/>
<polygon fill="#999999" stroke="#999999" points="207.78,-36.93 201.99,-42.77 205.42,-37.83 200.78,-39.62 200.78,-39.62 200.78,-39.62 205.42,-37.83 199.57,-36.46 207.78,-36.93"/>
<g id="a_edge3&#45;label"><a xlink:href="Carol.html" xlink:title="Carol.html">
<text xml:space="preserve" text-anchor="middle" x="87.58" y="-99" font-family="Helvetica,sans-Serif" font-size="10.00">Carol.html</text>
</a>
</g>
</g>
</g>
</svg>
