<?xml version="1.0" encoding="UTF-8" standalone="no"?>
<!DOCTYPE svg PUBLIC "-//W3C//DTD SVG 1.1//EN"
 "http://www.w3.org/Graphics/SVG/1.1/DTD/svg11.dtd">
<!-- Generated by graphviz version 15.0.0 (0)
 -->
<!-- Title: g Pages: 1 -->
<svg style="background-color: white;" width="254pt" height="260pt"
 viewBox="0.00 0.00 254.00 260.00" xmlns="http://www.w3.org/2000/svg" xmlns:xlink="http://www.w3.org/1999/xlink">
<g id="graph0" class="graph" transform="scale(1 1) rotate(0) translate(4 256)">
<title>g</title>
<g id="node1" class="node">
<title></title>
<g id="a_node1"><a xlink:href=".">
<ellipse fill="white" stroke="#666666" cx="5.4" cy="-126" rx="5.4" ry="5.4"/>
</a>
</g>
</g>
<!-- Alice.md -->
<g id="node2" class="node">
<title>Alice.md</title>
<g id="a_node2"><a xlink:href="Alice.md" xlink:title="Hello, **Alice**.\l">
<polygon fill="white" stroke="#b3b3b3" points="244.84,-252 160.48,-252 160.48,-216 244.84,-216 244.84,-252"/>
<text xml:space="preserve" text-anchor="start" x="168.48" y="-231" font-family="Helvetica,sans-Serif" font-size="10.00">Hello, **Alice**.</text>
</a>
</g>
</g>
<!-- &#45;&gt;Alice.md -->
<g id="edge1" class="edge">
<title>&#45;&gt;Alice.md</title>
<path fill="none" stroke="#999999" d="M10.48,-128.26C29.49,-138.77 110.62,-183.65 160.89,-211.45"/>
<polygon fill="#999999" stroke="#999999" points="167.31,-215 159.11,-214.32 165.09,-213.77 160.74,-211.37 160.74,-211.37 160.74,-211.37 165.09,-213.77 162.38,-208.42 167.31,-215"/>
<g id="a_edge1&#45;label"><a xlink:href="Alice.md" xlink:title="Alice.md">
<text xml:space="preserve" text-anchor="middle" x="85.08" y="-183" font-family="Helvetica,sans-Serif" font-size="10.00">Alice.md</text>
</a>
</g>
</g>
<!-- Bob.md -->
<g id="node3" class="node">
<title>Bob.md</title>
<g id="a_node3"><a xlink:href="Bob.md" xlink:title="Hello, **Bob**.\l">
<polygon fill="white" stroke="#b3b3b3" points="242.9,-144 162.42,-144 162.42,-108 242.9,-108 242.9,-144"/>
<text xml:space="preserve" text-anchor="start" x="170.42" y="-123" font-family="Helvetica,sans-Serif" font-size="10.00">Hello, **Bob**.</text>
</a>
</g>
</g>
<!-- &#45;&gt;Bob.md -->
<g id="edge2" class="edge">
<title>&#45;&gt;Bob.md</title>
<path fill="none" stroke="#999999" d="M11.23,-126C30.56,-126 103.77,-126 153.58,-126"/>
<polygon fill="#999999" stroke="#999999" points="161.06,-126 153.56,-129.38 158.53,-126 153.56,-126 153.56,-126 153.56,-126 158.53,-126 153.56,-122.63 161.06,-126"/>
<g id="a_edge2&#45;label"><a xlink:href="Bob.md" xlink:title="Bob.md">
<text xml:space="preserve" text-anchor="middle" x="85.08" y="-129" font-family="Helvetica,sans-Serif" font-size="10.00">Bob.md</text>
</a>
</g>
</g>
<!-- Carol.md -->
<g id="node4" class="node">
<title>Carol.md</title>
<g id="a_node4"><a xlink:href="Carol.md" xlink:title="Hello, **Carol**.\l">
<polygon fill="white" stroke="#b3b3b3" points="245.95,-36 159.37,-36 159.37,0 245.95,0 245.95,-36"/>
<text xml:space="preserve" text-anchor="start" x="167.37" y="-15" font-family="Helvetica,sans-Serif" font-size="10.00">Hello, **Carol**.</text>
</a>
</g>
</g>
<!-- &#45;&gt;Carol.md -->
<g id="edge3" class="edge">
<title>&#45;&gt;Carol.md</title>
<path fill="none" stroke="#999999" d="M10.48,-123.74C29.49,-113.23 110.62,-68.35 160.89,-40.55"/>
<polygon fill="#999999" stroke="#999999" points="167.31,-37 162.38,-43.58 165.09,-38.23 160.74,-40.63 160.74,-40.63 160.74,-40.63 165.09,-38.23 159.11,-37.68 167.31,-37"/>
<g id="a_edge3&#45;label"><a xlink:href="Carol.md" xlink:title="Carol.md">
<text xml:space="preserve" text-anchor="middle" x="85.08" y="-94.07" font-family="Helvetica,sans-Serif" font-size="10.00">Carol.md</text>
</a>
</g>
</g>
</g>
</svg>
