<svg version="1.1" viewBox="0.0 0.0 600.0 371.0" fill="none" stroke="none" stroke-linecap="square" stroke-miterlimit="10" width="600" height="371" xmlns:xlink="http://www.w3.org/1999/xlink" xmlns="http://www.w3.org/2000/svg"><path fill="#ffffff" d="M0 0L600.0 0L600.0 371.0L0 371.0L0 0Z" fill-rule="nonzero"/><path stroke="#333333" stroke-width="1.0" stroke-linecap="butt" d="M45.5 332.5L581.5 332.5" fill-rule="nonzero"/><path stroke="#cccccc" stroke-width="1.0" stroke-linecap="butt" d="M45.5 264.5L581.5 264.5" fill-rule="nonzero"/><path stroke="#cccccc" stroke-width="1.0" stroke-linecap="butt" d="M45.5 197.5L581.5 197.5" fill-rule="nonzero"/><path stroke="#cccccc" stroke-width="1.0" stroke-linecap="butt" d="M45.5 129.5L581.5 129.5" fill-rule="nonzero"/><path stroke="#cccccc" stroke-width="1.0" stroke-linecap="butt" d="M45.5 61.5L581.5 61.5" fill-rule="nonzero"/><clipPath id="id_0"><path d="M45.55 61.916668L581.45 61.916668L581.45 332.45L45.55 332.45L45.55 61.916668Z" clip-rule="nonzero"/></clipPath><path stroke="#000000" stroke-width="2.0" stroke-linecap="butt" stroke-opacity="0.0" clip-path="url(#id_0)" d="M131.0 332.0L76.0 332.0L76.0 223.0C76.0 221.89543 76.89543 221.0 78.0 221.0L129.0 221.0C130.10457 221.0 131.0 221.89543 131.0 223.0Z" fill-rule="nonzero"/><path fill="#4285f4" clip-path="url(#id_0)" d="M131.0 332.0L76.0 332.0L76.0 223.0C76.0 221.89543 76.89543 221.0 78.0 221.0L129.0 221.0C130.10457 221.0 131.0 221.89543 131.0 223.0Z" fill-rule="nonzero"/><path stroke="#000000" stroke-width="2.0" stroke-linecap="butt" stroke-opacity="0.0" clip-path="url(#id_0)" d="M215.0 332.0L160.0 332.0L160.0 75.0C160.0 73.89543 160.89543 73.0 162.0 73.0L213.0 73.0C214.10457 73.0 215.0 73.89543 215.0 75.0Z" fill-rule="nonzero"/><path fill="#4285f4" clip-path="url(#id_0)" d="M215.0 332.0L160.0 332.0L160.0 75.0C160.0 73.89543 160.89543 73.0 162.0 73.0L213.0 73.0C214.10457 73.0 215.0 73.89543 215.0 75.0Z" fill-rule="nonzero"/><path stroke="#000000" stroke-width="2.0" stroke-linecap="butt" stroke-opacity="0.0" clip-path="url(#id_0)" d="M299.0 332.0L244.0 332.0L244.0 227.0C244.0 225.89543 244.89543 225.0 246.0 225.0L297.0 225.0C298.10458 225.0 299.0 225.89543 299.0 227.0Z" fill-rule="nonzero"/><path fill="#4285f4" clip-path="url(#id_0)" d="M299.0 332.0L244.0 332.0L244.0 227.0C244.0 225.89543 244.89543 225.0 246.0 225.0L297.0 225.0C298.10458 225.0 299.0 225.89543 299.0 227.0Z" fill-rule="nonzero"/><path stroke="#000000" stroke-width="2.0" stroke-linecap="butt" stroke-opacity="0.0" clip-path="url(#id_0)" d="M384.0 332.0L329.0 332.0L329.0 282.0C329.0 280.89542 329.89542 280.0 331.0 280.0L382.0 280.0C383.10458 280.0 384.0 280.89542 384.0 282.0Z" fill-rule="nonzero"/><path fill="#4285f4" clip-path="url(#id_0)" d="M384.0 332.0L329.0 332.0L329.0 282.0C329.0 280.89542 329.89542 280.0 331.0 280.0L382.0 280.0C383.10458 280.0 384.0 280.89542 384.0 282.0Z" fill-rule="nonzero"/><path stroke="#000000" stroke-width="2.0" stroke-linecap="butt" stroke-opacity="0.0" clip-path="url(#id_0)" d="M468.0 332.0L413.0 332.0L413.0 274.0C413.0 272.89542 413.89542 272.0 415.0 272.0L466.0 272.0C467.10458 272.0 468.0 272.89542 468.0 274.0Z" fill-rule="nonzero"/><path fill="#4285f4" clip-path="url(#id_0)" d="M468.0 332.0L413.0 332.0L413.0 274.0C413.0 272.89542 413.89542 272.0 415.0 272.0L466.0 272.0C467.10458 272.0 468.0 272.89542 468.0 274.0Z" fill-rule="nonzero"/><path stroke="#000000" stroke-width="2.0" stroke-linecap="butt" stroke-opacity="0.0" clip-path="url(#id_0)" d="M552.0 332.0L497.0 332.0L497.0 245.0C497.0 243.89543 497.89542 243.0 499.0 243.0L550.0 243.0C551.10455 243.0 552.0 243.89543 552.0 245.0Z" fill-rule="nonzero"/><path fill="#4285f4" clip-path="url(#id_0)" d="M552.0 332.0L497.0 332.0L497.0 245.0C497.0 243.89543 497.89542 243.0 499.0 243.0L550.0 243.0C551.10455 243.0 552.0 243.89543 552.0 245.0Z" fill-rule="nonzero"/><path fill="#000000" d="M33.05 332.21564Q33.05 330.6844 33.3625 329.7625Q33.675 328.825 34.284374 328.325Q34.909374 327.825 35.846874 327.825Q36.534374 327.825 37.05 328.10626Q37.58125 328.3875 37.925 328.91876Q38.26875 329.4344 38.45625 330.1844Q38.64375 330.9344 38.64375 332.21564Q38.64375 333.73126 38.33125 334.65314Q38.034374 335.575 37.409374 336.09064Q36.8 336.59064 35.846874 336.59064Q34.6125 336.59064 33.89375 335.7Q33.05 334.6375 33.05 332.21564ZM34.128124 332.21564Q34.128124 334.325 34.628124 335.02814Q35.128124 335.73126 35.846874 335.73126Q36.58125 335.73126 37.065624 335.02814Q37.565624 334.325 37.565624 332.21564Q37.565624 330.09064 37.065624 329.40314Q36.58125 328.7 35.83125 328.7Q35.1125 328.7 34.675 329.3094Q34.128124 330.09064 34.128124 332.21564Z" fill-rule="nonzero"/><path fill="#000000" d="M30.01875 268.81668L28.971874 268.81668L28.971874 262.09793Q28.58125 262.4573 27.95625 262.8323Q27.346874 263.19168 26.8625 263.36356L26.8625 262.34793Q27.7375 261.92606 28.39375 261.34793Q29.065624 260.75418 29.346874 260.19168L30.01875 260.19168L30.01875 268.81668ZM33.05 264.5823Q33.05 263.05106 33.3625 262.12918Q33.675 261.19168 34.284374 260.69168Q34.909374 260.19168 35.846874 260.19168Q36.534374 260.19168 37.05 260.47293Q37.58125 260.75418 37.925 261.28543Q38.26875 261.80106 38.45625 262.55106Q38.64375 263.30106 38.64375 264.5823Q38.64375 266.09793 38.33125 267.0198Q38.034374 267.94168 37.409374 268.4573Q36.8 268.9573 35.846874 268.9573Q34.6125 268.9573 33.89375 268.06668Q33.05 267.00418 33.05 264.5823ZM34.128124 264.5823Q34.128124 266.69168 34.628124 267.3948Q35.128124 268.09793 35.846874 268.09793Q36.58125 268.09793 37.065624 267.3948Q37.565624 266.69168 37.565624 264.5823Q37.565624 262.4573 37.065624 261.7698Q36.58125 261.06668 35.83125 261.06668Q35.1125 261.06668 34.675 261.67606Q34.128124 262.4573 34.128124 264.5823Z" fill-rule="nonzero"/><path fill="#000000" d="M31.596874 200.16771L31.596874 201.18333L25.909374 201.18333Q25.909374 200.80833 26.034374 200.44896Q26.253124 199.87083 26.721874 199.30833Q27.20625 198.74583 28.1125 198.01146Q29.51875 196.85521 30.003124 196.18333Q30.503124 195.51146 30.503124 194.91771Q30.503124 194.29271 30.05 193.87083Q29.596874 193.43333 28.878124 193.43333Q28.1125 193.43333 27.659374 193.88646Q27.20625 194.33958 27.190624 195.15208L26.1125 195.04271Q26.221874 193.82396 26.940624 193.19896Q27.675 192.55833 28.909374 192.55833Q30.14375 192.55833 30.8625 193.24583Q31.58125 193.93333 31.58125 194.94896Q31.58125 195.46458 31.3625 195.96458Q31.159374 196.44896 30.659374 197.01146Q30.175 197.55833 29.05 198.51146Q28.096874 199.30833 27.815624 199.60521Q27.55 199.88646 27.378124 200.16771L31.596874 200.16771ZM33.05 196.94896Q33.05 195.41771 33.3625 194.49583Q33.675 193.55833 34.284374 193.05833Q34.909374 192.55833 35.846874 192.55833Q36.534374 192.55833 37.05 192.83958Q37.58125 193.12083 37.925 193.65208Q38.26875 194.16771 38.45625 194.91771Q38.64375 195.66771 38.64375 196.94896Q38.64375 198.46458 38.33125 199.38646Q38.034374 200.30833 37.409374 200.82396Q36.8 201.32396 35.846874 201.32396Q34.6125 201.32396 33.89375 200.43333Q33.05 199.37083 33.05 196.94896ZM34.128124 196.94896Q34.128124 199.05833 34.628124 199.76146Q35.128124 200.46458 35.846874 200.46458Q36.58125 200.46458 37.065624 199.76146Q37.565624 199.05833 37.565624 196.94896Q37.565624 194.82396 37.065624 194.13646Q36.58125 193.43333 35.83125 193.43333Q35.1125 193.43333 34.675 194.04271Q34.128124 194.82396 34.128124 196.94896Z" fill-rule="nonzero"/><path fill="#000000" d="M26.05 131.28438L27.1125 131.14375Q27.284374 132.03438 27.721874 132.44063Q28.159374 132.83125 28.784374 132.83125Q29.534374 132.83125 30.05 132.31563Q30.565624 131.8 30.565624 131.03438Q30.565624 130.31563 30.08125 129.84688Q29.6125 129.3625 28.878124 129.3625Q28.58125 129.3625 28.128124 129.4875L28.253124 128.55Q28.3625 128.56563 28.425 128.56563Q29.096874 128.56563 29.628124 128.22188Q30.175 127.8625 30.175 127.12813Q30.175 126.55 29.784374 126.175Q29.39375 125.78438 28.76875 125.78438Q28.159374 125.78438 27.7375 126.175Q27.33125 126.56563 27.221874 127.33125L26.159374 127.14375Q26.346874 126.09688 27.034374 125.51875Q27.721874 124.925 28.7375 124.925Q29.440624 124.925 30.034374 125.2375Q30.628124 125.53438 30.940624 126.05Q31.253124 126.56563 31.253124 127.15938Q31.253124 127.70625 30.95625 128.175Q30.659374 128.62813 30.08125 128.89375Q30.83125 129.06563 31.253124 129.62813Q31.675 130.175 31.675 131.01875Q31.675 132.14375 30.846874 132.925Q30.034374 133.70625 28.784374 133.70625Q27.659374 133.70625 26.909374 133.03438Q26.159374 132.34688 26.05 131.28438ZM33.05 129.31563Q33.05 127.78438 33.3625 126.8625Q33.675 125.925 34.284374 125.425Q34.909374 124.925 35.846874 124.925Q36.534374 124.925 37.05 125.20625Q37.58125 125.4875 37.925 126.01875Q38.26875 126.53438 38.45625 127.28438Q38.64375 128.03438 38.64375 129.31563Q38.64375 130.83125 38.33125 131.75313Q38.034374 132.675 37.409374 133.19063Q36.8 133.69063 35.846874 133.69063Q34.6125 133.69063 33.89375 132.8Q33.05 131.7375 33.05 129.31563ZM34.128124 129.31563Q34.128124 131.425 34.628124 132.12813Q35.128124 132.83125 35.846874 132.83125Q36.58125 132.83125 37.065624 132.12813Q37.565624 131.425 37.565624 129.31563Q37.565624 127.19063 37.065624 126.50313Q36.58125 125.8 35.83125 125.8Q35.1125 125.8 34.675 126.40938Q34.128124 127.19063 34.128124 129.31563Z" fill-rule="nonzero"/><path fill="#000000" d="M29.425 65.916664L29.425 63.854164L25.70625 63.854164L25.70625 62.885414L29.628124 57.322914L30.4875 57.322914L30.4875 62.885414L31.64375 62.885414L31.64375 63.854164L30.4875 63.854164L30.4875 65.916664L29.425 65.916664ZM29.425 62.885414L29.425 59.02604L26.7375 62.885414L29.425 62.885414ZM33.05 61.68229Q33.05 60.15104 33.3625 59.229164Q33.675 58.291664 34.284374 57.791664Q34.909374 57.291664 35.846874 57.291664Q36.534374 57.291664 37.05 57.572914Q37.58125 57.854164 37.925 58.385414Q38.26875 58.90104 38.45625 59.65104Q38.64375 60.40104 38.64375 61.68229Q38.64375 63.197914 38.33125 64.11979Q38.034374 65.041664 37.409374 65.55729Q36.8 66.05729 35.846874 66.05729Q34.6125 66.05729 33.89375 65.166664Q33.05 64.104164 33.05 61.68229ZM34.128124 61.68229Q34.128124 63.791664 34.628124 64.49479Q35.128124 65.197914 35.846874 65.197914Q36.58125 65.197914 37.065624 64.49479Q37.565624 63.791664 37.565624 61.68229Q37.565624 59.55729 37.065624 58.86979Q36.58125 58.166664 35.83125 58.166664Q35.1125 58.166664 34.675 58.77604Q34.128124 59.55729 34.128124 61.68229Z" fill-rule="nonzero"/><path fill="#000000" d="M84.43762 349.45L84.43762 340.85626L87.68762 340.85626Q88.53137 340.85626 88.9845 340.9344Q89.62512 341.04376 90.047 341.34064Q90.4845 341.6375 90.7345 342.16876Q91.00012 342.7 91.00012 343.34064Q91.00012 344.4344 90.297 345.2Q89.6095 345.95 87.78137 345.95L85.57825 345.95L85.57825 349.45L84.43762 349.45ZM85.57825 344.95L87.797 344.95Q88.90637 344.95 89.3595 344.54376Q89.82825 344.1219 89.82825 343.3719Q89.82825 342.84064 89.547 342.46564Q89.28137 342.075 88.84387 341.95Q88.547 341.8719 87.78137 341.8719L85.57825 341.8719L85.57825 344.95ZM92.26575 351.84064L92.14075 350.85626Q92.4845 350.95 92.75012 350.95Q93.09387 350.95 93.297 350.825Q93.51575 350.71564 93.65637 350.5125Q93.75012 350.34064 93.9845 349.71564Q94.00012 349.6375 94.07825 349.46564L91.70325 343.23126L92.84387 343.23126L94.14075 346.825Q94.39075 347.5125 94.59387 348.27814Q94.78137 347.54376 95.03137 346.85626L96.3595 343.23126L97.40637 343.23126L95.047 349.5594Q94.65637 350.575 94.45325 350.96564Q94.172 351.4969 93.797 351.73126Q93.43762 351.98126 92.93762 351.98126Q92.64075 351.98126 92.26575 351.84064ZM100.6095 348.5125L100.76575 349.4344Q100.31262 349.52814 99.96887 349.52814Q99.39075 349.52814 99.07825 349.35626Q98.76575 349.16876 98.62512 348.8719Q98.50012 348.575 98.50012 347.6219L98.50012 344.04376L97.7345 344.04376L97.7345 343.23126L98.50012 343.23126L98.50012 341.6844L99.547 341.0594L99.547 343.23126L100.6095 343.23126L100.6095 344.04376L99.547 344.04376L99.547 347.6844Q99.547 348.1375 99.59387 348.2625Q99.65637 348.3875 99.78137 348.46564Q99.90637 348.54376 100.14075 348.54376Q100.32825 348.54376 100.6095 348.5125ZM101.31262 349.45L101.31262 340.85626L102.3595 340.85626L102.3595 343.9344Q103.09387 343.09064 104.21887 343.09064Q104.922 343.09064 105.422 343.3719Q105.93762 343.6375 106.15637 344.1219Q106.37512 344.59064 106.37512 345.5125L106.37512 349.45L105.32825 349.45L105.32825 345.5125Q105.32825 344.71564 104.9845 344.35626Q104.64075 343.9969 104.01575 343.9969Q103.547 343.9969 103.12512 344.2469Q102.71887 344.48126 102.53137 344.90314Q102.3595 345.3094 102.3595 346.04376L102.3595 349.45L101.31262 349.45ZM107.922 346.34064Q107.922 344.60626 108.87512 343.77814Q109.672 343.09064 110.82825 343.09064Q112.1095 343.09064 112.922 343.9344Q113.75012 344.7625 113.75012 346.2469Q113.75012 347.45 113.39075 348.1375Q113.03137 348.825 112.32825 349.21564Q111.64075 349.59064 110.82825 349.59064Q109.53137 349.59064 108.71887 348.7625Q107.922 347.91876 107.922 346.34064ZM109.00012 346.34064Q109.00012 347.52814 109.51575 348.1219Q110.047 348.71564 110.82825 348.71564Q111.62512 348.71564 112.14075 348.1219Q112.65637 347.52814 112.65637 346.3094Q112.65637 345.15314 112.12512 344.5594Q111.6095 343.96564 110.82825 343.96564Q110.047 343.96564 109.51575 344.5594Q109.00012 345.1375 109.00012 346.34064ZM115.31262 349.45L115.31262 343.23126L116.25012 343.23126L116.25012 344.10626Q116.93762 343.09064 118.2345 343.09064Q118.797 343.09064 119.26575 343.29376Q119.75012 343.4969 119.9845 343.825Q120.21887 344.15314 120.31262 344.59064Q120.3595 344.8875 120.3595 345.6219L120.3595 349.45L119.31262 349.45L119.31262 345.66876Q119.31262 345.0125 119.18762 344.7Q119.06262 344.3875 118.75012 344.2Q118.43762 343.9969 118.01575 343.9969Q117.34387 343.9969 116.84387 344.4344Q116.3595 344.85626 116.3595 346.04376L116.3595 349.45L115.31262 349.45Z" fill-rule="nonzero"/><path fill="#000000" d="M178.64383 349.45L178.64383 348.3875L183.05008 342.8875Q183.51883 342.3094 183.9407 341.8719L179.14383 341.8719L179.14383 340.85626L185.30008 340.85626L185.30008 341.8719L180.47195 347.825L179.95633 348.4344L185.4407 348.4344L185.4407 349.45L178.64383 349.45ZM186.20633 342.075L186.20633 340.85626L187.26883 340.85626L187.26883 342.075L186.20633 342.075ZM186.20633 349.45L186.20633 343.23126L187.26883 343.23126L187.26883 349.45L186.20633 349.45ZM189.0032 349.96564L190.03445 350.1219Q190.09695 350.59064 190.39383 350.8094Q190.78445 351.10626 191.45633 351.10626Q192.1907 351.10626 192.58133 350.8094Q192.98758 350.5125 193.1282 349.9969Q193.22195 349.66876 193.20633 348.6375Q192.51883 349.45 191.48758 349.45Q190.20633 349.45 189.5032 348.52814Q188.80008 347.59064 188.80008 346.3094Q188.80008 345.41876 189.11258 344.66876Q189.4407 343.90314 190.05008 343.4969Q190.65945 343.09064 191.48758 343.09064Q192.59695 343.09064 193.3157 343.98126L193.3157 343.23126L194.28445 343.23126L194.28445 348.60626Q194.28445 350.0594 193.98758 350.66876Q193.6907 351.27814 193.05008 351.6219Q192.40945 351.98126 191.47195 351.98126Q190.36258 351.98126 189.67508 351.48126Q188.98758 350.98126 189.0032 349.96564ZM189.8782 346.23126Q189.8782 347.45 190.36258 348.0125Q190.84695 348.575 191.58133 348.575Q192.3157 348.575 192.80008 348.0125Q193.30008 347.45 193.30008 346.2625Q193.30008 345.1219 192.78445 344.54376Q192.28445 343.96564 191.5657 343.96564Q190.86258 343.96564 190.36258 344.54376Q189.8782 345.10626 189.8782 346.23126Z" fill-rule="nonzero"/><path fill="#000000" d="M243.1469 347.0125L244.17815 346.8719Q244.2094 347.85626 244.53752 348.21564Q244.86565 348.575 245.4594 348.575Q245.88127 348.575 246.19377 348.3875Q246.50627 348.1844 246.61565 347.85626Q246.74065 347.5125 246.74065 346.77814L246.74065 340.85626L247.86565 340.85626L247.86565 346.71564Q247.86565 347.79376 247.60002 348.3875Q247.35002 348.98126 246.78752 349.29376Q246.22502 349.59064 245.4594 349.59064Q244.3344 349.59064 243.72502 348.95Q243.13127 348.29376 243.1469 347.0125ZM253.66252 348.6844Q253.06877 349.1844 252.5219 349.3875Q251.99065 349.59064 251.36565 349.59064Q250.3344 349.59064 249.78752 349.09064Q249.24065 348.59064 249.24065 347.8094Q249.24065 347.35626 249.44377 346.98126Q249.6469 346.59064 249.99065 346.3719Q250.3344 346.1375 250.75627 346.02814Q251.05315 345.9344 251.69377 345.85626Q252.9594 345.71564 253.56877 345.4969Q253.56877 345.27814 253.56877 345.23126Q253.56877 344.575 253.2719 344.3094Q252.86565 343.96564 252.06877 343.96564Q251.3344 343.96564 250.97502 344.23126Q250.61565 344.48126 250.44377 345.1375L249.41252 344.9969Q249.55315 344.34064 249.88127 343.9344Q250.2094 343.52814 250.81877 343.3094Q251.42815 343.09064 252.22502 343.09064Q253.0219 343.09064 253.5219 343.27814Q254.0219 343.46564 254.25627 343.7469Q254.49065 344.02814 254.5844 344.46564Q254.63127 344.73126 254.63127 345.4344L254.63127 346.84064Q254.63127 348.3094 254.69377 348.7Q254.7719 349.09064 254.97502 349.45L253.86565 349.45Q253.7094 349.1219 253.66252 348.6844ZM253.56877 346.325Q252.99065 346.5594 251.85002 346.73126Q251.19377 346.825 250.92815 346.95Q250.66252 347.0594 250.50627 347.27814Q250.36565 347.4969 250.36565 347.77814Q250.36565 348.2 250.67815 348.48126Q251.00627 348.7625 251.61565 348.7625Q252.22502 348.7625 252.69377 348.4969Q253.17815 348.23126 253.3969 347.7625Q253.56877 347.40314 253.56877 346.71564L253.56877 346.325ZM258.3188 349.45L255.9594 343.23126L257.0688 343.23126L258.41254 346.95Q258.61566 347.5594 258.80316 348.2Q258.9438 347.71564 259.1938 347.02814L260.5844 343.23126L261.66254 343.23126L259.30316 349.45L258.3188 349.45ZM266.66254 348.6844Q266.0688 349.1844 265.5219 349.3875Q264.99066 349.59064 264.36566 349.59064Q263.3344 349.59064 262.78754 349.09064Q262.24066 348.59064 262.24066 347.8094Q262.24066 347.35626 262.4438 346.98126Q262.6469 346.59064 262.99066 346.3719Q263.3344 346.1375 263.7563 346.02814Q264.05316 345.9344 264.6938 345.85626Q265.9594 345.71564 266.5688 345.4969Q266.5688 345.27814 266.5688 345.23126Q266.5688 344.575 266.2719 344.3094Q265.86566 343.96564 265.0688 343.96564Q264.3344 343.96564 263.97504 344.23126Q263.61566 344.48126 263.4438 345.1375L262.41254 344.9969Q262.55316 344.34064 262.8813 343.9344Q263.2094 343.52814 263.8188 343.3094Q264.42816 343.09064 265.22504 343.09064Q266.0219 343.09064 266.5219 343.27814Q267.0219 343.46564 267.2563 343.7469Q267.49066 344.02814 267.5844 344.46564Q267.6313 344.73126 267.6313 345.4344L267.6313 346.84064Q267.6313 348.3094 267.6938 348.7Q267.7719 349.09064 267.97504 349.45L266.86566 349.45Q266.7094 349.1219 266.66254 348.6844ZM266.5688 346.325Q265.99066 346.5594 264.85004 346.73126Q264.1938 346.825 263.92816 346.95Q263.66254 347.0594 263.5063 347.27814Q263.36566 347.4969 263.36566 347.77814Q263.36566 348.2 263.67816 348.48126Q264.0063 348.7625 264.61566 348.7625Q265.22504 348.7625 265.6938 348.4969Q266.17816 348.23126 266.3969 347.7625Q266.5688 347.40314 266.5688 346.71564L266.5688 346.325ZM269.35004 346.6844L270.41254 346.59064Q270.49066 347.2469 270.7719 347.65314Q271.05316 348.0594 271.6313 348.325Q272.22504 348.575 272.9594 348.575Q273.60004 348.575 274.10004 348.3875Q274.60004 348.1844 274.8344 347.85626Q275.0844 347.5125 275.0844 347.1219Q275.0844 346.71564 274.85004 346.41876Q274.61566 346.10626 274.0844 345.90314Q273.72504 345.7625 272.53754 345.48126Q271.36566 345.2 270.8969 344.95Q270.2719 344.6219 269.97504 344.15314Q269.67816 343.66876 269.67816 343.075Q269.67816 342.4344 270.03754 341.8719Q270.41254 341.29376 271.11566 341.0125Q271.8344 340.71564 272.6938 340.71564Q273.6469 340.71564 274.3813 341.02814Q275.11566 341.325 275.5063 341.9344Q275.8969 342.52814 275.92816 343.27814L274.8344 343.35626Q274.74066 342.54376 274.22504 342.1375Q273.72504 341.71564 272.74066 341.71564Q271.7094 341.71564 271.24066 342.09064Q270.7719 342.46564 270.7719 342.9969Q270.7719 343.46564 271.10004 343.7625Q271.42816 344.0594 272.80316 344.3719Q274.1938 344.6844 274.7094 344.91876Q275.4594 345.27814 275.8188 345.8094Q276.17816 346.325 276.17816 347.02814Q276.17816 347.71564 275.78754 348.325Q275.3969 348.91876 274.66254 349.2625Q273.92816 349.59064 273.0063 349.59064Q271.8344 349.59064 271.03754 349.2625Q270.2563 348.91876 269.80316 348.23126Q269.36566 347.54376 269.35004 346.6844ZM281.66254 347.16876L282.6938 347.3094Q282.5219 348.3719 281.8188 348.98126Q281.11566 349.59064 280.10004 349.59064Q278.8188 349.59064 278.03754 348.7625Q277.2719 347.91876 277.2719 346.35626Q277.2719 345.35626 277.60004 344.60626Q277.9438 343.84064 278.61566 343.46564Q279.30316 343.09064 280.11566 343.09064Q281.11566 343.09064 281.7563 343.60626Q282.41254 344.10626 282.60004 345.0594L281.5688 345.21564Q281.42816 344.59064 281.05316 344.27814Q280.67816 343.95 280.1469 343.95Q279.35004 343.95 278.85004 344.52814Q278.35004 345.09064 278.35004 346.325Q278.35004 347.59064 278.8344 348.15314Q279.3188 348.71564 280.0844 348.71564Q280.7094 348.71564 281.11566 348.34064Q281.53754 347.96564 281.66254 347.16876ZM283.5844 349.45L283.5844 343.23126L284.53754 343.23126L284.53754 344.16876Q284.8969 343.5125 285.1938 343.3094Q285.5063 343.09064 285.8813 343.09064Q286.41254 343.09064 286.9594 343.41876L286.60004 344.40314Q286.2094 344.16876 285.8344 344.16876Q285.47504 344.16876 285.1938 344.3875Q284.92816 344.59064 284.8188 344.96564Q284.6313 345.52814 284.6313 346.1844L284.6313 349.45L283.5844 349.45ZM287.60004 342.075L287.60004 340.85626L288.66254 340.85626L288.66254 342.075L287.60004 342.075ZM287.60004 349.45L287.60004 343.23126L288.66254 343.23126L288.66254 349.45L287.60004 349.45ZM290.60004 351.84064L290.60004 343.23126L291.55316 343.23126L291.55316 344.02814Q291.8969 343.5594 292.3188 343.325Q292.7563 343.09064 293.36566 343.09064Q294.16254 343.09064 294.7719 343.4969Q295.3813 343.90314 295.67816 344.65314Q295.99066 345.40314 295.99066 346.29376Q295.99066 347.2469 295.6469 348.0125Q295.3188 348.77814 294.66254 349.1844Q294.0063 349.59064 293.28754 349.59064Q292.7563 349.59064 292.3344 349.3719Q291.91254 349.1375 291.6469 348.8094L291.6469 351.84064L290.60004 351.84064ZM291.55316 346.3719Q291.55316 347.575 292.03754 348.15314Q292.5219 348.71564 293.2094 348.71564Q293.91254 348.71564 294.41254 348.1219Q294.91254 347.52814 294.91254 346.27814Q294.91254 345.09064 294.42816 344.5125Q293.9438 343.91876 293.2563 343.91876Q292.5844 343.91876 292.0688 344.54376Q291.55316 345.16876 291.55316 346.3719ZM299.8969 348.5125L300.05316 349.4344Q299.60004 349.52814 299.2563 349.52814Q298.67816 349.52814 298.36566 349.35626Q298.05316 349.16876 297.91254 348.8719Q297.78754 348.575 297.78754 347.6219L297.78754 344.04376L297.0219 344.04376L297.0219 343.23126L297.78754 343.23126L297.78754 341.6844L298.8344 341.0594L298.8344 343.23126L299.8969 343.23126L299.8969 344.04376L298.8344 344.04376L298.8344 347.6844Q298.8344 348.1375 298.8813 348.2625Q298.9438 348.3875 299.0688 348.46564Q299.1938 348.54376 299.42816 348.54376Q299.61566 348.54376 299.8969 348.5125Z" fill-rule="nonzero"/><path fill="#000000" d="M334.77496 345.2625Q334.77496 343.1219 335.9156 341.91876Q337.07184 340.7 338.88434 340.7Q340.08746 340.7 341.0406 341.27814Q341.9937 341.84064 342.4937 342.85626Q342.9937 343.8719 342.9937 345.16876Q342.9937 346.46564 342.46246 347.4969Q341.9312 348.52814 340.96246 349.0594Q340.00934 349.59064 338.88434 349.59064Q337.6656 349.59064 336.71246 349.0125Q335.75934 348.41876 335.25934 347.41876Q334.77496 346.40314 334.77496 345.2625ZM335.94684 345.27814Q335.94684 346.84064 336.77496 347.73126Q337.6187 348.6219 338.88434 348.6219Q340.1656 348.6219 340.9937 347.73126Q341.82184 346.825 341.82184 345.15314Q341.82184 344.10626 341.46246 343.325Q341.1187 342.54376 340.4312 342.1219Q339.7437 341.6844 338.89996 341.6844Q337.69684 341.6844 336.82184 342.5125Q335.94684 343.34064 335.94684 345.27814ZM343.9781 349.45L343.9781 343.23126L344.9312 343.23126L344.9312 344.16876Q345.2906 343.5125 345.58746 343.3094Q345.89996 343.09064 346.27496 343.09064Q346.8062 343.09064 347.3531 343.41876L346.9937 344.40314Q346.6031 344.16876 346.2281 344.16876Q345.8687 344.16876 345.58746 344.3875Q345.32184 344.59064 345.21246 344.96564Q345.02496 345.52814 345.02496 346.1844L345.02496 349.45L343.9781 349.45ZM347.9937 342.075L347.9937 340.85626L349.0562 340.85626L349.0562 342.075L347.9937 342.075ZM347.9937 349.45L347.9937 343.23126L349.0562 343.23126L349.0562 349.45L347.9937 349.45ZM350.7906 349.96564L351.82184 350.1219Q351.88434 350.59064 352.1812 350.8094Q352.57184 351.10626 353.2437 351.10626Q353.9781 351.10626 354.3687 350.8094Q354.77496 350.5125 354.9156 349.9969Q355.00934 349.66876 354.9937 348.6375Q354.3062 349.45 353.27496 349.45Q351.9937 349.45 351.2906 348.52814Q350.58746 347.59064 350.58746 346.3094Q350.58746 345.41876 350.89996 344.66876Q351.2281 343.90314 351.83746 343.4969Q352.44684 343.09064 353.27496 343.09064Q354.38434 343.09064 355.1031 343.98126L355.1031 343.23126L356.07184 343.23126L356.07184 348.60626Q356.07184 350.0594 355.77496 350.66876Q355.4781 351.27814 354.83746 351.6219Q354.19684 351.98126 353.25934 351.98126Q352.14996 351.98126 351.46246 351.48126Q350.77496 350.98126 350.7906 349.96564ZM351.6656 346.23126Q351.6656 347.45 352.14996 348.0125Q352.63434 348.575 353.3687 348.575Q354.1031 348.575 354.58746 348.0125Q355.08746 347.45 355.08746 346.2625Q355.08746 345.1219 354.57184 344.54376Q354.07184 343.96564 353.3531 343.96564Q352.64996 343.96564 352.14996 344.54376Q351.6656 345.10626 351.6656 346.23126ZM362.0562 348.6844Q361.46246 349.1844 360.9156 349.3875Q360.38434 349.59064 359.75934 349.59064Q358.7281 349.59064 358.1812 349.09064Q357.63434 348.59064 357.63434 347.8094Q357.63434 347.35626 357.83746 346.98126Q358.0406 346.59064 358.38434 346.3719Q358.7281 346.1375 359.14996 346.02814Q359.44684 345.9344 360.08746 345.85626Q361.3531 345.71564 361.96246 345.4969Q361.96246 345.27814 361.96246 345.23126Q361.96246 344.575 361.6656 344.3094Q361.25934 343.96564 360.46246 343.96564Q359.7281 343.96564 359.3687 344.23126Q359.00934 344.48126 358.83746 345.1375L357.8062 344.9969Q357.94684 344.34064 358.27496 343.9344Q358.6031 343.52814 359.21246 343.3094Q359.82184 343.09064 360.6187 343.09064Q361.4156 343.09064 361.9156 343.27814Q362.4156 343.46564 362.64996 343.7469Q362.88434 344.02814 362.9781 344.46564Q363.02496 344.73126 363.02496 345.4344L363.02496 346.84064Q363.02496 348.3094 363.08746 348.7Q363.1656 349.09064 363.3687 349.45L362.25934 349.45Q362.1031 349.1219 362.0562 348.6844ZM361.96246 346.325Q361.38434 346.5594 360.2437 346.73126Q359.58746 346.825 359.32184 346.95Q359.0562 347.0594 358.89996 347.27814Q358.75934 347.4969 358.75934 347.77814Q358.75934 348.2 359.07184 348.48126Q359.39996 348.7625 360.00934 348.7625Q360.6187 348.7625 361.08746 348.4969Q361.57184 348.23126 361.7906 347.7625Q361.96246 347.40314 361.96246 346.71564L361.96246 346.325ZM364.9937 349.45L364.9937 343.23126L365.9312 343.23126L365.9312 344.10626Q366.2281 343.6375 366.71246 343.3719Q367.19684 343.09064 367.82184 343.09064Q368.50934 343.09064 368.94684 343.3719Q369.39996 343.65314 369.57184 344.16876Q370.32184 343.09064 371.4937 343.09064Q372.4312 343.09064 372.9156 343.60626Q373.4156 344.10626 373.4156 345.1844L373.4156 349.45L372.3687 349.45L372.3687 345.52814Q372.3687 344.90314 372.25934 344.6219Q372.1656 344.34064 371.89996 344.16876Q371.63434 343.9969 371.25934 343.9969Q370.6031 343.9969 370.1656 344.4344Q369.7437 344.8719 369.7437 345.84064L369.7437 349.45L368.6812 349.45L368.6812 345.40314Q368.6812 344.7 368.4156 344.35626Q368.1656 343.9969 367.58746 343.9969Q367.13434 343.9969 366.75934 344.23126Q366.38434 344.46564 366.21246 344.91876Q366.0406 345.3719 366.0406 346.21564L366.0406 349.45L364.9937 349.45ZM374.9937 342.075L374.9937 340.85626L376.0562 340.85626L376.0562 342.075L374.9937 342.075ZM374.9937 349.45L374.9937 343.23126L376.0562 343.23126L376.0562 349.45L374.9937 349.45Z" fill-rule="nonzero"/><path fill="#000000" d="M417.54367 349.45L417.54367 340.85626L423.7468 340.85626L423.7468 341.8719L418.6843 341.8719L418.6843 344.4969L423.4343 344.4969L423.4343 345.5125L418.6843 345.5125L418.6843 348.4344L423.94992 348.4344L423.94992 349.45L417.54367 349.45ZM425.35617 349.45L425.35617 340.85626L426.41867 340.85626L426.41867 349.45L425.35617 349.45ZM432.63742 347.45L433.73117 347.575Q433.48117 348.52814 432.77805 349.0594Q432.07492 349.59064 430.9968 349.59064Q429.63742 349.59064 428.82492 348.7469Q428.02805 347.90314 428.02805 346.3875Q428.02805 344.825 428.84055 343.96564Q429.65305 343.09064 430.9343 343.09064Q432.1843 343.09064 432.96555 343.9344Q433.76242 344.77814 433.76242 346.325Q433.76242 346.41876 433.76242 346.60626L429.1218 346.60626Q429.1843 347.6375 429.69992 348.1844Q430.21555 348.71564 430.9968 348.71564Q431.57492 348.71564 431.98117 348.41876Q432.40305 348.10626 432.63742 347.45ZM429.1843 345.7469L432.65305 345.7469Q432.59055 344.95 432.26242 344.5594Q431.7468 343.95 430.94992 343.95Q430.21555 343.95 429.71555 344.4344Q429.23117 344.91876 429.1843 345.7469ZM437.10617 349.45L434.7468 343.23126L435.85617 343.23126L437.19992 346.95Q437.40305 347.5594 437.59055 348.2Q437.73117 347.71564 437.98117 347.02814L439.3718 343.23126L440.44992 343.23126L438.09055 349.45L437.10617 349.45ZM445.63742 347.45L446.73117 347.575Q446.48117 348.52814 445.77805 349.0594Q445.07492 349.59064 443.9968 349.59064Q442.63742 349.59064 441.82492 348.7469Q441.02805 347.90314 441.02805 346.3875Q441.02805 344.825 441.84055 343.96564Q442.65305 343.09064 443.9343 343.09064Q445.1843 343.09064 445.96555 343.9344Q446.76242 344.77814 446.76242 346.325Q446.76242 346.41876 446.76242 346.60626L442.1218 346.60626Q442.1843 347.6375 442.69992 348.1844Q443.21555 348.71564 443.9968 348.71564Q444.57492 348.71564 444.98117 348.41876Q445.40305 348.10626 445.63742 347.45ZM442.1843 345.7469L445.65305 345.7469Q445.59055 344.95 445.26242 344.5594Q444.7468 343.95 443.94992 343.95Q443.21555 343.95 442.71555 344.4344Q442.23117 344.91876 442.1843 345.7469ZM448.38742 349.45L448.38742 343.23126L449.32492 343.23126L449.32492 344.10626Q450.01242 343.09064 451.3093 343.09064Q451.8718 343.09064 452.34055 343.29376Q452.82492 343.4969 453.0593 343.825Q453.29367 344.15314 453.38742 344.59064Q453.4343 344.8875 453.4343 345.6219L453.4343 349.45L452.38742 349.45L452.38742 345.66876Q452.38742 345.0125 452.26242 344.7Q452.13742 344.3875 451.82492 344.2Q451.51242 343.9969 451.09055 343.9969Q450.41867 343.9969 449.91867 344.4344Q449.4343 344.85626 449.4343 346.04376L449.4343 349.45L448.38742 349.45ZM457.6843 348.5125L457.84055 349.4344Q457.38742 349.52814 457.04367 349.52814Q456.46555 349.52814 456.15305 349.35626Q455.84055 349.16876 455.69992 348.8719Q455.57492 348.575 455.57492 347.6219L455.57492 344.04376L454.8093 344.04376L454.8093 343.23126L455.57492 343.23126L455.57492 341.6844L456.6218 341.0594L456.6218 343.23126L457.6843 343.23126L457.6843 344.04376L456.6218 344.04376L456.6218 347.6844Q456.6218 348.1375 456.66867 348.2625Q456.73117 348.3875 456.85617 348.46564Q456.98117 348.54376 457.21555 348.54376Q457.40305 348.54376 457.6843 348.5125ZM458.34055 351.84064L458.21555 350.85626Q458.5593 350.95 458.82492 350.95Q459.16867 350.95 459.3718 350.825Q459.59055 350.71564 459.73117 350.5125Q459.82492 350.34064 460.0593 349.71564Q460.07492 349.6375 460.15305 349.46564L457.77805 343.23126L458.91867 343.23126L460.21555 346.825Q460.46555 347.5125 460.66867 348.27814Q460.85617 347.54376 461.10617 346.85626L462.4343 343.23126L463.48117 343.23126L461.1218 349.5594Q460.73117 350.575 460.52805 350.96564Q460.2468 351.4969 459.8718 351.73126Q459.51242 351.98126 459.01242 351.98126Q458.71555 351.98126 458.34055 351.84064Z" fill-rule="nonzero"/><path fill="#000000" d="M510.46863 349.45L513.7655 340.85626L514.98425 340.85626L518.4999 349.45L517.2186 349.45L516.203 346.84064L512.6249 346.84064L511.67175 349.45L510.46863 349.45ZM512.953 345.91876L515.85925 345.91876L514.9686 343.54376Q514.54675 342.46564 514.35925 341.7625Q514.1874 342.59064 513.8905 343.40314L512.953 345.91876ZM518.85925 347.59064L519.8905 347.4344Q519.98425 348.0594 520.3749 348.3875Q520.7811 348.71564 521.5155 348.71564Q522.23425 348.71564 522.578 348.4344Q522.9374 348.1375 522.9374 347.73126Q522.9374 347.3719 522.6249 347.16876Q522.4061 347.02814 521.54675 346.8094Q520.3905 346.5125 519.9374 346.3094Q519.4999 346.09064 519.2655 345.71564Q519.0311 345.34064 519.0311 344.8719Q519.0311 344.46564 519.2186 344.10626Q519.4061 343.7469 519.73425 343.5125Q519.98425 343.34064 520.4061 343.21564Q520.828 343.09064 521.328 343.09064Q522.04675 343.09064 522.5936 343.3094Q523.1561 343.5125 523.42175 343.8719Q523.6874 344.23126 523.7811 344.825L522.7499 344.96564Q522.6874 344.4969 522.3436 344.23126Q522.0155 343.95 521.3905 343.95Q520.67175 343.95 520.35925 344.2Q520.04675 344.4344 520.04675 344.7625Q520.04675 344.96564 520.17175 345.1219Q520.3124 345.29376 520.578 345.40314Q520.73425 345.46564 521.5155 345.66876Q522.6405 345.98126 523.078 346.16876Q523.5155 346.35626 523.7655 346.71564Q524.0155 347.075 524.0155 347.6219Q524.0155 348.15314 523.703 348.6219Q523.4061 349.075 522.828 349.34064Q522.2499 349.59064 521.5155 349.59064Q520.29675 349.59064 519.6561 349.09064Q519.0311 348.575 518.85925 347.59064ZM527.578 348.5125L527.73425 349.4344Q527.2811 349.52814 526.9374 349.52814Q526.35925 349.52814 526.04675 349.35626Q525.73425 349.16876 525.5936 348.8719Q525.4686 348.575 525.4686 347.6219L525.4686 344.04376L524.703 344.04376L524.703 343.23126L525.4686 343.23126L525.4686 341.6844L526.5155 341.0594L526.5155 343.23126L527.578 343.23126L527.578 344.04376L526.5155 344.04376L526.5155 347.6844Q526.5155 348.1375 526.5624 348.2625Q526.6249 348.3875 526.7499 348.46564Q526.8749 348.54376 527.10925 348.54376Q527.29675 348.54376 527.578 348.5125ZM528.2655 349.45L528.2655 343.23126L529.2186 343.23126L529.2186 344.16876Q529.578 343.5125 529.8749 343.3094Q530.1874 343.09064 530.5624 343.09064Q531.0936 343.09064 531.6405 343.41876L531.2811 344.40314Q530.8905 344.16876 530.5155 344.16876Q530.1561 344.16876 529.8749 344.3875Q529.60925 344.59064 529.4999 344.96564Q529.3124 345.52814 529.3124 346.1844L529.3124 349.45L528.2655 349.45ZM531.8905 346.34064Q531.8905 344.60626 532.8436 343.77814Q533.6405 343.09064 534.79675 343.09064Q536.078 343.09064 536.8905 343.9344Q537.7186 344.7625 537.7186 346.2469Q537.7186 347.45 537.35925 348.1375Q536.9999 348.825 536.29675 349.21564Q535.60925 349.59064 534.79675 349.59064Q533.4999 349.59064 532.6874 348.7625Q531.8905 347.91876 531.8905 346.34064ZM532.9686 346.34064Q532.9686 347.52814 533.48425 348.1219Q534.0155 348.71564 534.79675 348.71564Q535.5936 348.71564 536.10925 348.1219Q536.6249 347.52814 536.6249 346.3094Q536.6249 345.15314 536.0936 344.5594Q535.578 343.96564 534.79675 343.96564Q534.0155 343.96564 533.48425 344.5594Q532.9686 345.1375 532.9686 346.34064Z" fill-rule="nonzero"/><path fill="#757575" d="M19.45625 32.95625L21.2375 32.8Q21.3625 33.8625 21.815624 34.55Q22.284374 35.2375 23.253124 35.675Q24.2375 36.096874 25.471874 36.096874Q26.55 36.096874 27.378124 35.784374Q28.20625 35.45625 28.6125 34.89375Q29.01875 34.33125 29.01875 33.659374Q29.01875 32.9875 28.628124 32.4875Q28.2375 31.9875 27.346874 31.64375Q26.76875 31.409374 24.784374 30.940624Q22.815624 30.471874 22.034374 30.05Q21.003124 29.51875 20.503124 28.721874Q20.003124 27.925 20.003124 26.940624Q20.003124 25.846874 20.6125 24.909374Q21.221874 23.971874 22.409374 23.4875Q23.596874 22.9875 25.034374 22.9875Q26.628124 22.9875 27.846874 23.503124Q29.065624 24.01875 29.70625 25.01875Q30.3625 26.003124 30.409374 27.26875L28.596874 27.409374Q28.45625 26.05 27.6125 25.3625Q26.76875 24.659374 25.1125 24.659374Q23.39375 24.659374 22.596874 25.3Q21.815624 25.925 21.815624 26.8Q21.815624 27.58125 22.378124 28.08125Q22.925 28.58125 25.2375 29.096874Q27.55 29.6125 28.409374 30.003124Q29.659374 30.58125 30.253124 31.471874Q30.846874 32.346874 30.846874 33.503124Q30.846874 34.64375 30.190624 35.659374Q29.534374 36.675 28.3 37.2375Q27.08125 37.8 25.55 37.8Q23.6125 37.8 22.3 37.2375Q20.9875 36.659374 20.2375 35.51875Q19.4875 34.378124 19.45625 32.95625ZM32.221874 32.3625Q32.221874 29.4875 33.815624 28.096874Q35.159374 26.940624 37.08125 26.940624Q39.221874 26.940624 40.565624 28.346874Q41.925 29.753124 41.925 32.221874Q41.925 34.221874 41.33125 35.378124Q40.7375 36.51875 39.58125 37.159374Q38.440624 37.784374 37.08125 37.784374Q34.89375 37.784374 33.55 36.39375Q32.221874 34.9875 32.221874 32.3625ZM34.01875 32.3625Q34.01875 34.3625 34.878124 35.346874Q35.753124 36.33125 37.08125 36.33125Q38.39375 36.33125 39.253124 35.346874Q40.128124 34.346874 40.128124 32.3Q40.128124 30.378124 39.253124 29.39375Q38.378124 28.39375 37.08125 28.39375Q35.753124 28.39375 34.878124 29.39375Q34.01875 30.378124 34.01875 32.3625ZM50.659374 37.55L50.659374 36.01875Q49.45625 37.784374 47.378124 37.784374Q46.45625 37.784374 45.659374 37.440624Q44.8625 37.08125 44.471874 36.55Q44.096874 36.01875 43.940624 35.2375Q43.83125 34.721874 43.83125 33.596874L43.83125 27.175L45.58125 27.175L45.58125 32.925Q45.58125 34.3 45.690624 34.784374Q45.8625 35.471874 46.39375 35.878124Q46.940624 36.26875 47.721874 36.26875Q48.51875 36.26875 49.20625 35.8625Q49.909374 35.45625 50.190624 34.76875Q50.4875 34.065624 50.4875 32.7375L50.4875 27.175L52.2375 27.175L52.2375 37.55L50.659374 37.55ZM54.846874 37.55L54.846874 27.175L56.425 27.175L56.425 28.753124Q57.034374 27.64375 57.55 27.3Q58.065624 26.940624 58.675 26.940624Q59.565624 26.940624 60.4875 27.503124L59.878124 29.14375Q59.2375 28.753124 58.596874 28.753124Q58.01875 28.753124 57.55 29.1125Q57.096874 29.45625 56.89375 30.065624Q56.6125 31.003124 56.6125 32.1125L56.6125 37.55L54.846874 37.55ZM68.64375 33.753124L70.3625 33.971874Q70.08125 35.76875 68.90938 36.784374Q67.75313 37.784374 66.05 37.784374Q63.925 37.784374 62.628124 36.39375Q61.33125 35.003124 61.33125 32.409374Q61.33125 30.721874 61.878124 29.471874Q62.440624 28.20625 63.58125 27.58125Q64.72188 26.940624 66.06563 26.940624Q67.75313 26.940624 68.81563 27.8Q69.89375 28.659374 70.20625 30.221874L68.4875 30.4875Q68.25313 29.440624 67.62813 28.925Q67.00313 28.39375 66.12813 28.39375Q64.8 28.39375 63.971874 29.346874Q63.14375 30.3 63.14375 32.346874Q63.14375 34.440624 63.940624 35.39375Q64.7375 36.33125 66.03438 36.33125Q67.06563 36.33125 67.75313 35.70625Q68.45625 35.065624 68.64375 33.753124ZM78.97188 34.20625L80.78438 34.440624Q80.3625 36.01875 79.19063 36.909374Q78.03438 37.784374 76.22188 37.784374Q73.95625 37.784374 72.6125 36.39375Q71.28438 34.9875 71.28438 32.45625Q71.28438 29.83125 72.62813 28.39375Q73.97188 26.940624 76.12813 26.940624Q78.20625 26.940624 79.51875 28.3625Q80.84688 29.76875 80.84688 32.346874Q80.84688 32.503124 80.83125 32.815624L73.09688 32.815624Q73.19063 34.51875 74.06563 35.425Q74.94063 36.33125 76.2375 36.33125Q77.20625 36.33125 77.87813 35.83125Q78.56563 35.315624 78.97188 34.20625ZM73.19063 31.3625L78.9875 31.3625Q78.87813 30.065624 78.33125 29.409374Q77.4875 28.39375 76.14375 28.39375Q74.94063 28.39375 74.1125 29.20625Q73.28438 30.003124 73.19063 31.3625ZM88.15938 34.45625L89.90938 34.175Q90.05 35.221874 90.72188 35.784374Q91.39375 36.33125 92.59688 36.33125Q93.8 36.33125 94.37813 35.846874Q94.97188 35.346874 94.97188 34.690624Q94.97188 34.096874 94.45625 33.753124Q94.09688 33.51875 92.65938 33.159374Q90.72188 32.659374 89.97188 32.315624Q89.2375 31.95625 88.84688 31.33125Q88.45625 30.690624 88.45625 29.925Q88.45625 29.2375 88.76875 28.64375Q89.09688 28.05 89.64375 27.659374Q90.05 27.3625 90.75313 27.159374Q91.47188 26.940624 92.28438 26.940624Q93.50313 26.940624 94.425 27.3Q95.34688 27.64375 95.78438 28.253124Q96.22188 28.846874 96.39375 29.846874L94.675 30.08125Q94.55 29.284374 93.9875 28.846874Q93.425 28.39375 92.40938 28.39375Q91.19063 28.39375 90.675 28.8Q90.15938 29.190624 90.15938 29.721874Q90.15938 30.065624 90.37813 30.346874Q90.58125 30.628124 91.05 30.815624Q91.31563 30.909374 92.59688 31.253124Q94.47188 31.753124 95.20625 32.08125Q95.94063 32.39375 96.3625 33.003124Q96.78438 33.596874 96.78438 34.503124Q96.78438 35.378124 96.26875 36.159374Q95.75313 36.940624 94.78438 37.3625Q93.81563 37.784374 92.59688 37.784374Q90.58125 37.784374 89.51875 36.940624Q88.45625 36.096874 88.15938 34.45625ZM98.87813 25.253124L98.87813 23.2375L100.64375 23.2375L100.64375 25.253124L98.87813 25.253124ZM98.87813 37.55L98.87813 27.175L100.64375 27.175L100.64375 37.55L98.87813 37.55ZM101.94063 37.55L101.94063 36.128124L108.55 28.55Q107.425 28.596874 106.56563 28.596874L102.33125 28.596874L102.33125 27.175L110.81563 27.175L110.81563 28.346874L105.19063 34.925L104.1125 36.128124Q105.28438 36.034374 106.33125 36.034374L111.12813 36.034374L111.12813 37.55L101.94063 37.55ZM119.97188 34.20625L121.78438 34.440624Q121.3625 36.01875 120.19063 36.909374Q119.03438 37.784374 117.22188 37.784374Q114.95625 37.784374 113.6125 36.39375Q112.28438 34.9875 112.28438 32.45625Q112.28438 29.83125 113.62813 28.39375Q114.97188 26.940624 117.12813 26.940624Q119.20625 26.940624 120.51875 28.3625Q121.84688 29.76875 121.84688 32.346874Q121.84688 32.503124 121.83125 32.815624L114.09688 32.815624Q114.19063 34.51875 115.06563 35.425Q115.94063 36.33125 117.2375 36.33125Q118.20625 36.33125 118.87813 35.83125Q119.56563 35.315624 119.97188 34.20625ZM114.19063 31.3625L119.9875 31.3625Q119.87813 30.065624 119.33125 29.409374Q118.4875 28.39375 117.14375 28.39375Q115.94063 28.39375 115.1125 29.20625Q114.28438 30.003124 114.19063 31.3625ZM124.33125 37.55L124.33125 35.55L126.33125 35.55L126.33125 37.55Q126.33125 38.659374 125.94063 39.33125Q125.55 40.01875 124.70625 40.378124L124.20625 39.628124Q124.76875 39.39375 125.03438 38.909374Q125.3 38.440624 125.33125 37.55L124.33125 37.55ZM135.8625 41.51875L135.8625 27.175L137.47188 27.175L137.47188 28.51875Q138.03438 27.7375 138.7375 27.346874Q139.45625 26.940624 140.47188 26.940624Q141.8 26.940624 142.81563 27.628124Q143.83125 28.315624 144.34688 29.565624Q144.87813 30.8 144.87813 32.284374Q144.87813 33.878124 144.3 35.159374Q143.7375 36.425 142.64375 37.1125Q141.55 37.784374 140.34688 37.784374Q139.47188 37.784374 138.76875 37.409374Q138.08125 37.034374 137.62813 36.471874L137.62813 41.51875L135.8625 41.51875ZM137.45625 32.425Q137.45625 34.425 138.26875 35.378124Q139.08125 36.33125 140.2375 36.33125Q141.40938 36.33125 142.2375 35.346874Q143.08125 34.3625 143.08125 32.26875Q143.08125 30.3 142.25313 29.315624Q141.44063 28.315624 140.31563 28.315624Q139.19063 28.315624 138.31563 29.378124Q137.45625 30.425 137.45625 32.425ZM146.84688 37.55L146.84688 27.175L148.425 27.175L148.425 28.753124Q149.03438 27.64375 149.55 27.3Q150.06563 26.940624 150.675 26.940624Q151.56563 26.940624 152.4875 27.503124L151.87813 29.14375Q151.2375 28.753124 150.59688 28.753124Q150.01875 28.753124 149.55 29.1125Q149.09688 29.45625 148.89375 30.065624Q148.6125 31.003124 148.6125 32.1125L148.6125 37.55L146.84688 37.55ZM153.22188 32.3625Q153.22188 29.4875 154.81563 28.096874Q156.15938 26.940624 158.08125 26.940624Q160.22188 26.940624 161.56563 28.346874Q162.925 29.753124 162.925 32.221874Q162.925 34.221874 162.33125 35.378124Q161.7375 36.51875 160.58125 37.159374Q159.44063 37.784374 158.08125 37.784374Q155.89375 37.784374 154.55 36.39375Q153.22188 34.9875 153.22188 32.3625ZM155.01875 32.3625Q155.01875 34.3625 155.87813 35.346874Q156.75313 36.33125 158.08125 36.33125Q159.39375 36.33125 160.25313 35.346874Q161.12813 34.346874 161.12813 32.3Q161.12813 30.378124 160.25313 29.39375Q159.37813 28.39375 158.08125 28.39375Q156.75313 28.39375 155.87813 29.39375Q155.01875 30.378124 155.01875 32.3625ZM164.8625 25.26875L164.8625 23.2375L166.6125 23.2375L166.6125 25.26875L164.8625 25.26875ZM162.62813 41.58125L162.95625 40.08125Q163.4875 40.221874 163.8 40.221874Q164.33125 40.221874 164.59688 39.8625Q164.8625 39.503124 164.8625 38.08125L164.8625 27.175L166.6125 27.175L166.6125 38.1125Q166.6125 40.034374 166.1125 40.784374Q165.4875 41.753124 164.00313 41.753124Q163.3 41.753124 162.62813 41.58125ZM175.97188 34.20625L177.78438 34.440624Q177.3625 36.01875 176.19063 36.909374Q175.03438 37.784374 173.22188 37.784374Q170.95625 37.784374 169.6125 36.39375Q168.28438 34.9875 168.28438 32.45625Q168.28438 29.83125 169.62813 28.39375Q170.97188 26.940624 173.12813 26.940624Q175.20625 26.940624 176.51875 28.3625Q177.84688 29.76875 177.84688 32.346874Q177.84688 32.503124 177.83125 32.815624L170.09688 32.815624Q170.19063 34.51875 171.06563 35.425Q171.94063 36.33125 173.2375 36.33125Q174.20625 36.33125 174.87813 35.83125Q175.56563 35.315624 175.97188 34.20625ZM170.19063 31.3625L175.9875 31.3625Q175.87813 30.065624 175.33125 29.409374Q174.4875 28.39375 173.14375 28.39375Q171.94063 28.39375 171.1125 29.20625Q170.28438 30.003124 170.19063 31.3625ZM186.64375 33.753124L188.3625 33.971874Q188.08125 35.76875 186.90938 36.784374Q185.75313 37.784374 184.05 37.784374Q181.925 37.784374 180.62813 36.39375Q179.33125 35.003124 179.33125 32.409374Q179.33125 30.721874 179.87813 29.471874Q180.44063 28.20625 181.58125 27.58125Q182.72188 26.940624 184.06563 26.940624Q185.75313 26.940624 186.81563 27.8Q187.89375 28.659374 188.20625 30.221874L186.4875 30.4875Q186.25313 29.440624 185.62813 28.925Q185.00313 28.39375 184.12813 28.39375Q182.8 28.39375 181.97188 29.346874Q181.14375 30.3 181.14375 32.346874Q181.14375 34.440624 181.94063 35.39375Q182.7375 36.33125 184.03438 36.33125Q185.06563 36.33125 185.75313 35.70625Q186.45625 35.065624 186.64375 33.753124ZM193.70625 35.971874L193.95625 37.534374Q193.22188 37.690624 192.62813 37.690624Q191.675 37.690624 191.14375 37.39375Q190.62813 37.08125 190.40938 36.596874Q190.19063 36.096874 190.19063 34.51875L190.19063 28.55L188.90938 28.55L188.90938 27.175L190.19063 27.175L190.19063 24.6125L191.94063 23.55L191.94063 27.175L193.70625 27.175L193.70625 28.55L191.94063 28.55L191.94063 34.6125Q191.94063 35.3625 192.03438 35.58125Q192.12813 35.784374 192.33125 35.925Q192.55 36.05 192.94063 36.05Q193.22188 36.05 193.70625 35.971874ZM208.64375 33.753124L210.3625 33.971874Q210.08125 35.76875 208.90938 36.784374Q207.75313 37.784374 206.05 37.784374Q203.925 37.784374 202.62813 36.39375Q201.33125 35.003124 201.33125 32.409374Q201.33125 30.721874 201.87813 29.471874Q202.44063 28.20625 203.58125 27.58125Q204.72188 26.940624 206.06563 26.940624Q207.75313 26.940624 208.81563 27.8Q209.89375 28.659374 210.20625 30.221874L208.4875 30.4875Q208.25313 29.440624 207.62813 28.925Q207.00313 28.39375 206.12813 28.39375Q204.8 28.39375 203.97188 29.346874Q203.14375 30.3 203.14375 32.346874Q203.14375 34.440624 203.94063 35.39375Q204.7375 36.33125 206.03438 36.33125Q207.06563 36.33125 207.75313 35.70625Q208.45625 35.065624 208.64375 33.753124ZM211.22188 32.3625Q211.22188 29.4875 212.81563 28.096874Q214.15938 26.940624 216.08125 26.940624Q218.22188 26.940624 219.56563 28.346874Q220.925 29.753124 220.925 32.221874Q220.925 34.221874 220.33125 35.378124Q219.7375 36.51875 218.58125 37.159374Q217.44063 37.784374 216.08125 37.784374Q213.89375 37.784374 212.55 36.39375Q211.22188 34.9875 211.22188 32.3625ZM213.01875 32.3625Q213.01875 34.3625 213.87813 35.346874Q214.75313 36.33125 216.08125 36.33125Q217.39375 36.33125 218.25313 35.346874Q219.12813 34.346874 219.12813 32.3Q219.12813 30.378124 218.25313 29.39375Q217.37813 28.39375 216.08125 28.39375Q214.75313 28.39375 213.87813 29.39375Q213.01875 30.378124 213.01875 32.3625ZM229.59688 37.55L229.59688 36.2375Q228.6125 37.784374 226.69063 37.784374Q225.45625 37.784374 224.40938 37.096874Q223.37813 36.409374 222.8 35.190624Q222.2375 33.971874 222.2375 32.378124Q222.2375 30.815624 222.75313 29.55Q223.26875 28.284374 224.3 27.6125Q225.34688 26.940624 226.6125 26.940624Q227.55 26.940624 228.28438 27.346874Q229.01875 27.7375 229.4875 28.3625L229.4875 23.2375L231.22188 23.2375L231.22188 37.55L229.59688 37.55ZM224.03438 32.378124Q224.03438 34.3625 224.87813 35.346874Q225.72188 36.33125 226.8625 36.33125Q228.01875 36.33125 228.81563 35.39375Q229.62813 34.45625 229.62813 32.51875Q229.62813 30.39375 228.8 29.39375Q227.9875 28.39375 226.78438 28.39375Q225.6125 28.39375 224.81563 29.3625Q224.03438 30.315624 224.03438 32.378124ZM240.97188 34.20625L242.78438 34.440624Q242.3625 36.01875 241.19063 36.909374Q240.03438 37.784374 238.22188 37.784374Q235.95625 37.784374 234.6125 36.39375Q233.28438 34.9875 233.28438 32.45625Q233.28438 29.83125 234.62813 28.39375Q235.97188 26.940624 238.12813 26.940624Q240.20625 26.940624 241.51875 28.3625Q242.84688 29.76875 242.84688 32.346874Q242.84688 32.503124 242.83125 32.815624L235.09688 32.815624Q235.19063 34.51875 236.06563 35.425Q236.94063 36.33125 238.2375 36.33125Q239.20625 36.33125 239.87813 35.83125Q240.56563 35.315624 240.97188 34.20625ZM235.19063 31.3625L240.9875 31.3625Q240.87813 30.065624 240.33125 29.409374Q239.4875 28.39375 238.14375 28.39375Q236.94063 28.39375 236.1125 29.20625Q235.28438 30.003124 235.19063 31.3625ZM250.22188 32.3625Q250.22188 29.4875 251.81563 28.096874Q253.15938 26.940624 255.08125 26.940624Q257.22186 26.940624 258.5656 28.346874Q259.925 29.753124 259.925 32.221874Q259.925 34.221874 259.33124 35.378124Q258.7375 36.51875 257.58124 37.159374Q256.4406 37.784374 255.08125 37.784374Q252.89375 37.784374 251.55 36.39375Q250.22188 34.9875 250.22188 32.3625ZM252.01875 32.3625Q252.01875 34.3625 252.87813 35.346874Q253.75313 36.33125 255.08125 36.33125Q256.39374 36.33125 257.2531 35.346874Q258.1281 34.346874 258.1281 32.3Q258.1281 30.378124 257.2531 29.39375Q256.3781 28.39375 255.08125 28.39375Q253.75313 28.39375 252.87813 29.39375Q252.01875 30.378124 252.01875 32.3625ZM261.8625 37.55L261.8625 27.175L263.45624 27.175L263.45624 28.659374Q264.59686 26.940624 266.7531 26.940624Q267.6906 26.940624 268.47186 27.284374Q269.26874 27.6125 269.65936 28.159374Q270.05 28.70625 270.20624 29.45625Q270.3 29.95625 270.3 31.175L270.3 37.55L268.53436 37.55L268.53436 31.2375Q268.53436 30.159374 268.33124 29.628124Q268.1281 29.096874 267.59686 28.784374Q267.08124 28.471874 266.3781 28.471874Q265.2531 28.471874 264.4406 29.190624Q263.6281 29.89375 263.6281 31.878124L263.6281 37.55L261.8625 37.55ZM272.83124 37.55L272.83124 23.2375L274.58124 23.2375L274.58124 37.55L272.83124 37.55ZM276.78436 41.55L276.59686 39.89375Q277.175 40.05 277.59686 40.05Q278.1906 40.05 278.53436 39.846874Q278.89374 39.659374 279.1125 39.315624Q279.28436 39.05 279.65936 38.003124Q279.70624 37.846874 279.8156 37.565624L275.8781 27.175L277.76874 27.175L279.925 33.190624Q280.34686 34.33125 280.675 35.58125Q280.9875 34.378124 281.39374 33.221874L283.6125 27.175L285.3781 27.175L281.425 37.721874Q280.8 39.440624 280.4406 40.08125Q279.97186 40.95625 279.3625 41.346874Q278.76874 41.753124 277.925 41.753124Q277.40936 41.753124 276.78436 41.55ZM296.22186 41.753124Q294.76874 39.925 293.76874 37.471874Q292.76874 35.003124 292.76874 32.3625Q292.76874 30.034374 293.51874 27.909374Q294.39374 25.440624 296.22186 22.9875L297.4875 22.9875Q296.3 25.01875 295.925 25.89375Q295.33124 27.2375 294.9875 28.70625Q294.5656 30.534374 294.5656 32.378124Q294.5656 37.065624 297.4875 41.753124L296.22186 41.753124ZM300.01874 37.55L300.01874 23.2375L301.90936 23.2375L301.90936 30.33125L309.01874 23.2375L311.58124 23.2375L305.58124 29.034374L311.84686 37.55L309.34686 37.55L304.2531 30.3L301.90936 32.58125L301.90936 37.55L300.01874 37.55ZM314.4875 37.55L312.8625 37.55L312.8625 23.2375L314.6125 23.2375L314.6125 28.346874Q315.7375 26.940624 317.45624 26.940624Q318.40936 26.940624 319.26874 27.33125Q320.1281 27.721874 320.675 28.425Q321.22186 29.1125 321.53436 30.096874Q321.84686 31.08125 321.84686 32.20625Q321.84686 34.878124 320.53436 36.33125Q319.22186 37.784374 317.3781 37.784374Q315.53436 37.784374 314.4875 36.253124L314.4875 37.55ZM314.47186 32.284374Q314.47186 34.14375 314.97186 34.9875Q315.8156 36.33125 317.22186 36.33125Q318.3781 36.33125 319.20624 35.33125Q320.05 34.33125 320.05 32.346874Q320.05 30.315624 319.2375 29.3625Q318.4406 28.39375 317.3 28.39375Q316.14374 28.39375 315.3 29.39375Q314.47186 30.39375 314.47186 32.284374ZM325.01874 41.753124L323.76874 41.753124Q326.675 37.065624 326.675 32.378124Q326.675 30.534374 326.26874 28.7375Q325.925 27.26875 325.33124 25.925Q324.95624 25.034374 323.76874 22.9875L325.01874 22.9875Q326.8625 25.440624 327.7375 27.909374Q328.4875 30.034374 328.4875 32.3625Q328.4875 35.003124 327.47186 37.471874Q326.47186 39.925 325.01874 41.753124Z" fill-rule="nonzero"/></svg>