<svg version="1.1" viewBox="0.0 0.0 600.0 371.0" fill="none" stroke="none" stroke-linecap="square" stroke-miterlimit="10" width="600" height="371" xmlns:xlink="http://www.w3.org/1999/xlink" xmlns="http://www.w3.org/2000/svg"><path fill="#ffffff" d="M0 0L600.0 0L600.0 371.0L0 371.0L0 0Z" fill-rule="nonzero"/><path stroke="#333333" stroke-width="1.0" stroke-linecap="butt" d="M45.5 332.5L581.5 332.5" fill-rule="nonzero"/><path stroke="#cccccc" stroke-width="1.0" stroke-linecap="butt" d="M45.5 271.5L581.5 271.5" fill-rule="nonzero"/><path stroke="#cccccc" stroke-width="1.0" stroke-linecap="butt" d="M45.5 210.5L581.5 210.5" fill-rule="nonzero"/><path stroke="#cccccc" stroke-width="1.0" stroke-linecap="butt" d="M45.5 149.5L581.5 149.5" fill-rule="nonzero"/><path stroke="#cccccc" stroke-width="1.0" stroke-linecap="butt" d="M45.5 88.5L581.5 88.5" fill-rule="nonzero"/><clipPath id="id_0"><path d="M45.55 88.28333L581.45 88.28333L581.45 332.45L45.55 332.45L45.55 88.28333Z" clip-rule="nonzero"/></clipPath><path stroke="#000000" stroke-width="2.0" stroke-linecap="butt" stroke-opacity="0.0" clip-path="url(#id_0)" d="M131.0 332.0L76.0 332.0L76.0 312.0L131.0 312.0Z" fill-rule="nonzero"/><path fill="#4285f4" clip-path="url(#id_0)" d="M131.0 332.0L76.0 332.0L76.0 312.0L131.0 312.0Z" fill-rule="nonzero"/><path stroke="#000000" stroke-width="2.0" stroke-linecap="butt" stroke-opacity="0.0" clip-path="url(#id_0)" d="M215.0 332.0L160.0 332.0L160.0 286.0L215.0 286.0Z" fill-rule="nonzero"/><path fill="#4285f4" clip-path="url(#id_0)" d="M215.0 332.0L160.0 332.0L160.0 286.0L215.0 286.0Z" fill-rule="nonzero"/><path stroke="#000000" stroke-width="2.0" stroke-linecap="butt" stroke-opacity="0.0" clip-path="url(#id_0)" d="M299.0 332.0L244.0 332.0L244.0 313.0L299.0 313.0Z" fill-rule="nonzero"/><path fill="#4285f4" clip-path="url(#id_0)" d="M299.0 332.0L244.0 332.0L244.0 313.0L299.0 313.0Z" fill-rule="nonzero"/><path stroke="#000000" stroke-width="2.0" stroke-linecap="butt" stroke-opacity="0.0" clip-path="url(#id_0)" d="M384.0 332.0L329.0 332.0L329.0 323.0L384.0 323.0Z" fill-rule="nonzero"/><path fill="#4285f4" clip-path="url(#id_0)" d="M384.0 332.0L329.0 332.0L329.0 323.0L384.0 323.0Z" fill-rule="nonzero"/><path stroke="#000000" stroke-width="2.0" stroke-linecap="butt" stroke-opacity="0.0" clip-path="url(#id_0)" d="M468.0 332.0L413.0 332.0L413.0 322.0L468.0 322.0Z" fill-rule="nonzero"/><path fill="#4285f4" clip-path="url(#id_0)" d="M468.0 332.0L413.0 332.0L413.0 322.0L468.0 322.0Z" fill-rule="nonzero"/><path stroke="#000000" stroke-width="2.0" stroke-linecap="butt" stroke-opacity="0.0" clip-path="url(#id_0)" d="M552.0 332.0L497.0 332.0L497.0 316.0L552.0 316.0Z" fill-rule="nonzero"/><path fill="#4285f4" clip-path="url(#id_0)" d="M552.0 332.0L497.0 332.0L497.0 316.0L552.0 316.0Z" fill-rule="nonzero"/><path stroke="#000000" stroke-width="2.0" stroke-linecap="butt" stroke-opacity="0.0" clip-path="url(#id_0)" d="M131.0 312.0L76.0 312.0L76.0 302.0C76.0 300.89542 76.89543 300.0 78.0 300.0L129.0 300.0C130.10457 300.0 131.0 300.89542 131.0 302.0Z" fill-rule="nonzero"/><path fill="#a4c2f4" clip-path="url(#id_0)" d="M131.0 312.0L76.0 312.0L76.0 302.0C76.0 300.89542 76.89543 300.0 78.0 300.0L129.0 300.0C130.10457 300.0 131.0 300.89542 131.0 302.0Z" fill-rule="nonzero"/><path stroke="#000000" stroke-width="2.0" stroke-linecap="butt" stroke-opacity="0.0" clip-path="url(#id_0)" d="M215.0 286.0L160.0 286.0L160.0 149.0C160.0 147.89543 160.89543 147.0 162.0 147.0L213.0 147.0C214.10457 147.0 215.0 147.89543 215.0 149.0Z" fill-rule="nonzero"/><path fill="#a4c2f4" clip-path="url(#id_0)" d="M215.0 286.0L160.0 286.0L160.0 149.0C160.0 147.89543 160.89543 147.0 162.0 147.0L213.0 147.0C214.10457 147.0 215.0 147.89543 215.0 149.0Z" fill-rule="nonzero"/><path stroke="#000000" stroke-width="2.0" stroke-linecap="butt" stroke-opacity="0.0" clip-path="url(#id_0)" d="M299.0 313.0L244.0 313.0L244.0 305.0C244.0 303.89542 244.89543 303.0 246.0 303.0L297.0 303.0C298.10458 303.0 299.0 303.89542 299.0 305.0Z" fill-rule="nonzero"/><path fill="#a4c2f4" clip-path="url(#id_0)" d="M299.0 313.0L244.0 313.0L244.0 305.0C244.0 303.89542 244.89543 303.0 246.0 303.0L297.0 303.0C298.10458 303.0 299.0 303.89542 299.0 305.0Z" fill-rule="nonzero"/><path stroke="#000000" stroke-width="2.0" stroke-linecap="butt" stroke-opacity="0.0" clip-path="url(#id_0)" d="M384.0 323.0L329.0 323.0L329.0 323.0L384.0 323.0Z" fill-rule="nonzero"/><path fill="#a4c2f4" clip-path="url(#id_0)" d="M384.0 323.0L329.0 323.0L329.0 323.0L384.0 323.0Z" fill-rule="nonzero"/><path stroke="#000000" stroke-width="2.0" stroke-linecap="butt" stroke-opacity="0.0" clip-path="url(#id_0)" d="M468.0 322.0L413.0 322.0L413.0 322.0L468.0 322.0Z" fill-rule="nonzero"/><path fill="#a4c2f4" clip-path="url(#id_0)" d="M468.0 322.0L413.0 322.0L413.0 322.0L468.0 322.0Z" fill-rule="nonzero"/><path stroke="#000000" stroke-width="2.0" stroke-linecap="butt" stroke-opacity="0.0" clip-path="url(#id_0)" d="M552.0 316.0L497.0 316.0L497.0 316.0L552.0 316.0Z" fill-rule="nonzero"/><path fill="#a4c2f4" clip-path="url(#id_0)" d="M552.0 316.0L497.0 316.0L497.0 316.0L552.0 316.0Z" fill-rule="nonzero"/><path fill="#000000" d="M33.05 332.21564Q33.05 330.6844 33.3625 329.7625Q33.675 328.825 34.284374 328.325Q34.909374 327.825 35.846874 327.825Q36.534374 327.825 37.05 328.10626Q37.58125 328.3875 37.925 328.91876Q38.26875 329.4344 38.45625 330.1844Q38.64375 330.9344 38.64375 332.21564Q38.64375 333.73126 38.33125 334.65314Q38.034374 335.575 37.409374 336.09064Q36.8 336.59064 35.846874 336.59064Q34.6125 336.59064 33.89375 335.7Q33.05 334.6375 33.05 332.21564ZM34.128124 332.21564Q34.128124 334.325 34.628124 335.02814Q35.128124 335.73126 35.846874 335.73126Q36.58125 335.73126 37.065624 335.02814Q37.565624 334.325 37.565624 332.21564Q37.565624 330.09064 37.065624 329.40314Q36.58125 328.7 35.83125 328.7Q35.1125 328.7 34.675 329.3094Q34.128124 330.09064 34.128124 332.21564Z" fill-rule="nonzero"/><path fill="#000000" d="M26.05 273.15833L27.159374 273.06458Q27.284374 273.87708 27.721874 274.28333Q28.175 274.68958 28.815624 274.68958Q29.565624 274.68958 30.096874 274.11145Q30.628124 273.53333 30.628124 272.59583Q30.628124 271.68958 30.1125 271.17395Q29.6125 270.6427 28.784374 270.6427Q28.284374 270.6427 27.8625 270.87708Q27.45625 271.11145 27.221874 271.47083L26.2375 271.34583L27.065624 266.93958L31.346874 266.93958L31.346874 267.93958L27.909374 267.93958L27.45625 270.25208Q28.221874 269.7052 29.065624 269.7052Q30.190624 269.7052 30.95625 270.48645Q31.7375 271.2677 31.7375 272.50208Q31.7375 273.65833 31.065624 274.5177Q30.2375 275.54895 28.815624 275.54895Q27.64375 275.54895 26.89375 274.8927Q26.159374 274.23645 26.05 273.15833ZM33.05 271.17395Q33.05 269.6427 33.3625 268.72083Q33.675 267.78333 34.284374 267.28333Q34.909374 266.78333 35.846874 266.78333Q36.534374 266.78333 37.05 267.06458Q37.58125 267.34583 37.925 267.87708Q38.26875 268.3927 38.45625 269.1427Q38.64375 269.8927 38.64375 271.17395Q38.64375 272.68958 38.33125 273.61145Q38.034374 274.53333 37.409374 275.04895Q36.8 275.54895 35.846874 275.54895Q34.6125 275.54895 33.89375 274.65833Q33.05 273.59583 33.05 271.17395ZM34.128124 271.17395Q34.128124 273.28333 34.628124 273.98645Q35.128124 274.68958 35.846874 274.68958Q36.58125 274.68958 37.065624 273.98645Q37.565624 273.28333 37.565624 271.17395Q37.565624 269.04895 37.065624 268.36145Q36.58125 267.65833 35.83125 267.65833Q35.1125 267.65833 34.675 268.2677Q34.128124 269.04895 34.128124 271.17395Z" fill-rule="nonzero"/><path fill="#000000" d="M23.01875 214.36667L21.971874 214.36667L21.971874 207.64792Q21.58125 208.0073 20.95625 208.3823Q20.346874 208.74167 19.8625 208.91354L19.8625 207.89792Q20.7375 207.47604 21.39375 206.89792Q22.065624 206.30417 22.346874 205.74167L23.01875 205.74167L23.01875 214.36667ZM26.05 210.1323Q26.05 208.60104 26.3625 207.67917Q26.675 206.74167 27.284374 206.24167Q27.909374 205.74167 28.846874 205.74167Q29.534374 205.74167 30.05 206.02292Q30.58125 206.30417 30.925 206.83542Q31.26875 207.35104 31.45625 208.10104Q31.64375 208.85104 31.64375 210.1323Q31.64375 211.64792 31.33125 212.5698Q31.034374 213.49167 30.409374 214.0073Q29.8 214.5073 28.846874 214.5073Q27.6125 214.5073 26.89375 213.61667Q26.05 212.55417 26.05 210.1323ZM27.128124 210.1323Q27.128124 212.24167 27.628124 212.9448Q28.128124 213.64792 28.846874 213.64792Q29.58125 213.64792 30.065624 212.9448Q30.565624 212.24167 30.565624 210.1323Q30.565624 208.0073 30.065624 207.3198Q29.58125 206.61667 28.83125 206.61667Q28.1125 206.61667 27.675 207.22604Q27.128124 208.0073 27.128124 210.1323ZM33.05 210.1323Q33.05 208.60104 33.3625 207.67917Q33.675 206.74167 34.284374 206.24167Q34.909374 205.74167 35.846874 205.74167Q36.534374 205.74167 37.05 206.02292Q37.58125 206.30417 37.925 206.83542Q38.26875 207.35104 38.45625 208.10104Q38.64375 208.85104 38.64375 210.1323Q38.64375 211.64792 38.33125 212.5698Q38.034374 213.49167 37.409374 214.0073Q36.8 214.5073 35.846874 214.5073Q34.6125 214.5073 33.89375 213.61667Q33.05 212.55417 33.05 210.1323ZM34.128124 210.1323Q34.128124 212.24167 34.628124 212.9448Q35.128124 213.64792 35.846874 213.64792Q36.58125 213.64792 37.065624 212.9448Q37.565624 212.24167 37.565624 210.1323Q37.565624 208.0073 37.065624 207.3198Q36.58125 206.61667 35.83125 206.61667Q35.1125 206.61667 34.675 207.22604Q34.128124 208.0073 34.128124 210.1323Z" fill-rule="nonzero"/><path fill="#000000" d="M23.01875 153.325L21.971874 153.325L21.971874 146.60625Q21.58125 146.96562 20.95625 147.34062Q20.346874 147.7 19.8625 147.87187L19.8625 146.85625Q20.7375 146.43437 21.39375 145.85625Q22.065624 145.2625 22.346874 144.7L23.01875 144.7L23.01875 153.325ZM26.05 151.075L27.159374 150.98125Q27.284374 151.79375 27.721874 152.2Q28.175 152.60625 28.815624 152.60625Q29.565624 152.60625 30.096874 152.02812Q30.628124 151.45 30.628124 150.5125Q30.628124 149.60625 30.1125 149.09062Q29.6125 148.55937 28.784374 148.55937Q28.284374 148.55937 27.8625 148.79375Q27.45625 149.02812 27.221874 149.3875L26.2375 149.2625L27.065624 144.85625L31.346874 144.85625L31.346874 145.85625L27.909374 145.85625L27.45625 148.16875Q28.221874 147.62187 29.065624 147.62187Q30.190624 147.62187 30.95625 148.40312Q31.7375 149.18437 31.7375 150.41875Q31.7375 151.575 31.065624 152.43437Q30.2375 153.46562 28.815624 153.46562Q27.64375 153.46562 26.89375 152.80937Q26.159374 152.15312 26.05 151.075ZM33.05 149.09062Q33.05 147.55937 33.3625 146.6375Q33.675 145.7 34.284374 145.2Q34.909374 144.7 35.846874 144.7Q36.534374 144.7 37.05 144.98125Q37.58125 145.2625 37.925 145.79375Q38.26875 146.30937 38.45625 147.05937Q38.64375 147.80937 38.64375 149.09062Q38.64375 150.60625 38.33125 151.52812Q38.034374 152.45 37.409374 152.96562Q36.8 153.46562 35.846874 153.46562Q34.6125 153.46562 33.89375 152.575Q33.05 151.5125 33.05 149.09062ZM34.128124 149.09062Q34.128124 151.2 34.628124 151.90312Q35.128124 152.60625 35.846874 152.60625Q36.58125 152.60625 37.065624 151.90312Q37.565624 151.2 37.565624 149.09062Q37.565624 146.96562 37.065624 146.27812Q36.58125 145.575 35.83125 145.575Q35.1125 145.575 34.675 146.18437Q34.128124 146.96562 34.128124 149.09062Z" fill-rule="nonzero"/><path fill="#000000" d="M24.596874 91.26771L24.596874 92.28333L18.909374 92.28333Q18.909374 91.90833 19.034374 91.54896Q19.253124 90.97083 19.721874 90.40833Q20.20625 89.84583 21.1125 89.11146Q22.51875 87.95521 23.003124 87.28333Q23.503124 86.61146 23.503124 86.01771Q23.503124 85.39271 23.05 84.97083Q22.596874 84.53333 21.878124 84.53333Q21.1125 84.53333 20.659374 84.98646Q20.20625 85.43958 20.190624 86.25208L19.1125 86.14271Q19.221874 84.92396 19.940624 84.29896Q20.675 83.65833 21.909374 83.65833Q23.14375 83.65833 23.8625 84.34583Q24.58125 85.03333 24.58125 86.04896Q24.58125 86.56458 24.3625 87.06458Q24.159374 87.54896 23.659374 88.11146Q23.175 88.65833 22.05 89.61146Q21.096874 90.40833 20.815624 90.70521Q20.55 90.98646 20.378124 91.26771L24.596874 91.26771ZM26.05 88.04896Q26.05 86.51771 26.3625 85.59583Q26.675 84.65833 27.284374 84.15833Q27.909374 83.65833 28.846874 83.65833Q29.534374 83.65833 30.05 83.93958Q30.58125 84.22083 30.925 84.75208Q31.26875 85.26771 31.45625 86.01771Q31.64375 86.76771 31.64375 88.04896Q31.64375 89.56458 31.33125 90.48646Q31.034374 91.40833 30.409374 91.92396Q29.8 92.42396 28.846874 92.42396Q27.6125 92.42396 26.89375 91.53333Q26.05 90.47083 26.05 88.04896ZM27.128124 88.04896Q27.128124 90.15833 27.628124 90.86146Q28.128124 91.56458 28.846874 91.56458Q29.58125 91.56458 30.065624 90.86146Q30.565624 90.15833 30.565624 88.04896Q30.565624 85.92396 30.065624 85.23646Q29.58125 84.53333 28.83125 84.53333Q28.1125 84.53333 27.675 85.14271Q27.128124 85.92396 27.128124 88.04896ZM33.05 88.04896Q33.05 86.51771 33.3625 85.59583Q33.675 84.65833 34.284374 84.15833Q34.909374 83.65833 35.846874 83.65833Q36.534374 83.65833 37.05 83.93958Q37.58125 84.22083 37.925 84.75208Q38.26875 85.26771 38.45625 86.01771Q38.64375 86.76771 38.64375 88.04896Q38.64375 89.56458 38.33125 90.48646Q38.034374 91.40833 37.409374 91.92396Q36.8 92.42396 35.846874 92.42396Q34.6125 92.42396 33.89375 91.53333Q33.05 90.47083 33.05 88.04896ZM34.128124 88.04896Q34.128124 90.15833 34.628124 90.86146Q35.128124 91.56458 35.846874 91.56458Q36.58125 91.56458 37.065624 90.86146Q37.565624 90.15833 37.565624 88.04896Q37.565624 85.92396 37.065624 85.23646Q36.58125 84.53333 35.83125 84.53333Q35.1125 84.53333 34.675 85.14271Q34.128124 85.92396 34.128124 88.04896Z" fill-rule="nonzero"/><path fill="#000000" d="M84.43762 349.45L84.43762 340.85626L87.68762 340.85626Q88.53137 340.85626 88.9845 340.9344Q89.62512 341.04376 90.047 341.34064Q90.4845 341.6375 90.7345 342.16876Q91.00012 342.7 91.00012 343.34064Q91.00012 344.4344 90.297 345.2Q89.6095 345.95 87.78137 345.95L85.57825 345.95L85.57825 349.45L84.43762 349.45ZM85.57825 344.95L87.797 344.95Q88.90637 344.95 89.3595 344.54376Q89.82825 344.1219 89.82825 343.3719Q89.82825 342.84064 89.547 342.46564Q89.28137 342.075 88.84387 341.95Q88.547 341.8719 87.78137 341.8719L85.57825 341.8719L85.57825 344.95ZM92.26575 351.84064L92.14075 350.85626Q92.4845 350.95 92.75012 350.95Q93.09387 350.95 93.297 350.825Q93.51575 350.71564 93.65637 350.5125Q93.75012 350.34064 93.9845 349.71564Q94.00012 349.6375 94.07825 349.46564L91.70325 343.23126L92.84387 343.23126L94.14075 346.825Q94.39075 347.5125 94.59387 348.27814Q94.78137 347.54376 95.03137 346.85626L96.3595 343.23126L97.40637 343.23126L95.047 349.5594Q94.65637 350.575 94.45325 350.96564Q94.172 351.4969 93.797 351.73126Q93.43762 351.98126 92.93762 351.98126Q92.64075 351.98126 92.26575 351.84064ZM100.6095 348.5125L100.76575 349.4344Q100.31262 349.52814 99.96887 349.52814Q99.39075 349.52814 99.07825 349.35626Q98.76575 349.16876 98.62512 348.8719Q98.50012 348.575 98.50012 347.6219L98.50012 344.04376L97.7345 344.04376L97.7345 343.23126L98.50012 343.23126L98.50012 341.6844L99.547 341.0594L99.547 343.23126L100.6095 343.23126L100.6095 344.04376L99.547 344.04376L99.547 347.6844Q99.547 348.1375 99.59387 348.2625Q99.65637 348.3875 99.78137 348.46564Q99.90637 348.54376 100.14075 348.54376Q100.32825 348.54376 100.6095 348.5125ZM101.31262 349.45L101.31262 340.85626L102.3595 340.85626L102.3595 343.9344Q103.09387 343.09064 104.21887 343.09064Q104.922 343.09064 105.422 343.3719Q105.93762 343.6375 106.15637 344.1219Q106.37512 344.59064 106.37512 345.5125L106.37512 349.45L105.32825 349.45L105.32825 345.5125Q105.32825 344.71564 104.9845 344.35626Q104.64075 343.9969 104.01575 343.9969Q103.547 343.9969 103.12512 344.2469Q102.71887 344.48126 102.53137 344.90314Q102.3595 345.3094 102.3595 346.04376L102.3595 349.45L101.31262 349.45ZM107.922 346.34064Q107.922 344.60626 108.87512 343.77814Q109.672 343.09064 110.82825 343.09064Q112.1095 343.09064 112.922 343.9344Q113.75012 344.7625 113.75012 346.2469Q113.75012 347.45 113.39075 348.1375Q113.03137 348.825 112.32825 349.21564Q111.64075 349.59064 110.82825 349.59064Q109.53137 349.59064 108.71887 348.7625Q107.922 347.91876 107.922 346.34064ZM109.00012 346.34064Q109.00012 347.52814 109.51575 348.1219Q110.047 348.71564 110.82825 348.71564Q111.62512 348.71564 112.14075 348.1219Q112.65637 347.52814 112.65637 346.3094Q112.65637 345.15314 112.12512 344.5594Q111.6095 343.96564 110.82825 343.96564Q110.047 343.96564 109.51575 344.5594Q109.00012 345.1375 109.00012 346.34064ZM115.31262 349.45L115.31262 343.23126L116.25012 343.23126L116.25012 344.10626Q116.93762 343.09064 118.2345 343.09064Q118.797 343.09064 119.26575 343.29376Q119.75012 343.4969 119.9845 343.825Q120.21887 344.15314 120.31262 344.59064Q120.3595 344.8875 120.3595 345.6219L120.3595 349.45L119.31262 349.45L119.31262 345.66876Q119.31262 345.0125 119.18762 344.7Q119.06262 344.3875 118.75012 344.2Q118.43762 343.9969 118.01575 343.9969Q117.34387 343.9969 116.84387 344.4344Q116.3595 344.85626 116.3595 346.04376L116.3595 349.45L115.31262 349.45Z" fill-rule="nonzero"/><path fill="#000000" d="M178.64383 349.45L178.64383 348.3875L183.05008 342.8875Q183.51883 342.3094 183.9407 341.8719L179.14383 341.8719L179.14383 340.85626L185.30008 340.85626L185.30008 341.8719L180.47195 347.825L179.95633 348.4344L185.4407 348.4344L185.4407 349.45L178.64383 349.45ZM186.20633 342.075L186.20633 340.85626L187.26883 340.85626L187.26883 342.075L186.20633 342.075ZM186.20633 349.45L186.20633 343.23126L187.26883 343.23126L187.26883 349.45L186.20633 349.45ZM189.0032 349.96564L190.03445 350.1219Q190.09695 350.59064 190.39383 350.8094Q190.78445 351.10626 191.45633 351.10626Q192.1907 351.10626 192.58133 350.8094Q192.98758 350.5125 193.1282 349.9969Q193.22195 349.66876 193.20633 348.6375Q192.51883 349.45 191.48758 349.45Q190.20633 349.45 189.5032 348.52814Q188.80008 347.59064 188.80008 346.3094Q188.80008 345.41876 189.11258 344.66876Q189.4407 343.90314 190.05008 343.4969Q190.65945 343.09064 191.48758 343.09064Q192.59695 343.09064 193.3157 343.98126L193.3157 343.23126L194.28445 343.23126L194.28445 348.60626Q194.28445 350.0594 193.98758 350.66876Q193.6907 351.27814 193.05008 351.6219Q192.40945 351.98126 191.47195 351.98126Q190.36258 351.98126 189.67508 351.48126Q188.98758 350.98126 189.0032 349.96564ZM189.8782 346.23126Q189.8782 347.45 190.36258 348.0125Q190.84695 348.575 191.58133 348.575Q192.3157 348.575 192.80008 348.0125Q193.30008 347.45 193.30008 346.2625Q193.30008 345.1219 192.78445 344.54376Q192.28445 343.96564 191.5657 343.96564Q190.86258 343.96564 190.36258 344.54376Q189.8782 345.10626 189.8782 346.23126Z" fill-rule="nonzero"/><path fill="#000000" d="M243.1469 347.0125L244.17815 346.8719Q244.2094 347.85626 244.53752 348.21564Q244.86565 348.575 245.4594 348.575Q245.88127 348.575 246.19377 348.3875Q246.50627 348.1844 246.61565 347.85626Q246.74065 347.5125 246.74065 346.77814L246.74065 340.85626L247.86565 340.85626L247.86565 346.71564Q247.86565 347.79376 247.60002 348.3875Q247.35002 348.98126 246.78752 349.29376Q246.22502 349.59064 245.4594 349.59064Q244.3344 349.59064 243.72502 348.95Q243.13127 348.29376 243.1469 347.0125ZM253.66252 348.6844Q253.06877 349.1844 252.5219 349.3875Q251.99065 349.59064 251.36565 349.59064Q250.3344 349.59064 249.78752 349.09064Q249.24065 348.59064 249.24065 347.8094Q249.24065 347.35626 249.44377 346.98126Q249.6469 346.59064 249.99065 346.3719Q250.3344 346.1375 250.75627 346.02814Q251.05315 345.9344 251.69377 345.85626Q252.9594 345.71564 253.56877 345.4969Q253.56877 345.27814 253.56877 345.23126Q253.56877 344.575 253.2719 344.3094Q252.86565 343.96564 252.06877 343.96564Q251.3344 343.96564 250.97502 344.23126Q250.61565 344.48126 250.44377 345.1375L249.41252 344.9969Q249.55315 344.34064 249.88127 343.9344Q250.2094 343.52814 250.81877 343.3094Q251.42815 343.09064 252.22502 343.09064Q253.0219 343.09064 253.5219 343.27814Q254.0219 343.46564 254.25627 343.7469Q254.49065 344.02814 254.5844 344.46564Q254.63127 344.73126 254.63127 345.4344L254.63127 346.84064Q254.63127 348.3094 254.69377 348.7Q254.7719 349.09064 254.97502 349.45L253.86565 349.45Q253.7094 349.1219 253.66252 348.6844ZM253.56877 346.325Q252.99065 346.5594 251.85002 346.73126Q251.19377 346.825 250.92815 346.95Q250.66252 347.0594 250.50627 347.27814Q250.36565 347.4969 250.36565 347.77814Q250.36565 348.2 250.67815 348.48126Q251.00627 348.7625 251.61565 348.7625Q252.22502 348.7625 252.69377 348.4969Q253.17815 348.23126 253.3969 347.7625Q253.56877 347.40314 253.56877 346.71564L253.56877 346.325ZM258.3188 349.45L255.9594 343.23126L257.0688 343.23126L258.41254 346.95Q258.61566 347.5594 258.80316 348.2Q258.9438 347.71564 259.1938 347.02814L260.5844 343.23126L261.66254 343.23126L259.30316 349.45L258.3188 349.45ZM266.66254 348.6844Q266.0688 349.1844 265.5219 349.3875Q264.99066 349.59064 264.36566 349.59064Q263.3344 349.59064 262.78754 349.09064Q262.24066 348.59064 262.24066 347.8094Q262.24066 347.35626 262.4438 346.98126Q262.6469 346.59064 262.99066 346.3719Q263.3344 346.1375 263.7563 346.02814Q264.05316 345.9344 264.6938 345.85626Q265.9594 345.71564 266.5688 345.4969Q266.5688 345.27814 266.5688 345.23126Q266.5688 344.575 266.2719 344.3094Q265.86566 343.96564 265.0688 343.96564Q264.3344 343.96564 263.97504 344.23126Q263.61566 344.48126 263.4438 345.1375L262.41254 344.9969Q262.55316 344.34064 262.8813 343.9344Q263.2094 343.52814 263.8188 343.3094Q264.42816 343.09064 265.22504 343.09064Q266.0219 343.09064 266.5219 343.27814Q267.0219 343.46564 267.2563 343.7469Q267.49066 344.02814 267.5844 344.46564Q267.6313 344.73126 267.6313 345.4344L267.6313 346.84064Q267.6313 348.3094 267.6938 348.7Q267.7719 349.09064 267.97504 349.45L266.86566 349.45Q266.7094 349.1219 266.66254 348.6844ZM266.5688 346.325Q265.99066 346.5594 264.85004 346.73126Q264.1938 346.825 263.92816 346.95Q263.66254 347.0594 263.5063 347.27814Q263.36566 347.4969 263.36566 347.77814Q263.36566 348.2 263.67816 348.48126Q264.0063 348.7625 264.61566 348.7625Q265.22504 348.7625 265.6938 348.4969Q266.17816 348.23126 266.3969 347.7625Q266.5688 347.40314 266.5688 346.71564L266.5688 346.325ZM269.35004 346.6844L270.41254 346.59064Q270.49066 347.2469 270.7719 347.65314Q271.05316 348.0594 271.6313 348.325Q272.22504 348.575 272.9594 348.575Q273.60004 348.575 274.10004 348.3875Q274.60004 348.1844 274.8344 347.85626Q275.0844 347.5125 275.0844 347.1219Q275.0844 346.71564 274.85004 346.41876Q274.61566 346.10626 274.0844 345.90314Q273.72504 345.7625 272.53754 345.48126Q271.36566 345.2 270.8969 344.95Q270.2719 344.6219 269.97504 344.15314Q269.67816 343.66876 269.67816 343.075Q269.67816 342.4344 270.03754 341.8719Q270.41254 341.29376 271.11566 341.0125Q271.8344 340.71564 272.6938 340.71564Q273.6469 340.71564 274.3813 341.02814Q275.11566 341.325 275.5063 341.9344Q275.8969 342.52814 275.92816 343.27814L274.8344 343.35626Q274.74066 342.54376 274.22504 342.1375Q273.72504 341.71564 272.74066 341.71564Q271.7094 341.71564 271.24066 342.09064Q270.7719 342.46564 270.7719 342.9969Q270.7719 343.46564 271.10004 343.7625Q271.42816 344.0594 272.80316 344.3719Q274.1938 344.6844 274.7094 344.91876Q275.4594 345.27814 275.8188 345.8094Q276.17816 346.325 276.17816 347.02814Q276.17816 347.71564 275.78754 348.325Q275.3969 348.91876 274.66254 349.2625Q273.92816 349.59064 273.0063 349.59064Q271.8344 349.59064 271.03754 349.2625Q270.2563 348.91876 269.80316 348.23126Q269.36566 347.54376 269.35004 346.6844ZM281.66254 347.16876L282.6938 347.3094Q282.5219 348.3719 281.8188 348.98126Q281.11566 349.59064 280.10004 349.59064Q278.8188 349.59064 278.03754 348.7625Q277.2719 347.91876 277.2719 346.35626Q277.2719 345.35626 277.60004 344.60626Q277.9438 343.84064 278.61566 343.46564Q279.30316 343.09064 280.11566 343.09064Q281.11566 343.09064 281.7563 343.60626Q282.41254 344.10626 282.60004 345.0594L281.5688 345.21564Q281.42816 344.59064 281.05316 344.27814Q280.67816 343.95 280.1469 343.95Q279.35004 343.95 278.85004 344.52814Q278.35004 345.09064 278.35004 346.325Q278.35004 347.59064 278.8344 348.15314Q279.3188 348.71564 280.0844 348.71564Q280.7094 348.71564 281.11566 348.34064Q281.53754 347.96564 281.66254 347.16876ZM283.5844 349.45L283.5844 343.23126L284.53754 343.23126L284.53754 344.16876Q284.8969 343.5125 285.1938 343.3094Q285.5063 343.09064 285.8813 343.09064Q286.41254 343.09064 286.9594 343.41876L286.60004 344.40314Q286.2094 344.16876 285.8344 344.16876Q285.47504 344.16876 285.1938 344.3875Q284.92816 344.59064 284.8188 344.96564Q284.6313 345.52814 284.6313 346.1844L284.6313 349.45L283.5844 349.45ZM287.60004 342.075L287.60004 340.85626L288.66254 340.85626L288.66254 342.075L287.60004 342.075ZM287.60004 349.45L287.60004 343.23126L288.66254 343.23126L288.66254 349.45L287.60004 349.45ZM290.60004 351.84064L290.60004 343.23126L291.55316 343.23126L291.55316 344.02814Q291.8969 343.5594 292.3188 343.325Q292.7563 343.09064 293.36566 343.09064Q294.16254 343.09064 294.7719 343.4969Q295.3813 343.90314 295.67816 344.65314Q295.99066 345.40314 295.99066 346.29376Q295.99066 347.2469 295.6469 348.0125Q295.3188 348.77814 294.66254 349.1844Q294.0063 349.59064 293.28754 349.59064Q292.7563 349.59064 292.3344 349.3719Q291.91254 349.1375 291.6469 348.8094L291.6469 351.84064L290.60004 351.84064ZM291.55316 346.3719Q291.55316 347.575 292.03754 348.15314Q292.5219 348.71564 293.2094 348.71564Q293.91254 348.71564 294.41254 348.1219Q294.91254 347.52814 294.91254 346.27814Q294.91254 345.09064 294.42816 344.5125Q293.9438 343.91876 293.2563 343.91876Q292.5844 343.91876 292.0688 344.54376Q291.55316 345.16876 291.55316 346.3719ZM299.8969 348.5125L300.05316 349.4344Q299.60004 349.52814 299.2563 349.52814Q298.67816 349.52814 298.36566 349.35626Q298.05316 349.16876 297.91254 348.8719Q297.78754 348.575 297.78754 347.6219L297.78754 344.04376L297.0219 344.04376L297.0219 343.23126L297.78754 343.23126L297.78754 341.6844L298.8344 341.0594L298.8344 343.23126L299.8969 343.23126L299.8969 344.04376L298.8344 344.04376L298.8344 347.6844Q298.8344 348.1375 298.8813 348.2625Q298.9438 348.3875 299.0688 348.46564Q299.1938 348.54376 299.42816 348.54376Q299.61566 348.54376 299.8969 348.5125Z" fill-rule="nonzero"/><path fill="#000000" d="M334.77496 345.2625Q334.77496 343.1219 335.9156 341.91876Q337.07184 340.7 338.88434 340.7Q340.08746 340.7 341.0406 341.27814Q341.9937 341.84064 342.4937 342.85626Q342.9937 343.8719 342.9937 345.16876Q342.9937 346.46564 342.46246 347.4969Q341.9312 348.52814 340.96246 349.0594Q340.00934 349.59064 338.88434 349.59064Q337.6656 349.59064 336.71246 349.0125Q335.75934 348.41876 335.25934 347.41876Q334.77496 346.40314 334.77496 345.2625ZM335.94684 345.27814Q335.94684 346.84064 336.77496 347.73126Q337.6187 348.6219 338.88434 348.6219Q340.1656 348.6219 340.9937 347.73126Q341.82184 346.825 341.82184 345.15314Q341.82184 344.10626 341.46246 343.325Q341.1187 342.54376 340.4312 342.1219Q339.7437 341.6844 338.89996 341.6844Q337.69684 341.6844 336.82184 342.5125Q335.94684 343.34064 335.94684 345.27814ZM343.9781 349.45L343.9781 343.23126L344.9312 343.23126L344.9312 344.16876Q345.2906 343.5125 345.58746 343.3094Q345.89996 343.09064 346.27496 343.09064Q346.8062 343.09064 347.3531 343.41876L346.9937 344.40314Q346.6031 344.16876 346.2281 344.16876Q345.8687 344.16876 345.58746 344.3875Q345.32184 344.59064 345.21246 344.96564Q345.02496 345.52814 345.02496 346.1844L345.02496 349.45L343.9781 349.45ZM347.9937 342.075L347.9937 340.85626L349.0562 340.85626L349.0562 342.075L347.9937 342.075ZM347.9937 349.45L347.9937 343.23126L349.0562 343.23126L349.0562 349.45L347.9937 349.45ZM350.7906 349.96564L351.82184 350.1219Q351.88434 350.59064 352.1812 350.8094Q352.57184 351.10626 353.2437 351.10626Q353.9781 351.10626 354.3687 350.8094Q354.77496 350.5125 354.9156 349.9969Q355.00934 349.66876 354.9937 348.6375Q354.3062 349.45 353.27496 349.45Q351.9937 349.45 351.2906 348.52814Q350.58746 347.59064 350.58746 346.3094Q350.58746 345.41876 350.89996 344.66876Q351.2281 343.90314 351.83746 343.4969Q352.44684 343.09064 353.27496 343.09064Q354.38434 343.09064 355.1031 343.98126L355.1031 343.23126L356.07184 343.23126L356.07184 348.60626Q356.07184 350.0594 355.77496 350.66876Q355.4781 351.27814 354.83746 351.6219Q354.19684 351.98126 353.25934 351.98126Q352.14996 351.98126 351.46246 351.48126Q350.77496 350.98126 350.7906 349.96564ZM351.6656 346.23126Q351.6656 347.45 352.14996 348.0125Q352.63434 348.575 353.3687 348.575Q354.1031 348.575 354.58746 348.0125Q355.08746 347.45 355.08746 346.2625Q355.08746 345.1219 354.57184 344.54376Q354.07184 343.96564 353.3531 343.96564Q352.64996 343.96564 352.14996 344.54376Q351.6656 345.10626 351.6656 346.23126ZM362.0562 348.6844Q361.46246 349.1844 360.9156 349.3875Q360.38434 349.59064 359.75934 349.59064Q358.7281 349.59064 358.1812 349.09064Q357.63434 348.59064 357.63434 347.8094Q357.63434 347.35626 357.83746 346.98126Q358.0406 346.59064 358.38434 346.3719Q358.7281 346.1375 359.14996 346.02814Q359.44684 345.9344 360.08746 345.85626Q361.3531 345.71564 361.96246 345.4969Q361.96246 345.27814 361.96246 345.23126Q361.96246 344.575 361.6656 344.3094Q361.25934 343.96564 360.46246 343.96564Q359.7281 343.96564 359.3687 344.23126Q359.00934 344.48126 358.83746 345.1375L357.8062 344.9969Q357.94684 344.34064 358.27496 343.9344Q358.6031 343.52814 359.21246 343.3094Q359.82184 343.09064 360.6187 343.09064Q361.4156 343.09064 361.9156 343.27814Q362.4156 343.46564 362.64996 343.7469Q362.88434 344.02814 362.9781 344.46564Q363.02496 344.73126 363.02496 345.4344L363.02496 346.84064Q363.02496 348.3094 363.08746 348.7Q363.1656 349.09064 363.3687 349.45L362.25934 349.45Q362.1031 349.1219 362.0562 348.6844ZM361.96246 346.325Q361.38434 346.5594 360.2437 346.73126Q359.58746 346.825 359.32184 346.95Q359.0562 347.0594 358.89996 347.27814Q358.75934 347.4969 358.75934 347.77814Q358.75934 348.2 359.07184 348.48126Q359.39996 348.7625 360.00934 348.7625Q360.6187 348.7625 361.08746 348.4969Q361.57184 348.23126 361.7906 347.7625Q361.96246 347.40314 361.96246 346.71564L361.96246 346.325ZM364.9937 349.45L364.9937 343.23126L365.9312 343.23126L365.9312 344.10626Q366.2281 343.6375 366.71246 343.3719Q367.19684 343.09064 367.82184 343.09064Q368.50934 343.09064 368.94684 343.3719Q369.39996 343.65314 369.57184 344.16876Q370.32184 343.09064 371.4937 343.09064Q372.4312 343.09064 372.9156 343.60626Q373.4156 344.10626 373.4156 345.1844L373.4156 349.45L372.3687 349.45L372.3687 345.52814Q372.3687 344.90314 372.25934 344.6219Q372.1656 344.34064 371.89996 344.16876Q371.63434 343.9969 371.25934 343.9969Q370.6031 343.9969 370.1656 344.4344Q369.7437 344.8719 369.7437 345.84064L369.7437 349.45L368.6812 349.45L368.6812 345.40314Q368.6812 344.7 368.4156 344.35626Q368.1656 343.9969 367.58746 343.9969Q367.13434 343.9969 366.75934 344.23126Q366.38434 344.46564 366.21246 344.91876Q366.0406 345.3719 366.0406 346.21564L366.0406 349.45L364.9937 349.45ZM374.9937 342.075L374.9937 340.85626L376.0562 340.85626L376.0562 342.075L374.9937 342.075ZM374.9937 349.45L374.9937 343.23126L376.0562 343.23126L376.0562 349.45L374.9937 349.45Z" fill-rule="nonzero"/><path fill="#000000" d="M417.54367 349.45L417.54367 340.85626L423.7468 340.85626L423.7468 341.8719L418.6843 341.8719L418.6843 344.4969L423.4343 344.4969L423.4343 345.5125L418.6843 345.5125L418.6843 348.4344L423.94992 348.4344L423.94992 349.45L417.54367 349.45ZM425.35617 349.45L425.35617 340.85626L426.41867 340.85626L426.41867 349.45L425.35617 349.45ZM432.63742 347.45L433.73117 347.575Q433.48117 348.52814 432.77805 349.0594Q432.07492 349.59064 430.9968 349.59064Q429.63742 349.59064 428.82492 348.7469Q428.02805 347.90314 428.02805 346.3875Q428.02805 344.825 428.84055 343.96564Q429.65305 343.09064 430.9343 343.09064Q432.1843 343.09064 432.96555 343.9344Q433.76242 344.77814 433.76242 346.325Q433.76242 346.41876 433.76242 346.60626L429.1218 346.60626Q429.1843 347.6375 429.69992 348.1844Q430.21555 348.71564 430.9968 348.71564Q431.57492 348.71564 431.98117 348.41876Q432.40305 348.10626 432.63742 347.45ZM429.1843 345.7469L432.65305 345.7469Q432.59055 344.95 432.26242 344.5594Q431.7468 343.95 430.94992 343.95Q430.21555 343.95 429.71555 344.4344Q429.23117 344.91876 429.1843 345.7469ZM437.10617 349.45L434.7468 343.23126L435.85617 343.23126L437.19992 346.95Q437.40305 347.5594 437.59055 348.2Q437.73117 347.71564 437.98117 347.02814L439.3718 343.23126L440.44992 343.23126L438.09055 349.45L437.10617 349.45ZM445.63742 347.45L446.73117 347.575Q446.48117 348.52814 445.77805 349.0594Q445.07492 349.59064 443.9968 349.59064Q442.63742 349.59064 441.82492 348.7469Q441.02805 347.90314 441.02805 346.3875Q441.02805 344.825 441.84055 343.96564Q442.65305 343.09064 443.9343 343.09064Q445.1843 343.09064 445.96555 343.9344Q446.76242 344.77814 446.76242 346.325Q446.76242 346.41876 446.76242 346.60626L442.1218 346.60626Q442.1843 347.6375 442.69992 348.1844Q443.21555 348.71564 443.9968 348.71564Q444.57492 348.71564 444.98117 348.41876Q445.40305 348.10626 445.63742 347.45ZM442.1843 345.7469L445.65305 345.7469Q445.59055 344.95 445.26242 344.5594Q444.7468 343.95 443.94992 343.95Q443.21555 343.95 442.71555 344.4344Q442.23117 344.91876 442.1843 345.7469ZM448.38742 349.45L448.38742 343.23126L449.32492 343.23126L449.32492 344.10626Q450.01242 343.09064 451.3093 343.09064Q451.8718 343.09064 452.34055 343.29376Q452.82492 343.4969 453.0593 343.825Q453.29367 344.15314 453.38742 344.59064Q453.4343 344.8875 453.4343 345.6219L453.4343 349.45L452.38742 349.45L452.38742 345.66876Q452.38742 345.0125 452.26242 344.7Q452.13742 344.3875 451.82492 344.2Q451.51242 343.9969 451.09055 343.9969Q450.41867 343.9969 449.91867 344.4344Q449.4343 344.85626 449.4343 346.04376L449.4343 349.45L448.38742 349.45ZM457.6843 348.5125L457.84055 349.4344Q457.38742 349.52814 457.04367 349.52814Q456.46555 349.52814 456.15305 349.35626Q455.84055 349.16876 455.69992 348.8719Q455.57492 348.575 455.57492 347.6219L455.57492 344.04376L454.8093 344.04376L454.8093 343.23126L455.57492 343.23126L455.57492 341.6844L456.6218 341.0594L456.6218 343.23126L457.6843 343.23126L457.6843 344.04376L456.6218 344.04376L456.6218 347.6844Q456.6218 348.1375 456.66867 348.2625Q456.73117 348.3875 456.85617 348.46564Q456.98117 348.54376 457.21555 348.54376Q457.40305 348.54376 457.6843 348.5125ZM458.34055 351.84064L458.21555 350.85626Q458.5593 350.95 458.82492 350.95Q459.16867 350.95 459.3718 350.825Q459.59055 350.71564 459.73117 350.5125Q459.82492 350.34064 460.0593 349.71564Q460.07492 349.6375 460.15305 349.46564L457.77805 343.23126L458.91867 343.23126L460.21555 346.825Q460.46555 347.5125 460.66867 348.27814Q460.85617 347.54376 461.10617 346.85626L462.4343 343.23126L463.48117 343.23126L461.1218 349.5594Q460.73117 350.575 460.52805 350.96564Q460.2468 351.4969 459.8718 351.73126Q459.51242 351.98126 459.01242 351.98126Q458.71555 351.98126 458.34055 351.84064Z" fill-rule="nonzero"/><path fill="#000000" d="M510.46863 349.45L513.7655 340.85626L514.98425 340.85626L518.4999 349.45L517.2186 349.45L516.203 346.84064L512.6249 346.84064L511.67175 349.45L510.46863 349.45ZM512.953 345.91876L515.85925 345.91876L514.9686 343.54376Q514.54675 342.46564 514.35925 341.7625Q514.1874 342.59064 513.8905 343.40314L512.953 345.91876ZM518.85925 347.59064L519.8905 347.4344Q519.98425 348.0594 520.3749 348.3875Q520.7811 348.71564 521.5155 348.71564Q522.23425 348.71564 522.578 348.4344Q522.9374 348.1375 522.9374 347.73126Q522.9374 347.3719 522.6249 347.16876Q522.4061 347.02814 521.54675 346.8094Q520.3905 346.5125 519.9374 346.3094Q519.4999 346.09064 519.2655 345.71564Q519.0311 345.34064 519.0311 344.8719Q519.0311 344.46564 519.2186 344.10626Q519.4061 343.7469 519.73425 343.5125Q519.98425 343.34064 520.4061 343.21564Q520.828 343.09064 521.328 343.09064Q522.04675 343.09064 522.5936 343.3094Q523.1561 343.5125 523.42175 343.8719Q523.6874 344.23126 523.7811 344.825L522.7499 344.96564Q522.6874 344.4969 522.3436 344.23126Q522.0155 343.95 521.3905 343.95Q520.67175 343.95 520.35925 344.2Q520.04675 344.4344 520.04675 344.7625Q520.04675 344.96564 520.17175 345.1219Q520.3124 345.29376 520.578 345.40314Q520.73425 345.46564 521.5155 345.66876Q522.6405 345.98126 523.078 346.16876Q523.5155 346.35626 523.7655 346.71564Q524.0155 347.075 524.0155 347.6219Q524.0155 348.15314 523.703 348.6219Q523.4061 349.075 522.828 349.34064Q522.2499 349.59064 521.5155 349.59064Q520.29675 349.59064 519.6561 349.09064Q519.0311 348.575 518.85925 347.59064ZM527.578 348.5125L527.73425 349.4344Q527.2811 349.52814 526.9374 349.52814Q526.35925 349.52814 526.04675 349.35626Q525.73425 349.16876 525.5936 348.8719Q525.4686 348.575 525.4686 347.6219L525.4686 344.04376L524.703 344.04376L524.703 343.23126L525.4686 343.23126L525.4686 341.6844L526.5155 341.0594L526.5155 343.23126L527.578 343.23126L527.578 344.04376L526.5155 344.04376L526.5155 347.6844Q526.5155 348.1375 526.5624 348.2625Q526.6249 348.3875 526.7499 348.46564Q526.8749 348.54376 527.10925 348.54376Q527.29675 348.54376 527.578 348.5125ZM528.2655 349.45L528.2655 343.23126L529.2186 343.23126L529.2186 344.16876Q529.578 343.5125 529.8749 343.3094Q530.1874 343.09064 530.5624 343.09064Q531.0936 343.09064 531.6405 343.41876L531.2811 344.40314Q530.8905 344.16876 530.5155 344.16876Q530.1561 344.16876 529.8749 344.3875Q529.60925 344.59064 529.4999 344.96564Q529.3124 345.52814 529.3124 346.1844L529.3124 349.45L528.2655 349.45ZM531.8905 346.34064Q531.8905 344.60626 532.8436 343.77814Q533.6405 343.09064 534.79675 343.09064Q536.078 343.09064 536.8905 343.9344Q537.7186 344.7625 537.7186 346.2469Q537.7186 347.45 537.35925 348.1375Q536.9999 348.825 536.29675 349.21564Q535.60925 349.59064 534.79675 349.59064Q533.4999 349.59064 532.6874 348.7625Q531.8905 347.91876 531.8905 346.34064ZM532.9686 346.34064Q532.9686 347.52814 533.48425 348.1219Q534.0155 348.71564 534.79675 348.71564Q535.5936 348.71564 536.10925 348.1219Q536.6249 347.52814 536.6249 346.3094Q536.6249 345.15314 536.0936 344.5594Q535.578 343.96564 534.79675 343.96564Q534.0155 343.96564 533.48425 344.5594Q532.9686 345.1375 532.9686 346.34064Z" fill-rule="nonzero"/><path fill="#a4c2f4" d="M185.0 56.916668C185.0 56.364384 185.44771 55.916668 186.0 55.916668L196.0 55.916668C196.55229 55.916668 197.0 56.364384 197.0 56.916668L197.0 66.916664C197.0 67.46895 196.55229 67.916664 196.0 67.916664L186.0 67.916664C185.44771 67.916664 185.0 67.46895 185.0 66.916664Z" fill-rule="nonzero"/><path fill="#1a1a1a" d="M209.95312 62.541664L209.95312 61.541664L213.57812 61.52604L213.57812 64.71354Q212.75 65.385414 211.85938 65.729164Q210.96875 66.05729 210.03125 66.05729Q208.76562 66.05729 207.71875 65.52604Q206.6875 64.979164 206.15625 63.96354Q205.64062 62.93229 205.64062 61.666664Q205.64062 60.40104 206.15625 59.322914Q206.6875 58.229164 207.67188 57.71354Q208.65625 57.18229 209.9375 57.18229Q210.875 57.18229 211.625 57.479164Q212.375 57.77604 212.79688 58.322914Q213.23438 58.854164 213.45312 59.729164L212.4375 60.010414Q212.23438 59.354164 211.9375 58.979164Q211.65625 58.604164 211.125 58.385414Q210.59375 58.15104 209.95312 58.15104Q209.17188 58.15104 208.59375 58.385414Q208.03125 58.61979 207.67188 59.010414Q207.32812 59.40104 207.14062 59.86979Q206.8125 60.666664 206.8125 61.58854Q206.8125 62.74479 207.20312 63.52604Q207.60938 64.291664 208.35938 64.666664Q209.10938 65.041664 209.96875 65.041664Q210.70312 65.041664 211.40625 64.760414Q212.10938 64.46354 212.46875 64.15104L212.46875 62.541664L209.95312 62.541664ZM219.04688 63.916664L220.14062 64.041664Q219.89062 64.99479 219.1875 65.52604Q218.48438 66.05729 217.40625 66.05729Q216.04688 66.05729 215.23438 65.21354Q214.4375 64.36979 214.4375 62.854164Q214.4375 61.291664 215.25 60.43229Q216.0625 59.55729 217.34375 59.55729Q218.59375 59.55729 219.375 60.40104Q220.17188 61.24479 220.17188 62.791664Q220.17188 62.885414 220.17188 63.072914L215.53125 63.072914Q215.59375 64.104164 216.10938 64.65104Q216.625 65.18229 217.40625 65.18229Q217.98438 65.18229 218.39062 64.885414Q218.8125 64.572914 219.04688 63.916664ZM215.59375 62.21354L219.0625 62.21354Q219.0 61.416664 218.67188 61.02604Q218.15625 60.416664 217.35938 60.416664Q216.625 60.416664 216.125 60.90104Q215.64062 61.385414 215.59375 62.21354ZM221.79688 65.916664L221.79688 59.697914L222.73438 59.697914L222.73438 60.572914Q223.42188 59.55729 224.71875 59.55729Q225.28125 59.55729 225.75 59.760414Q226.23438 59.96354 226.46875 60.291664Q226.70312 60.61979 226.79688 61.05729Q226.84375 61.354164 226.84375 62.08854L226.84375 65.916664L225.79688 65.916664L225.79688 62.135414Q225.79688 61.479164 225.67188 61.166664Q225.54688 60.854164 225.23438 60.666664Q224.92188 60.46354 224.5 60.46354Q223.82812 60.46354 223.32812 60.90104Q222.84375 61.322914 222.84375 62.510414L222.84375 65.916664L221.79688 65.916664ZM233.04688 63.916664L234.14062 64.041664Q233.89062 64.99479 233.1875 65.52604Q232.48438 66.05729 231.40625 66.05729Q230.04688 66.05729 229.23438 65.21354Q228.4375 64.36979 228.4375 62.854164Q228.4375 61.291664 229.25 60.43229Q230.0625 59.55729 231.34375 59.55729Q232.59375 59.55729 233.375 60.40104Q234.17188 61.24479 234.17188 62.791664Q234.17188 62.885414 234.17188 63.072914L229.53125 63.072914Q229.59375 64.104164 230.10938 64.65104Q230.625 65.18229 231.40625 65.18229Q231.98438 65.18229 232.39062 64.885414Q232.8125 64.572914 233.04688 63.916664ZM229.59375 62.21354L233.0625 62.21354Q233.0 61.416664 232.67188 61.02604Q232.15625 60.416664 231.35938 60.416664Q230.625 60.416664 230.125 60.90104Q229.64062 61.385414 229.59375 62.21354ZM235.78125 65.916664L235.78125 59.697914L236.73438 59.697914L236.73438 60.635414Q237.09375 59.979164 237.39062 59.77604Q237.70312 59.55729 238.07812 59.55729Q238.60938 59.55729 239.15625 59.885414L238.79688 60.86979Q238.40625 60.635414 238.03125 60.635414Q237.67188 60.635414 237.39062 60.854164Q237.125 61.05729 237.01562 61.43229Q236.82812 61.99479 236.82812 62.65104L236.82812 65.916664L235.78125 65.916664ZM243.85938 65.15104Q243.26562 65.65104 242.71875 65.854164Q242.1875 66.05729 241.5625 66.05729Q240.53125 66.05729 239.98438 65.55729Q239.4375 65.05729 239.4375 64.27604Q239.4375 63.822914 239.64062 63.447914Q239.84375 63.05729 240.1875 62.83854Q240.53125 62.604164 240.95312 62.49479Q241.25 62.40104 241.89062 62.322914Q243.15625 62.18229 243.76562 61.96354Q243.76562 61.74479 243.76562 61.697914Q243.76562 61.041664 243.46875 60.77604Q243.0625 60.43229 242.26562 60.43229Q241.53125 60.43229 241.17188 60.697914Q240.8125 60.947914 240.64062 61.604164L239.60938 61.46354Q239.75 60.80729 240.07812 60.40104Q240.40625 59.99479 241.01562 59.77604Q241.625 59.55729 242.42188 59.55729Q243.21875 59.55729 243.71875 59.74479Q244.21875 59.93229 244.45312 60.21354Q244.6875 60.49479 244.78125 60.93229Q244.82812 61.197914 244.82812 61.90104L244.82812 63.30729Q244.82812 64.77604 244.89062 65.166664Q244.96875 65.55729 245.17188 65.916664L244.0625 65.916664Q243.90625 65.58854 243.85938 65.15104ZM243.76562 62.791664Q243.1875 63.02604 242.04688 63.197914Q241.39062 63.291664 241.125 63.416664Q240.85938 63.52604 240.70312 63.74479Q240.5625 63.96354 240.5625 64.24479Q240.5625 64.666664 240.875 64.947914Q241.20312 65.229164 241.8125 65.229164Q242.42188 65.229164 242.89062 64.96354Q243.375 64.697914 243.59375 64.229164Q243.76562 63.86979 243.76562 63.18229L243.76562 62.791664ZM246.76562 65.916664L246.76562 57.322914L247.82812 57.322914L247.82812 65.916664L246.76562 65.916664ZM252.79688 68.30729L252.79688 59.697914L253.75 59.697914L253.75 60.49479Q254.09375 60.02604 254.51562 59.791664Q254.95312 59.55729 255.5625 59.55729Q256.35938 59.55729 256.96875 59.96354Q257.57812 60.36979 257.875 61.11979Q258.1875 61.86979 258.1875 62.760414Q258.1875 63.71354 257.84375 64.479164Q257.51562 65.24479 256.85938 65.65104Q256.20312 66.05729 255.48438 66.05729Q254.95312 66.05729 254.53125 65.83854Q254.10938 65.604164 253.84375 65.27604L253.84375 68.30729L252.79688 68.30729ZM253.75 62.83854Q253.75 64.041664 254.23438 64.61979Q254.71875 65.18229 255.40625 65.18229Q256.10938 65.18229 256.60938 64.58854Q257.10938 63.99479 257.10938 62.74479Q257.10938 61.55729 256.625 60.979164Q256.14062 60.385414 255.45312 60.385414Q254.78125 60.385414 254.26562 61.010414Q253.75 61.635414 253.75 62.83854ZM263.875 65.916664L263.875 64.99479Q263.14062 66.05729 261.89062 66.05729Q261.34375 66.05729 260.85938 65.854164Q260.39062 65.635414 260.15625 65.322914Q259.92188 64.99479 259.82812 64.52604Q259.76562 64.229164 259.76562 63.541664L259.76562 59.697914L260.82812 59.697914L260.82812 63.15104Q260.82812 63.96354 260.89062 64.260414Q260.98438 64.666664 261.29688 64.916664Q261.625 65.15104 262.10938 65.15104Q262.57812 65.15104 262.98438 64.916664Q263.40625 64.666664 263.57812 64.24479Q263.76562 63.822914 263.76562 63.02604L263.76562 59.697914L264.8125 59.697914L264.8125 65.916664L263.875 65.916664ZM266.78125 65.916664L266.78125 59.697914L267.73438 59.697914L267.73438 60.635414Q268.09375 59.979164 268.39062 59.77604Q268.70312 59.55729 269.07812 59.55729Q269.60938 59.55729 270.15625 59.885414L269.79688 60.86979Q269.40625 60.635414 269.03125 60.635414Q268.67188 60.635414 268.39062 60.854164Q268.125 61.05729 268.01562 61.43229Q267.82812 61.99479 267.82812 62.65104L267.82812 65.916664L266.78125 65.916664ZM270.79688 68.30729L270.79688 59.697914L271.75 59.697914L271.75 60.49479Q272.09375 60.02604 272.51562 59.791664Q272.95312 59.55729 273.5625 59.55729Q274.35938 59.55729 274.96875 59.96354Q275.57812 60.36979 275.875 61.11979Q276.1875 61.86979 276.1875 62.760414Q276.1875 63.71354 275.84375 64.479164Q275.51562 65.24479 274.85938 65.65104Q274.20312 66.05729 273.48438 66.05729Q272.95312 66.05729 272.53125 65.83854Q272.10938 65.604164 271.84375 65.27604L271.84375 68.30729L270.79688 68.30729ZM271.75 62.83854Q271.75 64.041664 272.23438 64.61979Q272.71875 65.18229 273.40625 65.18229Q274.10938 65.18229 274.60938 64.58854Q275.10938 63.99479 275.10938 62.74479Q275.10938 61.55729 274.625 60.979164Q274.14062 60.385414 273.45312 60.385414Q272.78125 60.385414 272.26562 61.010414Q271.75 61.635414 271.75 62.83854ZM277.40625 62.80729Q277.40625 61.072914 278.35938 60.24479Q279.15625 59.55729 280.3125 59.55729Q281.59375 59.55729 282.40625 60.40104Q283.23438 61.229164 283.23438 62.71354Q283.23438 63.916664 282.875 64.604164Q282.51562 65.291664 281.8125 65.68229Q281.125 66.05729 280.3125 66.05729Q279.01562 66.05729 278.20312 65.229164Q277.40625 64.385414 277.40625 62.80729ZM278.48438 62.80729Q278.48438 63.99479 279.0 64.58854Q279.53125 65.18229 280.3125 65.18229Q281.10938 65.18229 281.625 64.58854Q282.14062 63.99479 282.14062 62.77604Q282.14062 61.61979 281.60938 61.02604Q281.09375 60.43229 280.3125 60.43229Q279.53125 60.43229 279.0 61.02604Q278.48438 61.604164 278.48438 62.80729ZM284.375 64.05729L285.40625 63.90104Q285.5 64.52604 285.89062 64.854164Q286.29688 65.18229 287.03125 65.18229Q287.75 65.18229 288.09375 64.90104Q288.45312 64.604164 288.45312 64.197914Q288.45312 63.83854 288.14062 63.635414Q287.92188 63.49479 287.0625 63.27604Q285.90625 62.979164 285.45312 62.77604Q285.01562 62.55729 284.78125 62.18229Q284.54688 61.80729 284.54688 61.33854Q284.54688 60.93229 284.73438 60.572914Q284.92188 60.21354 285.25 59.979164Q285.5 59.80729 285.92188 59.68229Q286.34375 59.55729 286.84375 59.55729Q287.5625 59.55729 288.10938 59.77604Q288.67188 59.979164 288.9375 60.33854Q289.20312 60.697914 289.29688 61.291664L288.26562 61.43229Q288.20312 60.96354 287.85938 60.697914Q287.53125 60.416664 286.90625 60.416664Q286.1875 60.416664 285.875 60.666664Q285.5625 60.90104 285.5625 61.229164Q285.5625 61.43229 285.6875 61.58854Q285.82812 61.760414 286.09375 61.86979Q286.25 61.93229 287.03125 62.135414Q288.15625 62.447914 288.59375 62.635414Q289.03125 62.822914 289.28125 63.18229Q289.53125 63.541664 289.53125 64.08854Q289.53125 64.61979 289.21875 65.08854Q288.92188 65.541664 288.34375 65.80729Q287.76562 66.05729 287.03125 66.05729Q285.8125 66.05729 285.17188 65.55729Q284.54688 65.041664 284.375 64.05729ZM295.04688 63.916664L296.14062 64.041664Q295.89062 64.99479 295.1875 65.52604Q294.48438 66.05729 293.40625 66.05729Q292.04688 66.05729 291.23438 65.21354Q290.4375 64.36979 290.4375 62.854164Q290.4375 61.291664 291.25 60.43229Q292.0625 59.55729 293.34375 59.55729Q294.59375 59.55729 295.375 60.40104Q296.17188 61.24479 296.17188 62.791664Q296.17188 62.885414 296.17188 63.072914L291.53125 63.072914Q291.59375 64.104164 292.10938 64.65104Q292.625 65.18229 293.40625 65.18229Q293.98438 65.18229 294.39062 64.885414Q294.8125 64.572914 295.04688 63.916664ZM291.59375 62.21354L295.0625 62.21354Q295.0 61.416664 294.67188 61.02604Q294.15625 60.416664 293.35938 60.416664Q292.625 60.416664 292.125 60.90104Q291.64062 61.385414 291.59375 62.21354Z" fill-rule="nonzero"/><path fill="#4285f4" d="M313.0 56.916668C313.0 56.364384 313.44772 55.916668 314.0 55.916668L324.0 55.916668C324.55228 55.916668 325.0 56.364384 325.0 56.916668L325.0 66.916664C325.0 67.46895 324.55228 67.916664 324.0 67.916664L314.0 67.916664C313.44772 67.916664 313.0 67.46895 313.0 66.916664Z" fill-rule="nonzero"/><path fill="#1a1a1a" d="M333.92188 65.916664L333.92188 57.322914L337.17188 57.322914Q338.01562 57.322914 338.46875 57.40104Q339.10938 57.510414 339.53125 57.80729Q339.96875 58.104164 340.21875 58.635414Q340.48438 59.166664 340.48438 59.80729Q340.48438 60.90104 339.78125 61.666664Q339.09375 62.416664 337.26562 62.416664L335.0625 62.416664L335.0625 65.916664L333.92188 65.916664ZM335.0625 61.416664L337.28125 61.416664Q338.39062 61.416664 338.84375 61.010414Q339.3125 60.58854 339.3125 59.83854Q339.3125 59.30729 339.03125 58.93229Q338.76562 58.541664 338.32812 58.416664Q338.03125 58.33854 337.26562 58.33854L335.0625 58.33854L335.0625 61.416664ZM341.78125 65.916664L341.78125 59.697914L342.73438 59.697914L342.73438 60.635414Q343.09375 59.979164 343.39062 59.77604Q343.70312 59.55729 344.07812 59.55729Q344.60938 59.55729 345.15625 59.885414L344.79688 60.86979Q344.40625 60.635414 344.03125 60.635414Q343.67188 60.635414 343.39062 60.854164Q343.125 61.05729 343.01562 61.43229Q342.82812 61.99479 342.82812 62.65104L342.82812 65.916664L341.78125 65.916664ZM345.40625 62.80729Q345.40625 61.072914 346.35938 60.24479Q347.15625 59.55729 348.3125 59.55729Q349.59375 59.55729 350.40625 60.40104Q351.23438 61.229164 351.23438 62.71354Q351.23438 63.916664 350.875 64.604164Q350.51562 65.291664 349.8125 65.68229Q349.125 66.05729 348.3125 66.05729Q347.01562 66.05729 346.20312 65.229164Q345.40625 64.385414 345.40625 62.80729ZM346.48438 62.80729Q346.48438 63.99479 347.0 64.58854Q347.53125 65.18229 348.3125 65.18229Q349.10938 65.18229 349.625 64.58854Q350.14062 63.99479 350.14062 62.77604Q350.14062 61.61979 349.60938 61.02604Q349.09375 60.43229 348.3125 60.43229Q347.53125 60.43229 347.0 61.02604Q346.48438 61.604164 346.48438 62.80729ZM352.78125 58.55729L352.78125 57.322914L353.84375 57.322914L353.84375 58.55729L352.78125 58.55729ZM351.45312 68.33854L351.64062 67.43229Q351.96875 67.510414 352.14062 67.510414Q352.46875 67.510414 352.625 67.291664Q352.78125 67.08854 352.78125 66.229164L352.78125 59.697914L353.84375 59.697914L353.84375 66.260414Q353.84375 67.40104 353.54688 67.854164Q353.15625 68.447914 352.28125 68.447914Q351.84375 68.447914 351.45312 68.33854ZM360.04688 63.916664L361.14062 64.041664Q360.89062 64.99479 360.1875 65.52604Q359.48438 66.05729 358.40625 66.05729Q357.04688 66.05729 356.23438 65.21354Q355.4375 64.36979 355.4375 62.854164Q355.4375 61.291664 356.25 60.43229Q357.0625 59.55729 358.34375 59.55729Q359.59375 59.55729 360.375 60.40104Q361.17188 61.24479 361.17188 62.791664Q361.17188 62.885414 361.17188 63.072914L356.53125 63.072914Q356.59375 64.104164 357.10938 64.65104Q357.625 65.18229 358.40625 65.18229Q358.98438 65.18229 359.39062 64.885414Q359.8125 64.572914 360.04688 63.916664ZM356.59375 62.21354L360.0625 62.21354Q360.0 61.416664 359.67188 61.02604Q359.15625 60.416664 358.35938 60.416664Q357.625 60.416664 357.125 60.90104Q356.64062 61.385414 356.59375 62.21354ZM366.85938 63.635414L367.89062 63.77604Q367.71875 64.83854 367.01562 65.447914Q366.3125 66.05729 365.29688 66.05729Q364.01562 66.05729 363.23438 65.229164Q362.46875 64.385414 362.46875 62.822914Q362.46875 61.822914 362.79688 61.072914Q363.14062 60.30729 363.8125 59.93229Q364.5 59.55729 365.3125 59.55729Q366.3125 59.55729 366.95312 60.072914Q367.60938 60.572914 367.79688 61.52604L366.76562 61.68229Q366.625 61.05729 366.25 60.74479Q365.875 60.416664 365.34375 60.416664Q364.54688 60.416664 364.04688 60.99479Q363.54688 61.55729 363.54688 62.791664Q363.54688 64.05729 364.03125 64.61979Q364.51562 65.18229 365.28125 65.18229Q365.90625 65.18229 366.3125 64.80729Q366.73438 64.43229 366.85938 63.635414ZM371.09375 64.979164L371.25 65.90104Q370.79688 65.99479 370.45312 65.99479Q369.875 65.99479 369.5625 65.822914Q369.25 65.635414 369.10938 65.33854Q368.98438 65.041664 368.98438 64.08854L368.98438 60.510414L368.21875 60.510414L368.21875 59.697914L368.98438 59.697914L368.98438 58.15104L370.03125 57.52604L370.03125 59.697914L371.09375 59.697914L371.09375 60.510414L370.03125 60.510414L370.03125 64.15104Q370.03125 64.604164 370.07812 64.729164Q370.14062 64.854164 370.26562 64.93229Q370.39062 65.010414 370.625 65.010414Q370.8125 65.010414 371.09375 64.979164ZM374.375 64.05729L375.40625 63.90104Q375.5 64.52604 375.89062 64.854164Q376.29688 65.18229 377.03125 65.18229Q377.75 65.18229 378.09375 64.90104Q378.45312 64.604164 378.45312 64.197914Q378.45312 63.83854 378.14062 63.635414Q377.92188 63.49479 377.0625 63.27604Q375.90625 62.979164 375.45312 62.77604Q375.01562 62.55729 374.78125 62.18229Q374.54688 61.80729 374.54688 61.33854Q374.54688 60.93229 374.73438 60.572914Q374.92188 60.21354 375.25 59.979164Q375.5 59.80729 375.92188 59.68229Q376.34375 59.55729 376.84375 59.55729Q377.5625 59.55729 378.10938 59.77604Q378.67188 59.979164 378.9375 60.33854Q379.20312 60.697914 379.29688 61.291664L378.26562 61.43229Q378.20312 60.96354 377.85938 60.697914Q377.53125 60.416664 376.90625 60.416664Q376.1875 60.416664 375.875 60.666664Q375.5625 60.90104 375.5625 61.229164Q375.5625 61.43229 375.6875 61.58854Q375.82812 61.760414 376.09375 61.86979Q376.25 61.93229 377.03125 62.135414Q378.15625 62.447914 378.59375 62.635414Q379.03125 62.822914 379.28125 63.18229Q379.53125 63.541664 379.53125 64.08854Q379.53125 64.61979 379.21875 65.08854Q378.92188 65.541664 378.34375 65.80729Q377.76562 66.05729 377.03125 66.05729Q375.8125 66.05729 375.17188 65.55729Q374.54688 65.041664 374.375 64.05729ZM380.79688 68.30729L380.79688 59.697914L381.75 59.697914L381.75 60.49479Q382.09375 60.02604 382.51562 59.791664Q382.95312 59.55729 383.5625 59.55729Q384.35938 59.55729 384.96875 59.96354Q385.57812 60.36979 385.875 61.11979Q386.1875 61.86979 386.1875 62.760414Q386.1875 63.71354 385.84375 64.479164Q385.51562 65.24479 384.85938 65.65104Q384.20312 66.05729 383.48438 66.05729Q382.95312 66.05729 382.53125 65.83854Q382.10938 65.604164 381.84375 65.27604L381.84375 68.30729L380.79688 68.30729ZM381.75 62.83854Q381.75 64.041664 382.23438 64.61979Q382.71875 65.18229 383.40625 65.18229Q384.10938 65.18229 384.60938 64.58854Q385.10938 63.99479 385.10938 62.74479Q385.10938 61.55729 384.625 60.979164Q384.14062 60.385414 383.45312 60.385414Q382.78125 60.385414 382.26562 61.010414Q381.75 61.635414 381.75 62.83854ZM392.04688 63.916664L393.14062 64.041664Q392.89062 64.99479 392.1875 65.52604Q391.48438 66.05729 390.40625 66.05729Q389.04688 66.05729 388.23438 65.21354Q387.4375 64.36979 387.4375 62.854164Q387.4375 61.291664 388.25 60.43229Q389.0625 59.55729 390.34375 59.55729Q391.59375 59.55729 392.375 60.40104Q393.17188 61.24479 393.17188 62.791664Q393.17188 62.885414 393.17188 63.072914L388.53125 63.072914Q388.59375 64.104164 389.10938 64.65104Q389.625 65.18229 390.40625 65.18229Q390.98438 65.18229 391.39062 64.885414Q391.8125 64.572914 392.04688 63.916664ZM388.59375 62.21354L392.0625 62.21354Q392.0 61.416664 391.67188 61.02604Q391.15625 60.416664 390.35938 60.416664Q389.625 60.416664 389.125 60.90104Q388.64062 61.385414 388.59375 62.21354ZM398.85938 63.635414L399.89062 63.77604Q399.71875 64.83854 399.01562 65.447914Q398.3125 66.05729 397.29688 66.05729Q396.01562 66.05729 395.23438 65.229164Q394.46875 64.385414 394.46875 62.822914Q394.46875 61.822914 394.79688 61.072914Q395.14062 60.30729 395.8125 59.93229Q396.5 59.55729 397.3125 59.55729Q398.3125 59.55729 398.95312 60.072914Q399.60938 60.572914 399.79688 61.52604L398.76562 61.68229Q398.625 61.05729 398.25 60.74479Q397.875 60.416664 397.34375 60.416664Q396.54688 60.416664 396.04688 60.99479Q395.54688 61.55729 395.54688 62.791664Q395.54688 64.05729 396.03125 64.61979Q396.51562 65.18229 397.28125 65.18229Q397.90625 65.18229 398.3125 64.80729Q398.73438 64.43229 398.85938 63.635414ZM400.79688 58.541664L400.79688 57.322914L401.85938 57.322914L401.85938 58.541664L400.79688 58.541664ZM400.79688 65.916664L400.79688 59.697914L401.85938 59.697914L401.85938 65.916664L400.79688 65.916664ZM404.04688 65.916664L404.04688 60.510414L403.10938 60.510414L403.10938 59.697914L404.04688 59.697914L404.04688 59.02604Q404.04688 58.40104 404.15625 58.104164Q404.3125 57.68229 404.6875 57.43229Q405.07812 57.18229 405.76562 57.18229Q406.21875 57.18229 406.75 57.291664L406.59375 58.197914Q406.26562 58.15104 405.96875 58.15104Q405.48438 58.15104 405.28125 58.354164Q405.09375 58.55729 405.09375 59.11979L405.09375 59.697914L406.3125 59.697914L406.3125 60.510414L405.09375 60.510414L405.09375 65.916664L404.04688 65.916664ZM406.79688 58.541664L406.79688 57.322914L407.85938 57.322914L407.85938 58.541664L406.79688 58.541664ZM406.79688 65.916664L406.79688 59.697914L407.85938 59.697914L407.85938 65.916664L406.79688 65.916664ZM413.85938 63.635414L414.89062 63.77604Q414.71875 64.83854 414.01562 65.447914Q413.3125 66.05729 412.29688 66.05729Q411.01562 66.05729 410.23438 65.229164Q409.46875 64.385414 409.46875 62.822914Q409.46875 61.822914 409.79688 61.072914Q410.14062 60.30729 410.8125 59.93229Q411.5 59.55729 412.3125 59.55729Q413.3125 59.55729 413.95312 60.072914Q414.60938 60.572914 414.79688 61.52604L413.76562 61.68229Q413.625 61.05729 413.25 60.74479Q412.875 60.416664 412.34375 60.416664Q411.54688 60.416664 411.04688 60.99479Q410.54688 61.55729 410.54688 62.791664Q410.54688 64.05729 411.03125 64.61979Q411.51562 65.18229 412.28125 65.18229Q412.90625 65.18229 413.3125 64.80729Q413.73438 64.43229 413.85938 63.635414Z" fill-rule="nonzero"/><path fill="#757575" d="M19.45625 32.95625L21.2375 32.8Q21.3625 33.8625 21.815624 34.55Q22.284374 35.2375 23.253124 35.675Q24.2375 36.096874 25.471874 36.096874Q26.55 36.096874 27.378124 35.784374Q28.20625 35.45625 28.6125 34.89375Q29.01875 34.33125 29.01875 33.659374Q29.01875 32.9875 28.628124 32.4875Q28.2375 31.9875 27.346874 31.64375Q26.76875 31.409374 24.784374 30.940624Q22.815624 30.471874 22.034374 30.05Q21.003124 29.51875 20.503124 28.721874Q20.003124 27.925 20.003124 26.940624Q20.003124 25.846874 20.6125 24.909374Q21.221874 23.971874 22.409374 23.4875Q23.596874 22.9875 25.034374 22.9875Q26.628124 22.9875 27.846874 23.503124Q29.065624 24.01875 29.70625 25.01875Q30.3625 26.003124 30.409374 27.26875L28.596874 27.409374Q28.45625 26.05 27.6125 25.3625Q26.76875 24.659374 25.1125 24.659374Q23.39375 24.659374 22.596874 25.3Q21.815624 25.925 21.815624 26.8Q21.815624 27.58125 22.378124 28.08125Q22.925 28.58125 25.2375 29.096874Q27.55 29.6125 28.409374 30.003124Q29.659374 30.58125 30.253124 31.471874Q30.846874 32.346874 30.846874 33.503124Q30.846874 34.64375 30.190624 35.659374Q29.534374 36.675 28.3 37.2375Q27.08125 37.8 25.55 37.8Q23.6125 37.8 22.3 37.2375Q20.9875 36.659374 20.2375 35.51875Q19.4875 34.378124 19.45625 32.95625ZM32.221874 32.3625Q32.221874 29.4875 33.815624 28.096874Q35.159374 26.940624 37.08125 26.940624Q39.221874 26.940624 40.565624 28.346874Q41.925 29.753124 41.925 32.221874Q41.925 34.221874 41.33125 35.378124Q40.7375 36.51875 39.58125 37.159374Q38.440624 37.784374 37.08125 37.784374Q34.89375 37.784374 33.55 36.39375Q32.221874 34.9875 32.221874 32.3625ZM34.01875 32.3625Q34.01875 34.3625 34.878124 35.346874Q35.753124 36.33125 37.08125 36.33125Q38.39375 36.33125 39.253124 35.346874Q40.128124 34.346874 40.128124 32.3Q40.128124 30.378124 39.253124 29.39375Q38.378124 28.39375 37.08125 28.39375Q35.753124 28.39375 34.878124 29.39375Q34.01875 30.378124 34.01875 32.3625ZM50.659374 37.55L50.659374 36.01875Q49.45625 37.784374 47.378124 37.784374Q46.45625 37.784374 45.659374 37.440624Q44.8625 37.08125 44.471874 36.55Q44.096874 36.01875 43.940624 35.2375Q43.83125 34.721874 43.83125 33.596874L43.83125 27.175L45.58125 27.175L45.58125 32.925Q45.58125 34.3 45.690624 34.784374Q45.8625 35.471874 46.39375 35.878124Q46.940624 36.26875 47.721874 36.26875Q48.51875 36.26875 49.20625 35.8625Q49.909374 35.45625 50.190624 34.76875Q50.4875 34.065624 50.4875 32.7375L50.4875 27.175L52.2375 27.175L52.2375 37.55L50.659374 37.55ZM54.846874 37.55L54.846874 27.175L56.425 27.175L56.425 28.753124Q57.034374 27.64375 57.55 27.3Q58.065624 26.940624 58.675 26.940624Q59.565624 26.940624 60.4875 27.503124L59.878124 29.14375Q59.2375 28.753124 58.596874 28.753124Q58.01875 28.753124 57.55 29.1125Q57.096874 29.45625 56.89375 30.065624Q56.6125 31.003124 56.6125 32.1125L56.6125 37.55L54.846874 37.55ZM68.64375 33.753124L70.3625 33.971874Q70.08125 35.76875 68.90938 36.784374Q67.75313 37.784374 66.05 37.784374Q63.925 37.784374 62.628124 36.39375Q61.33125 35.003124 61.33125 32.409374Q61.33125 30.721874 61.878124 29.471874Q62.440624 28.20625 63.58125 27.58125Q64.72188 26.940624 66.06563 26.940624Q67.75313 26.940624 68.81563 27.8Q69.89375 28.659374 70.20625 30.221874L68.4875 30.4875Q68.25313 29.440624 67.62813 28.925Q67.00313 28.39375 66.12813 28.39375Q64.8 28.39375 63.971874 29.346874Q63.14375 30.3 63.14375 32.346874Q63.14375 34.440624 63.940624 35.39375Q64.7375 36.33125 66.03438 36.33125Q67.06563 36.33125 67.75313 35.70625Q68.45625 35.065624 68.64375 33.753124ZM78.97188 34.20625L80.78438 34.440624Q80.3625 36.01875 79.19063 36.909374Q78.03438 37.784374 76.22188 37.784374Q73.95625 37.784374 72.6125 36.39375Q71.28438 34.9875 71.28438 32.45625Q71.28438 29.83125 72.62813 28.39375Q73.97188 26.940624 76.12813 26.940624Q78.20625 26.940624 79.51875 28.3625Q80.84688 29.76875 80.84688 32.346874Q80.84688 32.503124 80.83125 32.815624L73.09688 32.815624Q73.19063 34.51875 74.06563 35.425Q74.94063 36.33125 76.2375 36.33125Q77.20625 36.33125 77.87813 35.83125Q78.56563 35.315624 78.97188 34.20625ZM73.19063 31.3625L78.9875 31.3625Q78.87813 30.065624 78.33125 29.409374Q77.4875 28.39375 76.14375 28.39375Q74.94063 28.39375 74.1125 29.20625Q73.28438 30.003124 73.19063 31.3625ZM88.15938 34.45625L89.90938 34.175Q90.05 35.221874 90.72188 35.784374Q91.39375 36.33125 92.59688 36.33125Q93.8 36.33125 94.37813 35.846874Q94.97188 35.346874 94.97188 34.690624Q94.97188 34.096874 94.45625 33.753124Q94.09688 33.51875 92.65938 33.159374Q90.72188 32.659374 89.97188 32.315624Q89.2375 31.95625 88.84688 31.33125Q88.45625 30.690624 88.45625 29.925Q88.45625 29.2375 88.76875 28.64375Q89.09688 28.05 89.64375 27.659374Q90.05 27.3625 90.75313 27.159374Q91.47188 26.940624 92.28438 26.940624Q93.50313 26.940624 94.425 27.3Q95.34688 27.64375 95.78438 28.253124Q96.22188 28.846874 96.39375 29.846874L94.675 30.08125Q94.55 29.284374 93.9875 28.846874Q93.425 28.39375 92.40938 28.39375Q91.19063 28.39375 90.675 28.8Q90.15938 29.190624 90.15938 29.721874Q90.15938 30.065624 90.37813 30.346874Q90.58125 30.628124 91.05 30.815624Q91.31563 30.909374 92.59688 31.253124Q94.47188 31.753124 95.20625 32.08125Q95.94063 32.39375 96.3625 33.003124Q96.78438 33.596874 96.78438 34.503124Q96.78438 35.378124 96.26875 36.159374Q95.75313 36.940624 94.78438 37.3625Q93.81563 37.784374 92.59688 37.784374Q90.58125 37.784374 89.51875 36.940624Q88.45625 36.096874 88.15938 34.45625ZM98.87813 25.253124L98.87813 23.2375L100.64375 23.2375L100.64375 25.253124L98.87813 25.253124ZM98.87813 37.55L98.87813 27.175L100.64375 27.175L100.64375 37.55L98.87813 37.55ZM101.94063 37.55L101.94063 36.128124L108.55 28.55Q107.425 28.596874 106.56563 28.596874L102.33125 28.596874L102.33125 27.175L110.81563 27.175L110.81563 28.346874L105.19063 34.925L104.1125 36.128124Q105.28438 36.034374 106.33125 36.034374L111.12813 36.034374L111.12813 37.55L101.94063 37.55ZM119.97188 34.20625L121.78438 34.440624Q121.3625 36.01875 120.19063 36.909374Q119.03438 37.784374 117.22188 37.784374Q114.95625 37.784374 113.6125 36.39375Q112.28438 34.9875 112.28438 32.45625Q112.28438 29.83125 113.62813 28.39375Q114.97188 26.940624 117.12813 26.940624Q119.20625 26.940624 120.51875 28.3625Q121.84688 29.76875 121.84688 32.346874Q121.84688 32.503124 121.83125 32.815624L114.09688 32.815624Q114.19063 34.51875 115.06563 35.425Q115.94063 36.33125 117.2375 36.33125Q118.20625 36.33125 118.87813 35.83125Q119.56563 35.315624 119.97188 34.20625ZM114.19063 31.3625L119.9875 31.3625Q119.87813 30.065624 119.33125 29.409374Q118.4875 28.39375 117.14375 28.39375Q115.94063 28.39375 115.1125 29.20625Q114.28438 30.003124 114.19063 31.3625ZM133.22188 41.753124Q131.76875 39.925 130.76875 37.471874Q129.76875 35.003124 129.76875 32.3625Q129.76875 30.034374 130.51875 27.909374Q131.39375 25.440624 133.22188 22.9875L134.4875 22.9875Q133.3 25.01875 132.925 25.89375Q132.33125 27.2375 131.9875 28.70625Q131.56563 30.534374 131.56563 32.378124Q131.56563 37.065624 134.4875 41.753124L133.22188 41.753124ZM137.01875 37.55L137.01875 23.2375L138.90938 23.2375L138.90938 30.33125L146.01875 23.2375L148.58125 23.2375L142.58125 29.034374L148.84688 37.55L146.34688 37.55L141.25313 30.3L138.90938 32.58125L138.90938 37.55L137.01875 37.55ZM151.4875 37.55L149.8625 37.55L149.8625 23.2375L151.6125 23.2375L151.6125 28.346874Q152.7375 26.940624 154.45625 26.940624Q155.40938 26.940624 156.26875 27.33125Q157.12813 27.721874 157.675 28.425Q158.22188 29.1125 158.53438 30.096874Q158.84688 31.08125 158.84688 32.20625Q158.84688 34.878124 157.53438 36.33125Q156.22188 37.784374 154.37813 37.784374Q152.53438 37.784374 151.4875 36.253124L151.4875 37.55ZM151.47188 32.284374Q151.47188 34.14375 151.97188 34.9875Q152.81563 36.33125 154.22188 36.33125Q155.37813 36.33125 156.20625 35.33125Q157.05 34.33125 157.05 32.346874Q157.05 30.315624 156.2375 29.3625Q155.44063 28.39375 154.3 28.39375Q153.14375 28.39375 152.3 29.39375Q151.47188 30.39375 151.47188 32.284374ZM162.01875 41.753124L160.76875 41.753124Q163.675 37.065624 163.675 32.378124Q163.675 30.534374 163.26875 28.7375Q162.925 27.26875 162.33125 25.925Q161.95625 25.034374 160.76875 22.9875L162.01875 22.9875Q163.8625 25.440624 164.7375 27.909374Q165.4875 30.034374 165.4875 32.3625Q165.4875 35.003124 164.47188 37.471874Q163.47188 39.925 162.01875 41.753124Z" fill-rule="nonzero"/></svg>