<?xml version="1.0" encoding="UTF-8" standalone="no"?>
<!DOCTYPE svg PUBLIC "-//W3C//DTD SVG 1.1//EN"
 "http://www.w3.org/Graphics/SVG/1.1/DTD/svg11.dtd">
<!-- Generated by graphviz version 15.0.0 (0)
 -->
<!-- Title: g Pages: 1 -->
<svg style="background-color: white;" width="506pt" height="3356pt"
 viewBox="0.00 0.00 506.00 3356.00" xmlns="http://www.w3.org/2000/svg" xmlns:xlink="http://www.w3.org/1999/xlink">
<g id="graph0" class="graph" transform="scale(1 1) rotate(0) translate(4 3352)">
<title>g</title>
<g id="node1" class="node">
<title></title>
<g id="a_node1"><a xlink:href=".">
<ellipse fill="white" stroke="#666666" cx="5.4" cy="-1694" rx="5.4" ry="5.4"/>
</a>
</g>
</g>
<!-- images/ -->
<g id="node2" class="node">
<title>images/</title>
<g id="a_node2"><a xlink:href="images/">
<ellipse fill="white" stroke="#666666" cx="173.11" cy="-2520" rx="5.4" ry="5.4"/>
</a>
</g>
</g>
<!-- &#45;&gt;images/ -->
<g id="edge1" class="edge">
<title>&#45;&gt;images/</title>
<path fill="none" stroke="#999999" d="M7.46,-1699.27C20.45,-1764.03 149.04,-2405.01 169.4,-2506.5"/>
<polygon fill="#999999" stroke="#999999" points="170.82,-2513.6 166.04,-2506.92 170.33,-2511.12 169.35,-2506.25 169.35,-2506.25 169.35,-2506.25 170.33,-2511.12 172.66,-2505.59 170.82,-2513.6"/>
<g id="a_edge1&#45;label"><a xlink:href="images/" xlink:title="images/">
<text xml:space="preserve" text-anchor="middle" x="89.25" y="-2208.27" font-family="Helvetica,sans-Serif" font-size="10.00">images/</text>
</a>
</g>
</g>
<!-- markdown/ -->
<g id="node18" class="node">
<title>markdown/</title>
<g id="a_node18"><a xlink:href="markdown/">
<ellipse fill="white" stroke="#666666" cx="173.11" cy="-924" rx="5.4" ry="5.4"/>
</a>
</g>
</g>
<!-- &#45;&gt;markdown/ -->
<g id="edge17" class="edge">
<title>&#45;&gt;markdown/</title>
<path fill="none" stroke="#999999" d="M7.55,-1688.67C20.97,-1626.3 148.09,-1035.6 169.16,-937.71"/>
<polygon fill="#999999" stroke="#999999" points="170.73,-930.41 172.45,-938.45 170.19,-932.88 169.15,-937.74 169.15,-937.74 169.15,-937.74 170.19,-932.88 165.85,-937.03 170.73,-930.41"/>
<g id="a_edge17&#45;label"><a xlink:href="markdown/" xlink:title="markdown/">
<text xml:space="preserve" text-anchor="middle" x="89.25" y="-1403.61" font-family="Helvetica,sans-Serif" font-size="10.00">markdown/</text>
</a>
</g>
</g>
<!-- images/beans.jpg -->
<g id="node3" class="node">
<title>images/beans.jpg</title>
<g id="a_node3"><a xlink:href="images/beans.jpg" xlink:title="[binary data]">
<polygon fill="white" stroke="#b3b3b3" points="461.49,-3348 390.45,-3348 390.45,-3312 461.49,-3312 461.49,-3348"/>
<text xml:space="preserve" text-anchor="middle" x="425.97" y="-3327" font-family="Helvetica,sans-Serif" font-size="10.00">[binary data]</text>
</a>
</g>
</g>
<!-- images/&#45;&gt;images/beans.jpg -->
<g id="edge2" class="edge">
<title>images/&#45;&gt;images/beans.jpg</title>
<path fill="none" stroke="#999999" d="M174.04,-2525.53C173.46,-2581.63 170.54,-3048.66 232.51,-3170 265.36,-3234.33 336.71,-3282.59 382.7,-3308.51"/>
<polygon fill="#999999" stroke="#999999" points="389.07,-3312.04 380.87,-3311.36 386.86,-3310.82 382.51,-3308.41 382.51,-3308.41 382.51,-3308.41 386.86,-3310.82 384.15,-3305.45 389.07,-3312.04"/>
<g id="a_edge2&#45;label"><a xlink:href="images/beans.jpg" xlink:title="beans.jpg">
<text xml:space="preserve" text-anchor="middle" x="266.42" y="-3251.25" font-family="Helvetica,sans-Serif" font-size="10.00">beans.jpg</text>
</a>
</g>
</g>
<!-- images/book.jpg -->
<g id="node4" class="node">
<title>images/book.jpg</title>
<g id="a_node4"><a xlink:href="images/book.jpg" xlink:title="[binary data]">
<polygon fill="white" stroke="#b3b3b3" points="461.49,-3240 390.45,-3240 390.45,-3204 461.49,-3204 461.49,-3240"/>
<text xml:space="preserve" text-anchor="middle" x="425.97" y="-3219" font-family="Helvetica,sans-Serif" font-size="10.00">[binary data]</text>
</a>
</g>
</g>
<!-- images/&#45;&gt;images/book.jpg -->
<g id="edge3" class="edge">
<title>images/&#45;&gt;images/book.jpg</title>
<path fill="none" stroke="#999999" d="M174.15,-2525.53C174.65,-2576.28 180.18,-2961.74 232.51,-3062 265.93,-3126.04 337.11,-3174.38 382.91,-3200.4"/>
<polygon fill="#999999" stroke="#999999" points="389.25,-3203.95 381.06,-3203.23 387.04,-3202.71 382.7,-3200.29 382.7,-3200.29 382.7,-3200.29 387.04,-3202.71 384.35,-3197.34 389.25,-3203.95"/>
<g id="a_edge3&#45;label"><a xlink:href="images/book.jpg" xlink:title="book.jpg">
<text xml:space="preserve" text-anchor="middle" x="266.42" y="-3143.05" font-family="Helvetica,sans-Serif" font-size="10.00">book.jpg</text>
</a>
</g>
</g>
<!-- images/cabin.jpg -->
<g id="node5" class="node">
<title>images/cabin.jpg</title>
<g id="a_node5"><a xlink:href="images/cabin.jpg" xlink:title="[binary data]">
<polygon fill="white" stroke="#b3b3b3" points="461.49,-3132 390.45,-3132 390.45,-3096 461.49,-3096 461.49,-3132"/>
<text xml:space="preserve" text-anchor="middle" x="425.97" y="-3111" font-family="Helvetica,sans-Serif" font-size="10.00">[binary data]</text>
</a>
</g>
</g>
<!-- images/&#45;&gt;images/cabin.jpg -->
<g id="edge4" class="edge">
<title>images/&#45;&gt;images/cabin.jpg</title>
<path fill="none" stroke="#999999" d="M174.32,-2525.51C176.11,-2570.26 189.77,-2874.69 232.51,-2954 266.68,-3017.41 337.3,-3065.79 382.83,-3092.01"/>
<polygon fill="#999999" stroke="#999999" points="389.13,-3095.59 380.94,-3094.82 386.93,-3094.34 382.61,-3091.89 382.61,-3091.89 382.61,-3091.89 386.93,-3094.34 384.27,-3088.95 389.13,-3095.59"/>
<g id="a_edge4&#45;label"><a xlink:href="images/cabin.jpg" xlink:title="cabin.jpg">
<text xml:space="preserve" text-anchor="middle" x="266.42" y="-3034.75" font-family="Helvetica,sans-Serif" font-size="10.00">cabin.jpg</text>
</a>
</g>
</g>
<!-- images/chair.jpg -->
<g id="node6" class="node">
<title>images/chair.jpg</title>
<g id="a_node6"><a xlink:href="images/chair.jpg" xlink:title="[binary data]">
<polygon fill="white" stroke="#b3b3b3" points="461.49,-3024 390.45,-3024 390.45,-2988 461.49,-2988 461.49,-3024"/>
<text xml:space="preserve" text-anchor="middle" x="425.97" y="-3003" font-family="Helvetica,sans-Serif" font-size="10.00">[binary data]</text>
</a>
</g>
</g>
<!-- images/&#45;&gt;images/chair.jpg -->
<g id="edge5" class="edge">
<title>images/&#45;&gt;images/chair.jpg</title>
<path fill="none" stroke="#999999" d="M174.59,-2525.53C177.97,-2563.71 199.09,-2788.38 232.51,-2847 267.98,-2909.24 337.89,-2957.4 382.97,-2983.7"/>
<polygon fill="#999999" stroke="#999999" points="389.2,-2987.29 381.02,-2986.47 387.01,-2986.03 382.7,-2983.55 382.7,-2983.55 382.7,-2983.55 387.01,-2986.03 384.38,-2980.62 389.2,-2987.29"/>
<g id="a_edge5&#45;label"><a xlink:href="images/chair.jpg" xlink:title="chair.jpg">
<text xml:space="preserve" text-anchor="middle" x="266.42" y="-2926.85" font-family="Helvetica,sans-Serif" font-size="10.00">chair.jpg</text>
</a>
</g>
</g>
<!-- images/interior.jpg -->
<g id="node7" class="node">
<title>images/interior.jpg</title>
<g id="a_node7"><a xlink:href="images/interior.jpg" xlink:title="[binary data]">
<polygon fill="white" stroke="#b3b3b3" points="461.49,-2916 390.45,-2916 390.45,-2880 461.49,-2880 461.49,-2916"/>
<text xml:space="preserve" text-anchor="middle" x="425.97" y="-2895" font-family="Helvetica,sans-Serif" font-size="10.00">[binary data]</text>
</a>
</g>
</g>
<!-- images/&#45;&gt;images/interior.jpg -->
<g id="edge6" class="edge">
<title>images/&#45;&gt;images/interior.jpg</title>
<path fill="none" stroke="#999999" d="M174.35,-2525.65C175.76,-2552.17 184.46,-2666.29 232.51,-2742 270.41,-2801.73 339.06,-2849.11 383.3,-2875.35"/>
<polygon fill="#999999" stroke="#999999" points="389.67,-2879.07 381.49,-2878.2 387.49,-2877.79 383.2,-2875.29 383.2,-2875.29 383.2,-2875.29 387.49,-2877.79 384.9,-2872.37 389.67,-2879.07"/>
<g id="a_edge6&#45;label"><a xlink:href="images/interior.jpg" xlink:title="interior.jpg">
<text xml:space="preserve" text-anchor="middle" x="266.42" y="-2819.7" font-family="Helvetica,sans-Serif" font-size="10.00">interior.jpg</text>
</a>
</g>
</g>
<!-- images/lilypads.jpg -->
<g id="node8" class="node">
<title>images/lilypads.jpg</title>
<g id="a_node8"><a xlink:href="images/lilypads.jpg" xlink:title="[binary data]">
<polygon fill="white" stroke="#b3b3b3" points="461.49,-2808 390.45,-2808 390.45,-2772 461.49,-2772 461.49,-2808"/>
<text xml:space="preserve" text-anchor="middle" x="425.97" y="-2787" font-family="Helvetica,sans-Serif" font-size="10.00">[binary data]</text>
</a>
</g>
</g>
<!-- images/&#45;&gt;images/lilypads.jpg -->
<g id="edge7" class="edge">
<title>images/&#45;&gt;images/lilypads.jpg</title>
<path fill="none" stroke="#999999" d="M175.35,-2524.93C180.13,-2543.1 198.73,-2607.39 232.51,-2649 274.62,-2700.88 340.08,-2743.36 382.74,-2767.69"/>
<polygon fill="#999999" stroke="#999999" points="389.11,-2771.28 380.92,-2770.54 386.9,-2770.04 382.57,-2767.6 382.57,-2767.6 382.57,-2767.6 386.9,-2770.04 384.23,-2764.66 389.11,-2771.28"/>
<g id="a_edge7&#45;label"><a xlink:href="images/lilypads.jpg" xlink:title="lilypads.jpg">
<text xml:space="preserve" text-anchor="middle" x="266.42" y="-2714.82" font-family="Helvetica,sans-Serif" font-size="10.00">lilypads.jpg</text>
</a>
</g>
</g>
<!-- images/lumber.jpg -->
<g id="node9" class="node">
<title>images/lumber.jpg</title>
<g id="a_node9"><a xlink:href="images/lumber.jpg" xlink:title="[binary data]">
<polygon fill="white" stroke="#b3b3b3" points="461.49,-2700 390.45,-2700 390.45,-2664 461.49,-2664 461.49,-2700"/>
<text xml:space="preserve" text-anchor="middle" x="425.97" y="-2679" font-family="Helvetica,sans-Serif" font-size="10.00">[binary data]</text>
</a>
</g>
</g>
<!-- images/&#45;&gt;images/lumber.jpg -->
<g id="edge8" class="edge">
<title>images/&#45;&gt;images/lumber.jpg</title>
<path fill="none" stroke="#999999" d="M177.23,-2523.69C185.52,-2533.32 209.03,-2559.66 232.51,-2577 280.58,-2612.52 342.09,-2643.97 382.47,-2662.98"/>
<polygon fill="#999999" stroke="#999999" points="389.15,-2666.1 380.93,-2665.98 386.86,-2665.03 382.35,-2662.93 382.35,-2662.93 382.35,-2662.93 386.86,-2665.03 383.78,-2659.87 389.15,-2666.1"/>
<g id="a_edge8&#45;label"><a xlink:href="images/lumber.jpg" xlink:title="lumber.jpg">
<text xml:space="preserve" text-anchor="middle" x="266.42" y="-2622.34" font-family="Helvetica,sans-Serif" font-size="10.00">lumber.jpg</text>
</a>
</g>
</g>
<!-- images/narcissus.jpg -->
<g id="node10" class="node">
<title>images/narcissus.jpg</title>
<g id="a_node10"><a xlink:href="images/narcissus.jpg" xlink:title="[binary data]">
<polygon fill="white" stroke="#b3b3b3" points="461.49,-2592 390.45,-2592 390.45,-2556 461.49,-2556 461.49,-2592"/>
<text xml:space="preserve" text-anchor="middle" x="425.97" y="-2571" font-family="Helvetica,sans-Serif" font-size="10.00">[binary data]</text>
</a>
</g>
</g>
<!-- images/&#45;&gt;images/narcissus.jpg -->
<g id="edge9" class="edge">
<title>images/&#45;&gt;images/narcissus.jpg</title>
<path fill="none" stroke="#999999" d="M178.89,-2521.03C203.59,-2526.35 317.92,-2550.96 381.68,-2564.68"/>
<polygon fill="#999999" stroke="#999999" points="388.76,-2566.21 380.72,-2567.93 386.29,-2565.67 381.43,-2564.63 381.43,-2564.63 381.43,-2564.63 386.29,-2565.67 382.14,-2561.33 388.76,-2566.21"/>
<g id="a_edge9&#45;label"><a xlink:href="images/narcissus.jpg" xlink:title="narcissus.jpg">
<text xml:space="preserve" text-anchor="middle" x="266.42" y="-2550" font-family="Helvetica,sans-Serif" font-size="10.00">narcissus.jpg</text>
</a>
</g>
</g>
<!-- images/pond.jpg -->
<g id="node11" class="node">
<title>images/pond.jpg</title>
<g id="a_node11"><a xlink:href="images/pond.jpg" xlink:title="[binary data]">
<polygon fill="white" stroke="#b3b3b3" points="461.49,-2484 390.45,-2484 390.45,-2448 461.49,-2448 461.49,-2484"/>
<text xml:space="preserve" text-anchor="middle" x="425.97" y="-2463" font-family="Helvetica,sans-Serif" font-size="10.00">[binary data]</text>
</a>
</g>
</g>
<!-- images/&#45;&gt;images/pond.jpg -->
<g id="edge10" class="edge">
<title>images/&#45;&gt;images/pond.jpg</title>
<path fill="none" stroke="#999999" d="M178.61,-2518.53C188.36,-2515.39 212.18,-2507.9 232.51,-2503 283.25,-2490.77 342.28,-2479.91 381.46,-2473.17"/>
<polygon fill="#999999" stroke="#999999" points="388.79,-2471.92 381.97,-2476.51 386.3,-2472.34 381.4,-2473.18 381.4,-2473.18 381.4,-2473.18 386.3,-2472.34 380.83,-2469.85 388.79,-2471.92"/>
<g id="a_edge10&#45;label"><a xlink:href="images/pond.jpg" xlink:title="pond.jpg">
<text xml:space="preserve" text-anchor="middle" x="266.42" y="-2506" font-family="Helvetica,sans-Serif" font-size="10.00">pond.jpg</text>
</a>
</g>
</g>
<!-- images/README.md -->
<g id="node12" class="node">
<title>images/README.md</title>
<g id="a_node12"><a xlink:href="images/README.md" xlink:title="Image credits:\l\lpond.jpg https://unsplas...\l">
<polygon fill="white" stroke="#b3b3b3" points="490.95,-2376 360.99,-2376 360.99,-2332 490.95,-2332 490.95,-2376"/>
<text xml:space="preserve" text-anchor="start" x="368.99" y="-2363" font-family="Helvetica,sans-Serif" font-size="10.00">Image credits:</text>
<text xml:space="preserve" text-anchor="start" x="368.99" y="-2339" font-family="Helvetica,sans-Serif" font-size="10.00">pond.jpg https://unsplas...</text>
</a>
</g>
</g>
<!-- images/&#45;&gt;images/README.md -->
<g id="edge11" class="edge">
<title>images/&#45;&gt;images/README.md</title>
<path fill="none" stroke="#999999" d="M177.17,-2516.03C185.32,-2505.67 208.52,-2477.36 232.51,-2459 274.16,-2427.12 326.74,-2399.13 366.42,-2380.09"/>
<polygon fill="#999999" stroke="#999999" points="373.07,-2376.92 367.75,-2383.19 370.79,-2378.01 366.3,-2380.14 366.3,-2380.14 366.3,-2380.14 370.79,-2378.01 364.85,-2377.1 373.07,-2376.92"/>
<g id="a_edge11&#45;label"><a xlink:href="images/README.md" xlink:title="README.md">
<text xml:space="preserve" text-anchor="middle" x="266.42" y="-2462" font-family="Helvetica,sans-Serif" font-size="10.00">README.md</text>
</a>
</g>
</g>
<!-- images/rowboat.jpg -->
<g id="node13" class="node">
<title>images/rowboat.jpg</title>
<g id="a_node13"><a xlink:href="images/rowboat.jpg" xlink:title="[binary data]">
<polygon fill="white" stroke="#b3b3b3" points="461.49,-2260 390.45,-2260 390.45,-2224 461.49,-2224 461.49,-2260"/>
<text xml:space="preserve" text-anchor="middle" x="425.97" y="-2239" font-family="Helvetica,sans-Serif" font-size="10.00">[binary data]</text>
</a>
</g>
</g>
<!-- images/&#45;&gt;images/rowboat.jpg -->
<g id="edge12" class="edge">
<title>images/&#45;&gt;images/rowboat.jpg</title>
<path fill="none" stroke="#999999" d="M175.38,-2514.62C180.13,-2495.44 198.32,-2429.17 232.51,-2386 274.42,-2333.07 340.22,-2289.53 382.98,-2264.65"/>
<polygon fill="#999999" stroke="#999999" points="389.37,-2260.98 384.55,-2267.64 387.18,-2262.24 382.87,-2264.71 382.87,-2264.71 382.87,-2264.71 387.18,-2262.24 381.19,-2261.79 389.37,-2260.98"/>
<g id="a_edge12&#45;label"><a xlink:href="images/rowboat.jpg" xlink:title="rowboat.jpg">
<text xml:space="preserve" text-anchor="middle" x="266.42" y="-2389" font-family="Helvetica,sans-Serif" font-size="10.00">rowboat.jpg</text>
</a>
</g>
</g>
<!-- images/stars.jpg -->
<g id="node14" class="node">
<title>images/stars.jpg</title>
<g id="a_node14"><a xlink:href="images/stars.jpg" xlink:title="[binary data]">
<polygon fill="white" stroke="#b3b3b3" points="461.49,-2152 390.45,-2152 390.45,-2116 461.49,-2116 461.49,-2152"/>
<text xml:space="preserve" text-anchor="middle" x="425.97" y="-2131" font-family="Helvetica,sans-Serif" font-size="10.00">[binary data]</text>
</a>
</g>
</g>
<!-- images/&#45;&gt;images/stars.jpg -->
<g id="edge13" class="edge">
<title>images/&#45;&gt;images/stars.jpg</title>
<path fill="none" stroke="#999999" d="M174.31,-2514.57C175.54,-2488.06 183.65,-2370.37 232.51,-2292 270.23,-2231.48 339.25,-2183.35 383.57,-2156.77"/>
<polygon fill="#999999" stroke="#999999" points="389.96,-2153 385.22,-2159.72 387.78,-2154.29 383.5,-2156.82 383.5,-2156.82 383.5,-2156.82 387.78,-2154.29 381.78,-2153.91 389.96,-2153"/>
<g id="a_edge13&#45;label"><a xlink:href="images/stars.jpg" xlink:title="stars.jpg">
<text xml:space="preserve" text-anchor="middle" x="266.42" y="-2295" font-family="Helvetica,sans-Serif" font-size="10.00">stars.jpg</text>
</a>
</g>
</g>
<!-- images/village.jpg -->
<g id="node15" class="node">
<title>images/village.jpg</title>
<g id="a_node15"><a xlink:href="images/village.jpg" xlink:title="[binary data]">
<polygon fill="white" stroke="#b3b3b3" points="461.49,-2044 390.45,-2044 390.45,-2008 461.49,-2008 461.49,-2044"/>
<text xml:space="preserve" text-anchor="middle" x="425.97" y="-2023" font-family="Helvetica,sans-Serif" font-size="10.00">[binary data]</text>
</a>
</g>
</g>
<!-- images/&#45;&gt;images/village.jpg -->
<g id="edge14" class="edge">
<title>images/&#45;&gt;images/village.jpg</title>
<path fill="none" stroke="#999999" d="M174.58,-2514.35C177.89,-2475.37 198.65,-2245.98 232.51,-2186 267.82,-2123.45 337.77,-2074.97 382.91,-2048.47"/>
<polygon fill="#999999" stroke="#999999" points="389.15,-2044.86 384.35,-2051.53 386.96,-2046.12 382.66,-2048.61 382.66,-2048.61 382.66,-2048.61 386.96,-2046.12 380.97,-2045.69 389.15,-2044.86"/>
<g id="a_edge14&#45;label"><a xlink:href="images/village.jpg" xlink:title="village.jpg">
<text xml:space="preserve" text-anchor="middle" x="266.42" y="-2189" font-family="Helvetica,sans-Serif" font-size="10.00">village.jpg</text>
</a>
</g>
</g>
<!-- images/waterlily.jpg -->
<g id="node16" class="node">
<title>images/waterlily.jpg</title>
<g id="a_node16"><a xlink:href="images/waterlily.jpg" xlink:title="[binary data]">
<polygon fill="white" stroke="#b3b3b3" points="461.49,-1936 390.45,-1936 390.45,-1900 461.49,-1900 461.49,-1936"/>
<text xml:space="preserve" text-anchor="middle" x="425.97" y="-1915" font-family="Helvetica,sans-Serif" font-size="10.00">[binary data]</text>
</a>
</g>
</g>
<!-- images/&#45;&gt;images/waterlily.jpg -->
<g id="edge15" class="edge">
<title>images/&#45;&gt;images/waterlily.jpg</title>
<path fill="none" stroke="#999999" d="M174.31,-2514.41C176.05,-2468.95 189.36,-2159.71 232.51,-2079 266.55,-2015.31 337.21,-1966.6 382.78,-1940.17"/>
<polygon fill="#999999" stroke="#999999" points="389.09,-1936.57 384.25,-1943.21 386.9,-1937.82 382.58,-1940.28 382.58,-1940.28 382.58,-1940.28 386.9,-1937.82 380.91,-1937.35 389.09,-1936.57"/>
<g id="a_edge15&#45;label"><a xlink:href="images/waterlily.jpg" xlink:title="waterlily.jpg">
<text xml:space="preserve" text-anchor="middle" x="266.42" y="-2082" font-family="Helvetica,sans-Serif" font-size="10.00">waterlily.jpg</text>
</a>
</g>
</g>
<!-- images/wildflowers.jpg -->
<g id="node17" class="node">
<title>images/wildflowers.jpg</title>
<g id="a_node17"><a xlink:href="images/wildflowers.jpg" xlink:title="[binary data]">
<polygon fill="white" stroke="#b3b3b3" points="461.49,-1828 390.45,-1828 390.45,-1792 461.49,-1792 461.49,-1828"/>
<text xml:space="preserve" text-anchor="middle" x="425.97" y="-1807" font-family="Helvetica,sans-Serif" font-size="10.00">[binary data]</text>
</a>
</g>
</g>
<!-- images/&#45;&gt;images/wildflowers.jpg -->
<g id="edge16" class="edge">
<title>images/&#45;&gt;images/wildflowers.jpg</title>
<path fill="none" stroke="#999999" d="M174.15,-2514.4C174.61,-2463.01 179.81,-2072.7 232.51,-1971 265.82,-1906.7 337.03,-1858.01 382.87,-1831.78"/>
<polygon fill="#999999" stroke="#999999" points="389.22,-1828.21 384.34,-1834.83 387.01,-1829.45 382.68,-1831.89 382.68,-1831.89 382.68,-1831.89 387.01,-1829.45 381.03,-1828.95 389.22,-1828.21"/>
<g id="a_edge16&#45;label"><a xlink:href="images/wildflowers.jpg" xlink:title="wildflowers.jpg">
<text xml:space="preserve" text-anchor="middle" x="266.42" y="-1974" font-family="Helvetica,sans-Serif" font-size="10.00">wildflowers.jpg</text>
</a>
</g>
</g>
<!-- markdown/2025&#45;07&#45;04.md -->
<g id="node19" class="node">
<title>markdown/2025&#45;07&#45;04.md</title>
<g id="a_node19"><a xlink:href="markdown/2025-07-04.md" xlink:title="...title: Hello from the pond!\l&#45;&#45;&#45;\l\l![Pond ...\l">
<polygon fill="white" stroke="#b3b3b3" points="493.72,-1720 358.22,-1720 358.22,-1664 493.72,-1664 493.72,-1720"/>
<text xml:space="preserve" text-anchor="start" x="366.22" y="-1707" font-family="Helvetica,sans-Serif" font-size="10.00">...title: Hello from the pond!</text>
<text xml:space="preserve" text-anchor="start" x="366.22" y="-1695" font-family="Helvetica,sans-Serif" font-size="10.00">&#45;&#45;&#45;</text>
<text xml:space="preserve" text-anchor="start" x="366.22" y="-1671" font-family="Helvetica,sans-Serif" font-size="10.00">![Pond ...</text>
</a>
</g>
</g>
<!-- markdown/&#45;&gt;markdown/2025&#45;07&#45;04.md -->
<g id="edge18" class="edge">
<title>markdown/&#45;&gt;markdown/2025&#45;07&#45;04.md</title>
<path fill="none" stroke="#999999" d="M174.26,-929.6C175.69,-981.07 187.94,-1372.14 232.51,-1479 263.96,-1554.41 334.05,-1620.59 380.4,-1658.43"/>
<polygon fill="#999999" stroke="#999999" points="386.11,-1663.04 378.16,-1660.96 384.14,-1661.45 380.28,-1658.33 380.28,-1658.33 380.28,-1658.33 384.14,-1661.45 382.4,-1655.7 386.11,-1663.04"/>
<g id="a_edge18&#45;label"><a xlink:href="markdown/2025-07-04.md" xlink:title="2025&#45;07&#45;04.md">
<text xml:space="preserve" text-anchor="middle" x="266.42" y="-1579.94" font-family="Helvetica,sans-Serif" font-size="10.00">2025&#45;07&#45;04.md</text>
</a>
</g>
</g>
<!-- markdown/2025&#45;07&#45;07.md -->
<g id="node20" class="node">
<title>markdown/2025&#45;07&#45;07.md</title>
<g id="a_node20"><a xlink:href="markdown/2025-07-07.md" xlink:title="...title: Tiny home\l&#45;&#45;&#45;\l\l![Tiny boxy home s...\l">
<polygon fill="white" stroke="#b3b3b3" points="480.1,-1592 371.84,-1592 371.84,-1536 480.1,-1536 480.1,-1592"/>
<text xml:space="preserve" text-anchor="start" x="379.84" y="-1579" font-family="Helvetica,sans-Serif" font-size="10.00">...title: Tiny home</text>
<text xml:space="preserve" text-anchor="start" x="379.84" y="-1567" font-family="Helvetica,sans-Serif" font-size="10.00">&#45;&#45;&#45;</text>
<text xml:space="preserve" text-anchor="start" x="379.84" y="-1543" font-family="Helvetica,sans-Serif" font-size="10.00">![Tiny boxy home s...</text>
</a>
</g>
</g>
<!-- markdown/&#45;&gt;markdown/2025&#45;07&#45;07.md -->
<g id="edge19" class="edge">
<title>markdown/&#45;&gt;markdown/2025&#45;07&#45;07.md</title>
<path fill="none" stroke="#999999" d="M174.46,-929.64C177.28,-974.21 197.19,-1269.88 232.51,-1351 265.12,-1425.91 334.89,-1492.23 380.86,-1530.24"/>
<polygon fill="#999999" stroke="#999999" points="386.51,-1534.87 378.57,-1532.73 384.56,-1533.26 380.71,-1530.12 380.71,-1530.12 380.71,-1530.12 384.56,-1533.26 382.85,-1527.51 386.51,-1534.87"/>
<g id="a_edge19&#45;label"><a xlink:href="markdown/2025-07-07.md" xlink:title="2025&#45;07&#45;07.md">
<text xml:space="preserve" text-anchor="middle" x="266.42" y="-1451.6" font-family="Helvetica,sans-Serif" font-size="10.00">2025&#45;07&#45;07.md</text>
</a>
</g>
</g>
<!-- markdown/2025&#45;07&#45;10.md -->
<g id="node21" class="node">
<title>markdown/2025&#45;07&#45;10.md</title>
<g id="a_node21"><a xlink:href="markdown/2025-07-10.md" xlink:title="...title: Cozy\l&#45;&#45;&#45;\l\l![Tiny home interior wi...\l">
<polygon fill="white" stroke="#b3b3b3" points="487.04,-1464 364.9,-1464 364.9,-1408 487.04,-1408 487.04,-1464"/>
<text xml:space="preserve" text-anchor="start" x="372.9" y="-1451" font-family="Helvetica,sans-Serif" font-size="10.00">...title: Cozy</text>
<text xml:space="preserve" text-anchor="start" x="372.9" y="-1439" font-family="Helvetica,sans-Serif" font-size="10.00">&#45;&#45;&#45;</text>
<text xml:space="preserve" text-anchor="start" x="372.9" y="-1415" font-family="Helvetica,sans-Serif" font-size="10.00">![Tiny home interior wi...</text>
</a>
</g>
</g>
<!-- markdown/&#45;&gt;markdown/2025&#45;07&#45;10.md -->
<g id="edge20" class="edge">
<title>markdown/&#45;&gt;markdown/2025&#45;07&#45;10.md</title>
<path fill="none" stroke="#999999" d="M174.19,-929.64C174.85,-960.76 180.7,-1114.09 232.51,-1224 267.35,-1297.93 336.83,-1364.34 382.08,-1402.4"/>
<polygon fill="#999999" stroke="#999999" points="387.63,-1407.03 379.71,-1404.82 385.69,-1405.41 381.87,-1402.23 381.87,-1402.23 381.87,-1402.23 385.69,-1405.41 384.03,-1399.63 387.63,-1407.03"/>
<g id="a_edge20&#45;label"><a xlink:href="markdown/2025-07-10.md" xlink:title="2025&#45;07&#45;10.md">
<text xml:space="preserve" text-anchor="middle" x="266.42" y="-1323.56" font-family="Helvetica,sans-Serif" font-size="10.00">2025&#45;07&#45;10.md</text>
</a>
</g>
</g>
<!-- markdown/2025&#45;07&#45;13.md -->
<g id="node22" class="node">
<title>markdown/2025&#45;07&#45;13.md</title>
<g id="a_node22"><a xlink:href="markdown/2025-07-13.md" xlink:title="...title: Reading\l&#45;&#45;&#45;\l\l![An open book viewe...\l">
<polygon fill="white" stroke="#b3b3b3" points="485.95,-1336 365.99,-1336 365.99,-1280 485.95,-1280 485.95,-1336"/>
<text xml:space="preserve" text-anchor="start" x="373.99" y="-1323" font-family="Helvetica,sans-Serif" font-size="10.00">...title: Reading</text>
<text xml:space="preserve" text-anchor="start" x="373.99" y="-1311" font-family="Helvetica,sans-Serif" font-size="10.00">&#45;&#45;&#45;</text>
<text xml:space="preserve" text-anchor="start" x="373.99" y="-1287" font-family="Helvetica,sans-Serif" font-size="10.00">![An open book viewe...</text>
</a>
</g>
</g>
<!-- markdown/&#45;&gt;markdown/2025&#45;07&#45;13.md -->
<g id="edge21" class="edge">
<title>markdown/&#45;&gt;markdown/2025&#45;07&#45;13.md</title>
<path fill="none" stroke="#999999" d="M174.94,-929.52C178.65,-952.82 195.1,-1044.83 232.51,-1110 270.98,-1177.03 337.33,-1238.17 381.18,-1274.24"/>
<polygon fill="#999999" stroke="#999999" points="386.81,-1278.83 378.86,-1276.7 384.85,-1277.23 381,-1274.09 381,-1274.09 381,-1274.09 384.85,-1277.23 383.13,-1271.47 386.81,-1278.83"/>
<g id="a_edge21&#45;label"><a xlink:href="markdown/2025-07-13.md" xlink:title="2025&#45;07&#45;13.md">
<text xml:space="preserve" text-anchor="middle" x="266.42" y="-1197.23" font-family="Helvetica,sans-Serif" font-size="10.00">2025&#45;07&#45;13.md</text>
</a>
</g>
</g>
<!-- markdown/2025&#45;07&#45;15.md -->
<g id="node23" class="node">
<title>markdown/2025&#45;07&#45;15.md</title>
<g id="a_node23"><a xlink:href="markdown/2025-07-15.md" xlink:title="...title: Beans!\l&#45;&#45;&#45;\l\l![Bean sprouts growin...\l">
<polygon fill="white" stroke="#b3b3b3" points="486.5,-1208 365.44,-1208 365.44,-1152 486.5,-1152 486.5,-1208"/>
<text xml:space="preserve" text-anchor="start" x="373.44" y="-1195" font-family="Helvetica,sans-Serif" font-size="10.00">...title: Beans!</text>
<text xml:space="preserve" text-anchor="start" x="373.44" y="-1183" font-family="Helvetica,sans-Serif" font-size="10.00">&#45;&#45;&#45;</text>
<text xml:space="preserve" text-anchor="start" x="373.44" y="-1159" font-family="Helvetica,sans-Serif" font-size="10.00">![Bean sprouts growin...</text>
</a>
</g>
</g>
<!-- markdown/&#45;&gt;markdown/2025&#45;07&#45;15.md -->
<g id="edge22" class="edge">
<title>markdown/&#45;&gt;markdown/2025&#45;07&#45;15.md</title>
<path fill="none" stroke="#999999" d="M176.36,-928.54C183.41,-942.5 206.2,-985.72 232.51,-1016 276.6,-1066.75 336.81,-1115.47 378.08,-1146.43"/>
<polygon fill="#999999" stroke="#999999" points="384.07,-1150.89 376.04,-1149.11 382.04,-1149.38 378.06,-1146.41 378.06,-1146.41 378.06,-1146.41 382.04,-1149.38 380.07,-1143.7 384.07,-1150.89"/>
<g id="a_edge22&#45;label"><a xlink:href="markdown/2025-07-15.md" xlink:title="2025&#45;07&#45;15.md">
<text xml:space="preserve" text-anchor="middle" x="266.42" y="-1082.73" font-family="Helvetica,sans-Serif" font-size="10.00">2025&#45;07&#45;15.md</text>
</a>
</g>
</g>
<!-- markdown/2025&#45;07&#45;20.md -->
<g id="node24" class="node">
<title>markdown/2025&#45;07&#45;20.md</title>
<g id="a_node24"><a xlink:href="markdown/2025-07-20.md" xlink:title="...title: Visitors\l&#45;&#45;&#45;\l\l![](/images/wildflo...\l">
<polygon fill="white" stroke="#b3b3b3" points="476.76,-1080 375.18,-1080 375.18,-1024 476.76,-1024 476.76,-1080"/>
<text xml:space="preserve" text-anchor="start" x="383.18" y="-1067" font-family="Helvetica,sans-Serif" font-size="10.00">...title: Visitors</text>
<text xml:space="preserve" text-anchor="start" x="383.18" y="-1055" font-family="Helvetica,sans-Serif" font-size="10.00">&#45;&#45;&#45;</text>
<text xml:space="preserve" text-anchor="start" x="383.18" y="-1031" font-family="Helvetica,sans-Serif" font-size="10.00">![](/images/wildflo...</text>
</a>
</g>
</g>
<!-- markdown/&#45;&gt;markdown/2025&#45;07&#45;20.md -->
<g id="edge23" class="edge">
<title>markdown/&#45;&gt;markdown/2025&#45;07&#45;20.md</title>
<path fill="none" stroke="#999999" d="M178.35,-926.19C187.98,-931.15 212.21,-943.62 232.51,-954 277.73,-977.13 328.99,-1003.22 367.23,-1022.67"/>
<polygon fill="#999999" stroke="#999999" points="373.61,-1025.91 365.39,-1025.52 371.35,-1024.76 366.92,-1022.51 366.92,-1022.51 366.92,-1022.51 371.35,-1024.76 368.45,-1019.5 373.61,-1025.91"/>
<g id="a_edge23&#45;label"><a xlink:href="markdown/2025-07-20.md" xlink:title="2025&#45;07&#45;20.md">
<text xml:space="preserve" text-anchor="middle" x="266.42" y="-989.4" font-family="Helvetica,sans-Serif" font-size="10.00">2025&#45;07&#45;20.md</text>
</a>
</g>
</g>
<!-- markdown/2025&#45;07&#45;23.md -->
<g id="node25" class="node">
<title>markdown/2025&#45;07&#45;23.md</title>
<g id="a_node25"><a xlink:href="markdown/2025-07-23.md" xlink:title="...title: Expenses\l&#45;&#45;&#45;\l\l![Wooden boards](/i...\l">
<polygon fill="white" stroke="#b3b3b3" points="481.77,-952 370.17,-952 370.17,-896 481.77,-896 481.77,-952"/>
<text xml:space="preserve" text-anchor="start" x="378.17" y="-939" font-family="Helvetica,sans-Serif" font-size="10.00">...title: Expenses</text>
<text xml:space="preserve" text-anchor="start" x="378.17" y="-927" font-family="Helvetica,sans-Serif" font-size="10.00">&#45;&#45;&#45;</text>
<text xml:space="preserve" text-anchor="start" x="378.17" y="-903" font-family="Helvetica,sans-Serif" font-size="10.00">![Wooden boards](/i...</text>
</a>
</g>
</g>
<!-- markdown/&#45;&gt;markdown/2025&#45;07&#45;23.md -->
<g id="edge24" class="edge">
<title>markdown/&#45;&gt;markdown/2025&#45;07&#45;23.md</title>
<path fill="none" stroke="#999999" d="M178.89,-924C201.13,-924 296,-924 361.24,-924"/>
<polygon fill="#999999" stroke="#999999" points="368.61,-924 361.11,-927.38 366.08,-924 361.11,-924 361.11,-924 361.11,-924 366.08,-924 361.11,-920.63 368.61,-924"/>
<g id="a_edge24&#45;label"><a xlink:href="markdown/2025-07-23.md" xlink:title="2025&#45;07&#45;23.md">
<text xml:space="preserve" text-anchor="middle" x="266.42" y="-927" font-family="Helvetica,sans-Serif" font-size="10.00">2025&#45;07&#45;23.md</text>
</a>
</g>
</g>
<!-- markdown/2025&#45;07&#45;26.md -->
<g id="node26" class="node">
<title>markdown/2025&#45;07&#45;26.md</title>
<g id="a_node26"><a xlink:href="markdown/2025-07-26.md" xlink:title="...title: The village\l&#45;&#45;&#45;\l\l![View of a smal...\l">
<polygon fill="white" stroke="#b3b3b3" points="473.43,-824 378.51,-824 378.51,-768 473.43,-768 473.43,-824"/>
<text xml:space="preserve" text-anchor="start" x="386.51" y="-811" font-family="Helvetica,sans-Serif" font-size="10.00">...title: The village</text>
<text xml:space="preserve" text-anchor="start" x="386.51" y="-799" font-family="Helvetica,sans-Serif" font-size="10.00">&#45;&#45;&#45;</text>
<text xml:space="preserve" text-anchor="start" x="386.51" y="-775" font-family="Helvetica,sans-Serif" font-size="10.00">![View of a smal...</text>
</a>
</g>
</g>
<!-- markdown/&#45;&gt;markdown/2025&#45;07&#45;26.md -->
<g id="edge25" class="edge">
<title>markdown/&#45;&gt;markdown/2025&#45;07&#45;26.md</title>
<path fill="none" stroke="#999999" d="M178.35,-921.81C187.98,-916.85 212.21,-904.38 232.51,-894 279.14,-870.15 332.19,-843.15 370.76,-823.54"/>
<polygon fill="#999999" stroke="#999999" points="377.19,-820.27 372.04,-826.68 374.93,-821.42 370.51,-823.67 370.51,-823.67 370.51,-823.67 374.93,-821.42 368.98,-820.66 377.19,-820.27"/>
<g id="a_edge25&#45;label"><a xlink:href="markdown/2025-07-26.md" xlink:title="2025&#45;07&#45;26.md">
<text xml:space="preserve" text-anchor="middle" x="266.42" y="-897" font-family="Helvetica,sans-Serif" font-size="10.00">2025&#45;07&#45;26.md</text>
</a>
</g>
</g>
<!-- markdown/2025&#45;07&#45;29.md -->
<g id="node27" class="node">
<title>markdown/2025&#45;07&#45;29.md</title>
<g id="a_node27"><a xlink:href="markdown/2025-07-29.md" xlink:title="...title: Afternoon activity\l&#45;&#45;&#45;\l\l![Lily pa...\l">
<polygon fill="white" stroke="#b3b3b3" points="487.05,-696 364.89,-696 364.89,-640 487.05,-640 487.05,-696"/>
<text xml:space="preserve" text-anchor="start" x="372.89" y="-683" font-family="Helvetica,sans-Serif" font-size="10.00">...title: Afternoon activity</text>
<text xml:space="preserve" text-anchor="start" x="372.89" y="-671" font-family="Helvetica,sans-Serif" font-size="10.00">&#45;&#45;&#45;</text>
<text xml:space="preserve" text-anchor="start" x="372.89" y="-647" font-family="Helvetica,sans-Serif" font-size="10.00">![Lily pa...</text>
</a>
</g>
</g>
<!-- markdown/&#45;&gt;markdown/2025&#45;07&#45;29.md -->
<g id="edge26" class="edge">
<title>markdown/&#45;&gt;markdown/2025&#45;07&#45;29.md</title>
<path fill="none" stroke="#999999" d="M176.36,-919.46C183.41,-905.5 206.2,-862.28 232.51,-832 276.6,-781.25 336.81,-732.53 378.08,-701.57"/>
<polygon fill="#999999" stroke="#999999" points="384.07,-697.11 380.07,-704.3 382.04,-698.62 378.06,-701.59 378.06,-701.59 378.06,-701.59 382.04,-698.62 376.04,-698.89 384.07,-697.11"/>
<g id="a_edge26&#45;label"><a xlink:href="markdown/2025-07-29.md" xlink:title="2025&#45;07&#45;29.md">
<text xml:space="preserve" text-anchor="middle" x="266.42" y="-835" font-family="Helvetica,sans-Serif" font-size="10.00">2025&#45;07&#45;29.md</text>
</a>
</g>
</g>
<!-- markdown/2025&#45;08&#45;01.md -->
<g id="node28" class="node">
<title>markdown/2025&#45;08&#45;01.md</title>
<g id="a_node28"><a xlink:href="markdown/2025-08-01.md" xlink:title="...title: Living small\l&#45;&#45;&#45;\l\l![Wooden chair ...\l">
<polygon fill="white" stroke="#b3b3b3" points="474.82,-568 377.12,-568 377.12,-512 474.82,-512 474.82,-568"/>
<text xml:space="preserve" text-anchor="start" x="385.12" y="-555" font-family="Helvetica,sans-Serif" font-size="10.00">...title: Living small</text>
<text xml:space="preserve" text-anchor="start" x="385.12" y="-543" font-family="Helvetica,sans-Serif" font-size="10.00">&#45;&#45;&#45;</text>
<text xml:space="preserve" text-anchor="start" x="385.12" y="-519" font-family="Helvetica,sans-Serif" font-size="10.00">![Wooden chair ...</text>
</a>
</g>
</g>
<!-- markdown/&#45;&gt;markdown/2025&#45;08&#45;01.md -->
<g id="edge27" class="edge">
<title>markdown/&#45;&gt;markdown/2025&#45;08&#45;01.md</title>
<path fill="none" stroke="#999999" d="M174.94,-918.48C178.65,-895.18 195.1,-803.17 232.51,-738 270.98,-670.97 337.33,-609.83 381.18,-573.76"/>
<polygon fill="#999999" stroke="#999999" points="386.81,-569.17 383.13,-576.53 384.85,-570.77 381,-573.91 381,-573.91 381,-573.91 384.85,-570.77 378.86,-571.3 386.81,-569.17"/>
<g id="a_edge27&#45;label"><a xlink:href="markdown/2025-08-01.md" xlink:title="2025&#45;08&#45;01.md">
<text xml:space="preserve" text-anchor="middle" x="266.42" y="-741" font-family="Helvetica,sans-Serif" font-size="10.00">2025&#45;08&#45;01.md</text>
</a>
</g>
</g>
<!-- markdown/2025&#45;08&#45;04.md -->
<g id="node29" class="node">
<title>markdown/2025&#45;08&#45;04.md</title>
<g id="a_node29"><a xlink:href="markdown/2025-08-04.md" xlink:title="...title: August rain\l&#45;&#45;&#45;\l\l![Water lily flo...\l">
<polygon fill="white" stroke="#b3b3b3" points="473.99,-440 377.95,-440 377.95,-384 473.99,-384 473.99,-440"/>
<text xml:space="preserve" text-anchor="start" x="385.95" y="-427" font-family="Helvetica,sans-Serif" font-size="10.00">...title: August rain</text>
<text xml:space="preserve" text-anchor="start" x="385.95" y="-415" font-family="Helvetica,sans-Serif" font-size="10.00">&#45;&#45;&#45;</text>
<text xml:space="preserve" text-anchor="start" x="385.95" y="-391" font-family="Helvetica,sans-Serif" font-size="10.00">![Water lily flo...</text>
</a>
</g>
</g>
<!-- markdown/&#45;&gt;markdown/2025&#45;08&#45;04.md -->
<g id="edge28" class="edge">
<title>markdown/&#45;&gt;markdown/2025&#45;08&#45;04.md</title>
<path fill="none" stroke="#999999" d="M174.19,-918.36C174.85,-887.24 180.7,-733.91 232.51,-624 267.35,-550.07 336.83,-483.66 382.08,-445.6"/>
<polygon fill="#999999" stroke="#999999" points="387.63,-440.97 384.03,-448.37 385.69,-442.59 381.87,-445.77 381.87,-445.77 381.87,-445.77 385.69,-442.59 379.71,-443.18 387.63,-440.97"/>
<g id="a_edge28&#45;label"><a xlink:href="markdown/2025-08-04.md" xlink:title="2025&#45;08&#45;04.md">
<text xml:space="preserve" text-anchor="middle" x="266.42" y="-627" font-family="Helvetica,sans-Serif" font-size="10.00">2025&#45;08&#45;04.md</text>
</a>
</g>
</g>
<!-- markdown/2025&#45;08&#45;07.md -->
<g id="node30" class="node">
<title>markdown/2025&#45;08&#45;07.md</title>
<g id="a_node30"><a xlink:href="markdown/2025-08-07.md" xlink:title="...title: Out on the pond\l&#45;&#45;&#45;\l\l![Wooden row...\l">
<polygon fill="white" stroke="#b3b3b3" points="484.56,-312 367.38,-312 367.38,-256 484.56,-256 484.56,-312"/>
<text xml:space="preserve" text-anchor="start" x="375.38" y="-299" font-family="Helvetica,sans-Serif" font-size="10.00">...title: Out on the pond</text>
<text xml:space="preserve" text-anchor="start" x="375.38" y="-287" font-family="Helvetica,sans-Serif" font-size="10.00">&#45;&#45;&#45;</text>
<text xml:space="preserve" text-anchor="start" x="375.38" y="-263" font-family="Helvetica,sans-Serif" font-size="10.00">![Wooden row...</text>
</a>
</g>
</g>
<!-- markdown/&#45;&gt;markdown/2025&#45;08&#45;07.md -->
<g id="edge29" class="edge">
<title>markdown/&#45;&gt;markdown/2025&#45;08&#45;07.md</title>
<path fill="none" stroke="#999999" d="M174.46,-918.36C177.28,-873.79 197.19,-578.12 232.51,-497 265.12,-422.09 334.89,-355.77 380.86,-317.76"/>
<polygon fill="#999999" stroke="#999999" points="386.51,-313.13 382.85,-320.49 384.56,-314.74 380.71,-317.88 380.71,-317.88 380.71,-317.88 384.56,-314.74 378.57,-315.27 386.51,-313.13"/>
<g id="a_edge29&#45;label"><a xlink:href="markdown/2025-08-07.md" xlink:title="2025&#45;08&#45;07.md">
<text xml:space="preserve" text-anchor="middle" x="266.42" y="-500" font-family="Helvetica,sans-Serif" font-size="10.00">2025&#45;08&#45;07.md</text>
</a>
</g>
</g>
<!-- markdown/2025&#45;08&#45;10.md -->
<g id="node31" class="node">
<title>markdown/2025&#45;08&#45;10.md</title>
<g id="a_node31"><a xlink:href="markdown/2025-08-10.md" xlink:title="...title: Coming home at night\l&#45;&#45;&#45;\l\l![Night...\l">
<polygon fill="white" stroke="#b3b3b3" points="497.61,-184 354.33,-184 354.33,-128 497.61,-128 497.61,-184"/>
<text xml:space="preserve" text-anchor="start" x="362.33" y="-171" font-family="Helvetica,sans-Serif" font-size="10.00">...title: Coming home at night</text>
<text xml:space="preserve" text-anchor="start" x="362.33" y="-159" font-family="Helvetica,sans-Serif" font-size="10.00">&#45;&#45;&#45;</text>
<text xml:space="preserve" text-anchor="start" x="362.33" y="-135" font-family="Helvetica,sans-Serif" font-size="10.00">![Night...</text>
</a>
</g>
</g>
<!-- markdown/&#45;&gt;markdown/2025&#45;08&#45;10.md -->
<g id="edge30" class="edge">
<title>markdown/&#45;&gt;markdown/2025&#45;08&#45;10.md</title>
<path fill="none" stroke="#999999" d="M174.26,-918.4C175.69,-866.93 187.94,-475.86 232.51,-369 263.96,-293.59 334.05,-227.41 380.4,-189.57"/>
<polygon fill="#999999" stroke="#999999" points="386.11,-184.96 382.4,-192.3 384.14,-186.55 380.28,-189.67 380.28,-189.67 380.28,-189.67 384.14,-186.55 378.16,-187.04 386.11,-184.96"/>
<g id="a_edge30&#45;label"><a xlink:href="markdown/2025-08-10.md" xlink:title="2025&#45;08&#45;10.md">
<text xml:space="preserve" text-anchor="middle" x="266.42" y="-372" font-family="Helvetica,sans-Serif" font-size="10.00">2025&#45;08&#45;10.md</text>
</a>
</g>
</g>
<!-- markdown/2025&#45;08&#45;13.md -->
<g id="node32" class="node">
<title>markdown/2025&#45;08&#45;13.md</title>
<g id="a_node32"><a xlink:href="markdown/2025-08-13.md" xlink:title="...title: Solitude\l&#45;&#45;&#45;\l\l![Narcissus flowers...\l">
<polygon fill="white" stroke="#b3b3b3" points="480.09,-56 371.85,-56 371.85,0 480.09,0 480.09,-56"/>
<text xml:space="preserve" text-anchor="start" x="379.85" y="-43" font-family="Helvetica,sans-Serif" font-size="10.00">...title: Solitude</text>
<text xml:space="preserve" text-anchor="start" x="379.85" y="-31" font-family="Helvetica,sans-Serif" font-size="10.00">&#45;&#45;&#45;</text>
<text xml:space="preserve" text-anchor="start" x="379.85" y="-7" font-family="Helvetica,sans-Serif" font-size="10.00">![Narcissus flowers...</text>
</a>
</g>
</g>
<!-- markdown/&#45;&gt;markdown/2025&#45;08&#45;13.md -->
<g id="edge31" class="edge">
<title>markdown/&#45;&gt;markdown/2025&#45;08&#45;13.md</title>
<path fill="none" stroke="#999999" d="M174.13,-918.25C174.45,-859.86 178.72,-373.61 232.51,-241 263.13,-165.51 333.11,-99.58 379.71,-61.78"/>
<polygon fill="#999999" stroke="#999999" points="385.46,-57.17 381.72,-64.5 383.48,-58.76 379.61,-61.86 379.61,-61.86 379.61,-61.86 383.48,-58.76 377.49,-59.23 385.46,-57.17"/>
<g id="a_edge31&#45;label"><a xlink:href="markdown/2025-08-13.md" xlink:title="2025&#45;08&#45;13.md">
<text xml:space="preserve" text-anchor="middle" x="266.42" y="-244" font-family="Helvetica,sans-Serif" font-size="10.00">2025&#45;08&#45;13.md</text>
</a>
</g>
</g>
</g>
</svg>
