<?xml version="1.0" encoding="UTF-8" standalone="no"?>
<!DOCTYPE svg PUBLIC "-//W3C//DTD SVG 1.1//EN"
 "http://www.w3.org/Graphics/SVG/1.1/DTD/svg11.dtd">
<!-- Generated by graphviz version 2.50.0 (20211209.1537)
 -->
<!-- Title: g Pages: 1 -->
<svg width="281pt" height="260pt"
 viewBox="0.00 0.00 280.84 260.00" xmlns="http://www.w3.org/2000/svg" xmlns:xlink="http://www.w3.org/1999/xlink">
<g id="graph0" class="graph" transform="scale(1 1) rotate(0) translate(4 256)">
<title>g</title>
<g id="node1" class="node">
<title></title>
<g id="a_node1"><a xlink:href=".">
<ellipse fill="white" stroke="#666666" cx="32.18" cy="-126" rx="5.5" ry="5.5"/>
</a>
</g>
<text text-anchor="middle" x="13.34" y="-111.5" font-family="Helvetica,sans-Serif" font-size="10.00">object</text>
</g>
<!-- Alice.md -->
<g id="node2" class="node">
<title>Alice.md</title>
<g id="a_node2"><a xlink:href="Alice.md" xlink:title="Hello, **Alice**.\l">
<polygon fill="white" stroke="#b3b3b3" points="271.91,-252 187.18,-252 187.18,-216 271.91,-216 271.91,-252"/>
<text text-anchor="start" x="195.36" y="-231" font-family="Helvetica,sans-Serif" font-size="10.00">Hello, **Alice**.</text>
</a>
</g>
</g>
<!-- &#45;&gt;Alice.md -->
<g id="edge1" class="edge">
<title>&#45;&gt;Alice.md</title>
<path fill="none" stroke="#999999" d="M37.26,-128.26C56.42,-138.84 138.58,-184.26 188.78,-212.02"/>
<polygon fill="#999999" stroke="#999999" points="195.65,-215.81 187.45,-215.14 192.36,-214 189.08,-212.18 189.08,-212.18 189.08,-212.18 192.36,-214 190.71,-209.23 195.65,-215.81 195.65,-215.81"/>
<text text-anchor="middle" x="111.97" y="-183" font-family="Helvetica,sans-Serif" font-size="10.00">Alice.md</text>
</g>
<!-- Bob.md -->
<g id="node3" class="node">
<title>Bob.md</title>
<g id="a_node3"><a xlink:href="Bob.md" xlink:title="Hello, **Bob**.\l">
<polygon fill="white" stroke="#b3b3b3" points="270.03,-144 189.06,-144 189.06,-108 270.03,-108 270.03,-144"/>
<text text-anchor="start" x="197.3" y="-123" font-family="Helvetica,sans-Serif" font-size="10.00">Hello, **Bob**.</text>
</a>
</g>
</g>
<!-- &#45;&gt;Bob.md -->
<g id="edge2" class="edge">
<title>&#45;&gt;Bob.md</title>
<path fill="none" stroke="#999999" d="M38.01,-126C57.48,-126 131.52,-126 181.36,-126"/>
<polygon fill="#999999" stroke="#999999" points="189.14,-126 181.64,-129.38 185.39,-126 181.64,-126 181.64,-126 181.64,-126 185.39,-126 181.64,-122.63 189.14,-126 189.14,-126"/>
<text text-anchor="middle" x="111.97" y="-129" font-family="Helvetica,sans-Serif" font-size="10.00">Bob.md</text>
</g>
<!-- Carol.md -->
<g id="node4" class="node">
<title>Carol.md</title>
<g id="a_node4"><a xlink:href="Carol.md" xlink:title="Hello, **Carol**.\l">
<polygon fill="white" stroke="#b3b3b3" points="272.63,-36 186.46,-36 186.46,0 272.63,0 272.63,-36"/>
<text text-anchor="start" x="194.25" y="-15" font-family="Helvetica,sans-Serif" font-size="10.00">Hello, **Carol**.</text>
</a>
</g>
</g>
<!-- &#45;&gt;Carol.md -->
<g id="edge3" class="edge">
<title>&#45;&gt;Carol.md</title>
<path fill="none" stroke="#999999" d="M37.26,-123.74C56.42,-113.16 138.58,-67.74 188.78,-39.98"/>
<polygon fill="#999999" stroke="#999999" points="195.65,-36.19 190.71,-42.77 192.36,-38 189.08,-39.82 189.08,-39.82 189.08,-39.82 192.36,-38 187.45,-36.86 195.65,-36.19 195.65,-36.19"/>
<text text-anchor="middle" x="111.97" y="-94" font-family="Helvetica,sans-Serif" font-size="10.00">Carol.md</text>
</g>
</g>
</svg>
