<?xml version="1.0" encoding="UTF-8" standalone="no"?>
<!DOCTYPE svg PUBLIC "-//W3C//DTD SVG 1.1//EN"
 "http://www.w3.org/Graphics/SVG/1.1/DTD/svg11.dtd">
<!-- Generated by graphviz version 2.50.0 (20211209.1537)
 -->
<!-- Title: g Pages: 1 -->
<svg width="363pt" height="260pt"
 viewBox="0.00 0.00 362.57 260.00" xmlns="http://www.w3.org/2000/svg" xmlns:xlink="http://www.w3.org/1999/xlink">
<g id="graph0" class="graph" transform="scale(1 1) rotate(0) translate(4 256)">
<title>g</title>
<g id="node1" class="node">
<title></title>
<g id="a_node1"><a xlink:href=".">
<ellipse fill="white" stroke="#666666" cx="5.5" cy="-126" rx="5.5" ry="5.5"/>
</a>
</g>
</g>
<!-- Alice.html -->
<g id="node2" class="node">
<title>Alice.html</title>
<g id="a_node2"><a xlink:href="Alice.html" xlink:title="&lt;p&gt;Hello, &lt;strong&gt;Alice&lt;/strong&gt;.&lt;/p&gt;\l">
<polygon fill="white" stroke="#b3b3b3" points="353.35,-252 165.79,-252 165.79,-216 353.35,-216 353.35,-252"/>
<text text-anchor="start" x="173.68" y="-231" font-family="Helvetica,sans-Serif" font-size="10.00">&lt;p&gt;Hello, &lt;strong&gt;Alice&lt;/strong&gt;.&lt;/p&gt;</text>
</a>
</g>
</g>
<!-- &#45;&gt;Alice.html -->
<g id="edge1" class="edge">
<title>&#45;&gt;Alice.html</title>
<path fill="none" stroke="#999999" d="M10.69,-128.32C20.21,-133.54 44.24,-146.52 65,-156 110.92,-176.97 164.19,-198.22 203.21,-213.23"/>
<polygon fill="#999999" stroke="#999999" points="210.33,-215.96 202.12,-216.43 206.83,-214.62 203.32,-213.28 203.32,-213.28 203.32,-213.28 206.83,-214.62 204.53,-210.12 210.33,-215.96 210.33,-215.96"/>
<text text-anchor="middle" x="87.78" y="-177" font-family="Helvetica,sans-Serif" font-size="10.00">Alice.html</text>
</g>
<!-- Bob.html -->
<g id="node3" class="node">
<title>Bob.html</title>
<g id="a_node3"><a xlink:href="Bob.html" xlink:title="&lt;p&gt;Hello, &lt;strong&gt;Bob&lt;/strong&gt;.&lt;/p&gt;\l">
<polygon fill="white" stroke="#b3b3b3" points="351.47,-144 167.67,-144 167.67,-108 351.47,-108 351.47,-144"/>
<text text-anchor="start" x="175.62" y="-123" font-family="Helvetica,sans-Serif" font-size="10.00">&lt;p&gt;Hello, &lt;strong&gt;Bob&lt;/strong&gt;.&lt;/p&gt;</text>
</a>
</g>
</g>
<!-- &#45;&gt;Bob.html -->
<g id="edge2" class="edge">
<title>&#45;&gt;Bob.html</title>
<path fill="none" stroke="#999999" d="M11.31,-126C29.95,-126 99.35,-126 159.91,-126"/>
<polygon fill="#999999" stroke="#999999" points="167.62,-126 160.12,-129.38 163.87,-126 160.12,-126 160.12,-126 160.12,-126 163.87,-126 160.12,-122.63 167.62,-126 167.62,-126"/>
<text text-anchor="middle" x="87.78" y="-129" font-family="Helvetica,sans-Serif" font-size="10.00">Bob.html</text>
</g>
<!-- Carol.html -->
<g id="node4" class="node">
<title>Carol.html</title>
<g id="a_node4"><a xlink:href="Carol.html" xlink:title="&lt;p&gt;Hello, &lt;strong&gt;Carol&lt;/strong&gt;.&lt;/p&gt;\l">
<polygon fill="white" stroke="#b3b3b3" points="354.57,-36 164.56,-36 164.56,0 354.57,0 354.57,-36"/>
<text text-anchor="start" x="172.57" y="-15" font-family="Helvetica,sans-Serif" font-size="10.00">&lt;p&gt;Hello, &lt;strong&gt;Carol&lt;/strong&gt;.&lt;/p&gt;</text>
</a>
</g>
</g>
<!-- &#45;&gt;Carol.html -->
<g id="edge3" class="edge">
<title>&#45;&gt;Carol.html</title>
<path fill="none" stroke="#999999" d="M10.69,-123.68C20.21,-118.46 44.24,-105.48 65,-96 110.92,-75.03 164.19,-53.78 203.21,-38.77"/>
<polygon fill="#999999" stroke="#999999" points="210.33,-36.04 204.53,-41.88 206.83,-37.38 203.32,-38.72 203.32,-38.72 203.32,-38.72 206.83,-37.38 202.12,-35.57 210.33,-36.04 210.33,-36.04"/>
<text text-anchor="middle" x="87.78" y="-99" font-family="Helvetica,sans-Serif" font-size="10.00">Carol.html</text>
</g>
</g>
</svg>
